<svg width="94" height="94" viewBox="0 0 94 94" fill="none" xmlns="http://www.w3.org/2000/svg">
<path d="M72.7803 93.9992H21.2058C9.49024 93.9992 0 84.5089 0 72.7934V21.2058C0 9.49024 9.49024 0 21.2058 0H72.7803C84.4958 0 93.9861 9.49024 93.9861 21.2058V72.7934C93.9861 84.5089 84.4958 93.9992 72.7803 93.9992Z" fill="url(#paint0_linear_3539_4226)"/>
<path d="M63.4356 33.5117L47.2171 17.5288C45.9212 16.246 43.7221 17.1754 43.7221 18.9949V39.0488L33.4857 29.4407C33.3418 29.2967 33.1061 29.3098 32.9621 29.4538L30.0431 32.5561C29.8991 32.7001 29.9122 32.9357 30.0562 33.0797L43.7221 45.9079V47.8321L30.0693 60.5294C29.9253 60.6734 29.9122 60.909 30.0562 61.053L32.9621 64.1684C33.1061 64.3124 33.3418 64.3255 33.4857 64.1815L43.7352 54.652V74.9939C43.7352 76.8134 45.9343 77.7428 47.2302 76.4599L63.4356 60.5032C64.2472 59.7048 64.2472 58.3827 63.4356 57.5711L54.1941 48.4736C53.3825 47.6751 53.3825 46.353 54.1941 45.5414L63.4356 36.4308C64.2603 35.6323 64.2603 34.3102 63.4356 33.5117ZM48.7225 26.0373L57.676 34.86L48.7748 43.1328L48.7225 43.0805V26.0373ZM48.7225 50.9214L48.8927 50.7643L57.7546 59.0764L48.7356 67.9645V50.9214H48.7225Z" fill="white"/>
<defs>
<linearGradient id="paint0_linear_3539_4226" x1="46.993" y1="0" x2="46.993" y2="93.9992" gradientUnits="userSpaceOnUse">
<stop stop-color="#ED058C"/>
<stop offset="1" stop-color="#FB616B"/>
</linearGradient>
</defs>
</svg>
