<svg width="100" height="100" viewBox="0 0 100 100" fill="none" xmlns="http://www.w3.org/2000/svg">
<g clip-path="url(#clip0_3539_4223)">
<ellipse cx="50" cy="50" rx="41" ry="36" fill="white"/>
<path d="M50 0C59.8891 0 69.5561 2.93245 77.7785 8.42652C86.001 13.9206 92.4096 21.7295 96.194 30.8658C99.9784 40.0021 100.969 50.0555 99.0393 59.7545C97.11 69.4536 92.348 78.3627 85.3553 85.3553C78.3627 92.348 69.4536 97.11 59.7545 99.0393C50.0555 100.969 40.0021 99.9784 30.8658 96.194C21.7295 92.4096 13.9206 86.001 8.42652 77.7785C2.93245 69.5561 0 59.8891 0 50C0 36.7392 5.26784 24.0215 14.6447 14.6447C24.0215 5.26784 36.7392 0 50 0ZM50 76.25C51.2361 76.25 52.4445 75.8834 53.4723 75.1967C54.5001 74.5099 55.3012 73.5338 55.7742 72.3918C56.2473 71.2497 56.3711 69.9931 56.1299 68.7807C55.8888 67.5683 55.2935 66.4547 54.4194 65.5806C53.5453 64.7065 52.4317 64.1112 51.2193 63.8701C50.0069 63.6289 48.7503 63.7527 47.6082 64.2258C46.4662 64.6988 45.4901 65.4999 44.8033 66.5277C44.1166 67.5555 43.75 68.7639 43.75 70C43.75 71.6576 44.4085 73.2473 45.5806 74.4194C46.7527 75.5915 48.3424 76.25 50 76.25ZM35.7375 57.3625L39.7625 60.325C40.9152 58.6797 42.4475 57.3364 44.2296 56.409C46.0117 55.4816 47.9911 54.9974 50 54.9974C52.0089 54.9974 53.9883 55.4816 55.7704 56.409C57.5525 57.3364 59.0848 58.6797 60.2375 60.325L64.2625 57.3625C62.6446 55.087 60.5058 53.2317 58.0247 51.9514C55.5435 50.6711 52.792 50.0031 50 50.0031C47.208 50.0031 44.4565 50.6711 41.9753 51.9514C39.4942 53.2317 37.3554 55.087 35.7375 57.3625ZM24.675 49.1875L28.75 52.1625C31.1818 48.7863 34.3813 46.0366 38.0847 44.14C41.788 42.2434 45.8892 41.2544 50.05 41.2544C54.2108 41.2544 58.312 42.2434 62.0153 44.14C65.7187 46.0366 68.9182 48.7863 71.35 52.1625L75.375 49.1875C72.4784 45.1809 68.6725 41.9187 64.27 39.6689C59.8675 37.4192 54.994 36.2462 50.05 36.2462C45.106 36.2462 40.2325 37.4192 35.83 39.6689C31.4275 41.9187 27.6216 45.1809 24.725 49.1875H24.675ZM14.675 41.775L18.9 44.8875C22.5196 39.9382 27.2448 35.9023 32.6993 33.1011C38.1537 30.3 44.1869 28.811 50.3183 28.7528C56.4497 28.6945 62.51 30.0685 68.0167 32.7655C73.5235 35.4625 78.3245 39.4078 82.0375 44.2875L85.45 41.7875C81.3915 36.2046 76.0696 31.6612 69.9193 28.5285C63.769 25.3958 56.9647 23.7627 50.0625 23.7627C43.1603 23.7627 36.356 25.3958 30.2057 28.5285C24.0554 31.6612 18.7335 36.2046 14.675 41.7875V41.775Z" fill="url(#paint0_linear_3539_4223)"/>
</g>
<defs>
<linearGradient id="paint0_linear_3539_4223" x1="50" y1="0" x2="50" y2="100" gradientUnits="userSpaceOnUse">
<stop stop-color="#1FEDE8"/>
<stop offset="1" stop-color="#02C0E8"/>
</linearGradient>
<clipPath id="clip0_3539_4223">
<rect width="100" height="100" fill="white"/>
</clipPath>
</defs>
</svg>
