<svg width="76" height="25" viewBox="0 0 76 25" fill="none" xmlns="http://www.w3.org/2000/svg">
<g clip-path="url(#clip0_798_2285)">
<path d="M75.9993 21.3448C75.9274 21.2669 75.8555 21.1954 75.7771 21.1175C74.2876 19.637 72.798 18.1565 71.3019 16.6825C71.1321 16.5136 71.0667 16.3513 71.0733 16.1175C71.0798 13.611 71.0733 11.1045 71.0733 8.59804C71.0733 8.38375 71.0994 8.40323 70.8773 8.40323C68.2967 8.40323 65.7161 8.40323 63.1355 8.40323C63.0114 8.40323 62.9265 8.36427 62.8415 8.27986C61.2866 6.7344 59.7318 5.18895 58.1769 3.64349C58.1377 3.60453 58.0919 3.57206 58.0527 3.49414C58.1377 3.50063 58.1965 3.50063 58.2487 3.50063C60.372 3.50063 62.4953 3.50063 64.6185 3.50063C68.3424 3.50063 72.0728 3.50063 75.7967 3.50063C75.8621 3.50063 75.9274 3.50063 75.9927 3.50713V21.3383L75.9993 21.3448Z" fill="#0E9462"/>
<path d="M28.118 10.4737C28.3793 10.175 28.6406 9.8698 28.9085 9.5711C29.3658 9.04513 29.8296 8.51915 30.287 7.98669C30.3915 7.86331 30.5026 7.73993 30.6006 7.61006C30.6659 7.52565 30.7443 7.44773 30.8161 7.36331C31.0056 7.14253 31.2016 6.92825 31.3911 6.70097C31.4956 6.5776 31.6132 6.46721 31.7112 6.34383C31.868 6.14902 32.0378 5.9737 32.1946 5.77889C32.2861 5.66851 32.3972 5.56461 32.4886 5.45422C32.6062 5.31136 32.7369 5.1685 32.861 5.03214C32.9394 4.94123 33.0113 4.84383 33.0962 4.75941C33.1419 4.71396 33.1877 4.68799 33.253 4.68799C34.3244 4.68799 35.3893 4.68799 36.4608 4.68799C36.5392 4.68799 36.5784 4.70747 36.5653 4.79188C36.5653 4.82435 36.5653 4.85032 36.5653 4.88279C36.5653 9.95422 36.5653 15.0321 36.5653 20.1036C36.5653 20.3373 36.5784 20.2984 36.3758 20.2984C35.1933 20.2984 34.0108 20.2984 32.8349 20.2984C32.7957 20.2984 32.7565 20.2984 32.7108 20.2984C32.665 20.2984 32.6454 20.2789 32.6454 20.2334C32.6454 20.1945 32.6454 20.1555 32.6454 20.1101C32.6454 16.9867 32.6454 13.8633 32.6454 10.7464C32.6454 10.6945 32.6454 10.649 32.6454 10.5971C32.5866 10.6036 32.5736 10.649 32.5474 10.675C31.3061 12.1101 30.0648 13.5386 28.8235 14.9737C28.7059 15.1101 28.5883 15.2399 28.4773 15.3763C28.4381 15.4282 28.3923 15.4542 28.3205 15.4542C28.1702 15.4542 28.0134 15.4542 27.8632 15.4542C27.7978 15.4542 27.7652 15.4282 27.726 15.3698C27.5822 15.1815 27.4189 15.0062 27.2621 14.8243C26.6545 14.123 26.047 13.4218 25.4394 12.7205C24.8645 12.0581 24.2895 11.3958 23.7146 10.7334C23.682 10.6945 23.6493 10.6425 23.5709 10.636V10.7984C23.5709 13.8958 23.5709 16.9932 23.5709 20.0906C23.5709 20.2334 23.4969 20.3049 23.3488 20.3049C22.1728 20.3049 20.9968 20.3049 19.8209 20.3049C19.7817 20.3049 19.7425 20.3049 19.6967 20.3049C19.651 20.3049 19.6314 20.2854 19.6379 20.2399C19.6379 20.201 19.6379 20.162 19.6379 20.1166C19.6379 15.0386 19.6379 9.96071 19.6379 4.8763C19.6379 4.66851 19.6183 4.68799 19.8274 4.68799C20.8531 4.68799 21.8723 4.68799 22.898 4.68799C23.009 4.68799 23.0809 4.71396 23.1593 4.79838C24.7599 6.64253 26.3671 8.48019 27.9742 10.3179C28.02 10.3698 28.0526 10.4218 28.118 10.4607V10.4737Z" fill="white"/>
<path d="M70.0488 16.4537C70.0292 16.5186 69.99 16.5446 69.9639 16.5771C68.3436 18.1875 66.7169 19.7979 65.0967 21.4147C65.0313 21.4797 64.9725 21.4992 64.8811 21.4992C62.601 21.4992 60.3209 21.4992 58.0409 21.4992C58.0148 21.4992 57.9886 21.4992 57.9625 21.4992C57.9102 21.4992 57.8906 21.4797 57.8906 21.4277C57.8906 21.3953 57.8906 21.3563 57.8906 21.3238C57.8906 19.0771 57.8906 16.8368 57.8906 14.5901C57.8906 14.4862 57.9168 14.4147 57.9952 14.3368C59.6154 12.7329 61.2291 11.129 62.8493 9.52514C62.8819 9.49267 62.9146 9.4667 62.9538 9.42773C62.9865 9.49267 62.9734 9.55111 62.9734 9.60955C62.9734 11.8238 62.9734 14.0381 62.9734 16.2524C62.9734 16.3953 63.0475 16.4667 63.1955 16.4667C65.4233 16.4667 67.6446 16.4667 69.8724 16.4667H70.0619L70.0488 16.4537Z" fill="#0E9462"/>
<path d="M55.1133 11.4155C55.0676 11.0778 55.0023 10.7466 54.9173 10.4155C54.8651 10.2012 54.8063 9.98689 54.7279 9.7726C54.656 9.58429 54.5776 9.39598 54.4992 9.20767C54.2444 8.60377 53.9047 8.05832 53.4931 7.55832C52.6961 6.60377 51.7161 5.89598 50.5467 5.44143C50.1743 5.29857 49.7953 5.1687 49.4164 5.06481C49.0636 4.96741 48.7043 4.89598 48.345 4.83754C47.7309 4.74013 47.1102 4.70117 46.4896 4.70117C44.2226 4.70117 41.9621 4.70117 39.6951 4.70117C39.5645 4.70117 39.5645 4.70117 39.5645 4.83104C39.5645 4.86351 39.5645 4.88948 39.5645 4.92195V20.1103C39.5645 20.1492 39.5645 20.1882 39.5645 20.2336C39.5645 20.2921 39.5906 20.3116 39.6494 20.3116C39.6886 20.3116 39.7278 20.3116 39.7735 20.3116C41.7073 20.3116 43.6411 20.3116 45.5749 20.3116C46.2152 20.3116 46.8554 20.3116 47.4957 20.2466C47.7766 20.2207 48.0641 20.2012 48.345 20.1492C48.5671 20.1103 48.7958 20.0583 49.0179 20.0129C49.2662 19.9609 49.5144 19.9155 49.7496 19.844C50.2004 19.7077 50.6512 19.5518 51.0824 19.3505C52.2518 18.8116 53.2187 18.0388 53.9504 16.9739C54.2314 16.5583 54.46 16.1168 54.6364 15.6557C54.7148 15.4609 54.7867 15.2596 54.8455 15.0583C54.9435 14.7207 55.0153 14.383 55.0807 14.0388C55.1395 13.7077 55.1721 13.3765 55.1852 13.0453C55.2048 12.4999 55.1983 11.9544 55.1264 11.409L55.1133 11.4155ZM51.1346 12.831C51.1216 13.1038 51.0758 13.3765 51.0301 13.6492C50.9713 13.9804 50.8733 14.2986 50.7623 14.6103C50.7035 14.7726 50.6381 14.9414 50.5336 15.0908C50.4748 15.1817 50.4421 15.2856 50.3833 15.383C50.2004 15.6752 49.9848 15.9414 49.7365 16.1752C49.4295 16.4674 49.0832 16.7077 48.6912 16.8895C48.443 17.0064 48.1947 17.1103 47.9269 17.1882C47.4304 17.331 46.9208 17.422 46.4046 17.4284C45.4639 17.4414 44.5231 17.4349 43.5823 17.4414C43.4713 17.4414 43.4713 17.4414 43.4713 17.3181C43.4713 16.6362 43.4713 15.9544 43.4713 15.2726C43.4713 14.3505 43.4713 13.422 43.4713 12.4999C43.4713 10.9155 43.4713 9.32455 43.4713 7.74013C43.4713 7.54533 43.4517 7.5713 43.6411 7.5713C44.412 7.5713 45.1895 7.5713 45.9604 7.5713C46.3589 7.5713 46.7509 7.59728 47.1494 7.65572C47.5741 7.72065 47.9922 7.83104 48.3973 7.98689C49.227 8.31156 49.8933 8.84403 50.3768 9.59728C50.6512 10.0258 50.8145 10.4934 50.9452 10.9739C51.115 11.5778 51.1542 12.2012 51.1281 12.8245L51.1346 12.831Z" fill="white"/>
<path d="M17.5479 19.6693C17.4499 19.4551 17.365 19.2408 17.267 19.0265C17.1232 18.7083 16.9795 18.3966 16.8358 18.0784C16.7117 17.8122 16.5941 17.5395 16.483 17.2732C16.4046 17.0849 16.3131 16.8966 16.2282 16.7083C16.1563 16.5525 16.0845 16.3901 16.0191 16.2278C15.9669 16.0914 15.9015 15.9551 15.8362 15.8187C15.7709 15.6758 15.7121 15.533 15.6468 15.3966C15.588 15.2797 15.5422 15.1628 15.4834 15.046C15.3658 14.8057 15.2809 14.5589 15.1633 14.3252C15.0653 14.1174 14.9673 13.9031 14.8758 13.6888C14.7648 13.4486 14.6668 13.2018 14.5557 12.968C14.4577 12.7538 14.3597 12.546 14.2683 12.3317C14.1637 12.0979 14.0592 11.8577 13.9547 11.6239C13.8567 11.4096 13.7521 11.1888 13.6607 10.9745C13.5169 10.6499 13.3667 10.3252 13.2295 9.99401C13.1184 9.72778 12.9943 9.46804 12.8767 9.20181C12.4912 8.34466 12.1058 7.48752 11.7269 6.62388C11.459 6.01999 11.1846 5.41609 10.9168 4.8122C10.8776 4.72129 10.8318 4.69531 10.7338 4.69531C10.2634 4.69531 9.78653 4.69531 9.31614 4.69531C8.31657 4.69531 7.31047 4.69531 6.3109 4.69531H6.30436C6.30436 4.76025 6.2717 4.8122 6.24556 4.86414C6.16063 5.05895 6.06264 5.24077 5.99077 5.44207C5.91237 5.66934 5.82091 5.89012 5.73598 6.1109C5.58572 6.51349 5.40932 6.9096 5.23293 7.3057C5.1284 7.53947 5.06307 7.78622 4.96507 8.01999C4.84094 8.31869 4.71681 8.61739 4.59268 8.9096C4.46855 9.20181 4.35095 9.50051 4.23989 9.79921C4.10923 10.1304 3.97203 10.4615 3.8283 10.7927C3.70417 11.0784 3.59311 11.3771 3.48205 11.6693C3.36445 11.9875 3.22725 12.2992 3.09659 12.6109C2.9594 12.9551 2.82873 13.2992 2.67847 13.6369C2.57394 13.8836 2.46288 14.1369 2.36488 14.3836C2.22115 14.7473 2.07089 15.1109 1.92716 15.481C1.76383 15.9096 1.56784 16.3187 1.40451 16.7473C1.28038 17.0719 1.14972 17.3966 1.02559 17.7213C0.966788 17.8706 0.894924 18.02 0.836125 18.1758C0.777327 18.3187 0.718529 18.4551 0.666264 18.5979C0.594399 18.7732 0.529068 18.9551 0.457203 19.1304C0.333074 19.4226 0.228544 19.7213 0.0913476 20.007C0.0521488 20.0914 -0.000116339 20.1888 0.0064168 20.2992C0.0390825 20.2992 0.0586819 20.2992 0.0782813 20.2992C1.39144 20.2992 2.7046 20.2992 4.01776 20.2992C4.03736 20.2992 4.05696 20.2992 4.07656 20.2992C4.12229 20.2992 4.14189 20.2797 4.16149 20.2343C4.22682 20.0525 4.29869 19.8771 4.36402 19.6953C4.46855 19.4096 4.58615 19.1304 4.69068 18.8447C4.72988 18.7473 4.75601 18.6369 4.80827 18.5395C4.91934 18.3187 4.97814 18.0784 5.07613 17.8512C5.16106 17.6628 5.21986 17.4615 5.29173 17.2667C5.30479 17.2278 5.33746 17.2148 5.37012 17.2148C5.40932 17.2148 5.44852 17.2148 5.49425 17.2148C7.69592 17.2148 9.89106 17.2148 12.0927 17.2148C12.2626 17.2148 12.378 17.2949 12.439 17.4551C12.439 17.4551 12.452 17.481 12.4586 17.5005C12.5239 17.7018 12.6284 17.8901 12.7068 18.0914C12.7983 18.3057 12.8963 18.52 12.9747 18.7408C13.04 18.9226 13.125 19.0979 13.1968 19.2797C13.3079 19.5654 13.4451 19.8447 13.5496 20.1369C13.6084 20.2992 13.628 20.3122 13.8109 20.3122C15.1045 20.3122 16.3981 20.3122 17.6916 20.3122C17.7439 20.3122 17.7962 20.3187 17.8615 20.2992C17.7439 20.0914 17.6655 19.8771 17.5675 19.6758L17.5479 19.6693ZM6.34356 14.4875C7.10794 12.481 7.86578 10.481 8.62363 8.48752C8.63669 8.48752 8.64976 8.48752 8.65629 8.48752C9.49253 10.481 10.3288 12.481 11.165 14.4875H6.34356Z" fill="white"/>
</g>
<defs>
<clipPath id="clip0_798_2285">
<rect width="76" height="18" fill="white" transform="translate(0 3.5)"/>
</clipPath>
</defs>
</svg>
