<svg width="60" height="60" viewBox="0 0 60 60" fill="none" xmlns="http://www.w3.org/2000/svg">
<path d="M38.6553 3.79688H15.8436C11.2697 3.79688 7.5625 7.50469 7.5625 12.0779V47.993C7.5625 52.5668 11.2703 56.274 15.8436 56.274H44.2902C48.8641 56.274 52.5713 52.5662 52.5713 47.993V17.7123C52.5713 15.8473 51.8307 14.059 50.5117 12.7406L43.627 5.85586C42.3083 4.53748 40.52 3.79686 38.6553 3.79688Z" fill="#FFC757"/>
<path d="M17.8627 11.5328H22.0533C22.5139 11.5328 22.8877 11.159 22.8877 10.6984V6.50781C22.8877 6.04668 22.5139 5.67344 22.0533 5.67344H17.8627C17.4021 5.67344 17.0283 6.04727 17.0283 6.50781V10.6984C17.0283 11.159 17.4021 11.5328 17.8627 11.5328ZM27.9127 11.5328H23.7221C23.2615 11.5328 22.8877 11.9066 22.8877 12.3672V16.5578C22.8877 17.0189 23.2615 17.3922 23.7221 17.3922H27.9127C28.3732 17.3922 28.7471 17.0184 28.7471 16.5578V12.3672C28.7471 11.9066 28.3732 11.5328 27.9127 11.5328ZM17.8627 23.2516H22.0533C22.5139 23.2516 22.8877 22.8777 22.8877 22.4172V18.2266C22.8877 17.7654 22.5139 17.3922 22.0533 17.3922H17.8627C17.4021 17.3922 17.0283 17.766 17.0283 18.2266V22.4172C17.0283 22.8777 17.4021 23.2516 17.8627 23.2516ZM27.9127 23.2516H23.7221C23.2615 23.2516 22.8877 23.6254 22.8877 24.0859V28.2766C22.8877 28.7377 23.2615 29.1109 23.7221 29.1109H27.9127C28.3732 29.1109 28.7471 28.7371 28.7471 28.2766V24.0859C28.7471 23.6254 28.3732 23.2516 27.9127 23.2516ZM26.6986 32.3459H18.8395C17.8393 32.3459 17.0283 33.1568 17.0283 34.157V43.2672C17.0283 44.2674 17.8393 45.0783 18.8395 45.0783H26.6986C27.6988 45.0783 28.5098 44.2674 28.5098 43.2672V34.157C28.5098 33.1568 27.6988 32.3459 26.6986 32.3459ZM26.4098 41.9898C26.4098 42.7937 25.7582 43.4453 24.9543 43.4453H20.5832C19.7793 43.4453 19.1277 42.7937 19.1277 41.9898V40.3867C19.1277 39.5828 19.7793 38.9312 20.5832 38.9312H24.9543C25.7582 38.9312 26.4098 39.5828 26.4098 40.3867V41.9898ZM50.5123 12.7422L43.6275 5.85742C42.6397 4.8697 41.3801 4.19859 40.0094 3.92969V11.657C40.0094 14.1104 41.998 16.099 44.4514 16.099H52.3832C52.0833 14.8281 51.4355 13.6657 50.5123 12.7422Z" fill="#F79F2B"/>
<path d="M17.8627 10.8281H22.0533C22.5139 10.8281 22.8877 10.4543 22.8877 9.99375V5.80313C22.8877 5.34199 22.5139 4.96875 22.0533 4.96875H17.8627C17.4021 4.96875 17.0283 5.34258 17.0283 5.80313V9.99375C17.0283 10.4543 17.4021 10.8281 17.8627 10.8281ZM27.9127 10.8281H23.7221C23.2615 10.8281 22.8877 11.202 22.8877 11.6625V15.8531C22.8877 16.3143 23.2615 16.6875 23.7221 16.6875H27.9127C28.3732 16.6875 28.7471 16.3137 28.7471 15.8531V11.6625C28.7471 11.202 28.3732 10.8281 27.9127 10.8281ZM17.8627 22.5469H22.0533C22.5139 22.5469 22.8877 22.173 22.8877 21.7125V17.5219C22.8877 17.0607 22.5139 16.6875 22.0533 16.6875H17.8627C17.4021 16.6875 17.0283 17.0613 17.0283 17.5219V21.7125C17.0283 22.173 17.4021 22.5469 17.8627 22.5469ZM27.9127 22.5469H23.7221C23.2615 22.5469 22.8877 22.9207 22.8877 23.3812V27.5719C22.8877 28.033 23.2615 28.4062 23.7221 28.4062H27.9127C28.3732 28.4062 28.7471 28.0324 28.7471 27.5719V23.3812C28.7471 22.9207 28.3732 22.5469 27.9127 22.5469ZM26.6986 31.6412H18.8395C17.8393 31.6412 17.0283 32.4521 17.0283 33.4523V42.5625C17.0283 43.5627 17.8393 44.3736 18.8395 44.3736H26.6986C27.6988 44.3736 28.5098 43.5627 28.5098 42.5625V33.4523C28.5098 32.4521 27.6988 31.6412 26.6986 31.6412ZM26.4098 41.2852C26.4098 42.0891 25.7582 42.7406 24.9543 42.7406H20.5832C19.7793 42.7406 19.1277 42.0891 19.1277 41.2852V39.682C19.1277 38.8781 19.7793 38.2266 20.5832 38.2266H24.9543C25.7582 38.2266 26.4098 38.8781 26.4098 39.682V41.2852Z" fill="white"/>
</svg>
