<svg width="120" height="120" viewBox="0 0 120 120" fill="none" xmlns="http://www.w3.org/2000/svg">
<g clip-path="url(#clip0_736_304)">
<path fill-rule="evenodd" clip-rule="evenodd" d="M60 0C26.8538 0 0 26.8538 0 60C0 93.1462 26.8538 120 60 120C93.1462 120 120 93.1462 120 60C120 26.8538 93.1462 0 60 0ZM95.5391 35.2733C94.8301 36.514 93.2349 36.9572 91.9941 36.2482C91.9055 36.2482 91.9055 36.1595 91.8168 36.1595C84.8154 32.26 76.0414 31.9941 68.5968 36.2482C68.4195 36.3368 68.3309 36.4254 68.1536 36.514C70.901 36.9572 73.4712 38.2866 75.5982 40.4136C78.5229 43.3383 79.8523 47.3264 79.675 51.226C79.675 51.3146 79.675 51.4032 79.675 51.4919C79.675 52.9099 78.5229 54.062 77.1049 54.062C75.6869 54.062 74.5347 52.9099 74.5347 51.4919C74.5347 51.226 74.5347 50.9601 74.6233 50.7829C74.712 48.39 73.9143 45.9084 72.0532 44.0473C69.483 41.4771 65.7607 40.8567 62.5702 42.0089V97.7548H73.2053C74.6233 97.7548 75.7755 98.9069 75.7755 100.325C75.7755 101.743 74.6233 102.895 73.2053 102.895H46.8833C45.4653 102.895 44.3131 101.743 44.3131 100.325C44.3131 98.9069 45.4653 97.7548 46.8833 97.7548H57.4298V41.9202C54.2393 40.6795 50.517 41.3885 47.9468 43.9586C46.0857 45.8198 45.288 48.3013 45.3767 50.6942C45.3767 50.8715 45.4653 51.1374 45.4653 51.4033C45.4653 52.8213 44.3131 53.9734 42.8951 53.9734C41.4771 53.9734 40.325 52.8213 40.325 51.4033C40.325 51.3146 40.325 51.226 40.325 51.1374C40.0591 47.2378 41.4771 43.3383 44.4018 40.325C46.5288 38.1979 49.099 36.8685 51.8464 36.4254C51.6691 36.3368 51.5805 36.2482 51.4033 36.1595C43.9586 31.9055 35.096 32.1713 28.0945 36.0709C28.0059 36.0709 28.0059 36.1595 27.9173 36.1595C26.6765 36.8685 25.0812 36.4254 24.3722 35.1846C23.6632 33.9439 24.1064 32.4372 25.3471 31.7282C25.4357 31.7282 25.4357 31.6396 25.5244 31.6396C34.0325 26.8538 44.9335 26.4993 53.9734 31.7282C55.1256 32.4372 56.2777 33.1462 57.2526 33.9439C56.7208 31.1078 55.3914 28.449 53.1758 26.2334C51.0487 24.1064 48.39 22.6883 45.5539 22.1566C44.1359 22.1566 42.9838 21.0044 42.9838 19.5864C42.9838 18.1684 44.1359 17.0162 45.5539 17.0162C45.7312 17.0162 45.997 17.0162 46.1743 17.1049C50.0739 17.8139 53.7962 19.5864 56.8095 22.5997C57.9616 23.7518 59.0251 25.0812 59.8227 26.4993C60.6204 25.1699 61.6839 23.8405 62.836 22.6883C65.8493 19.675 69.5716 17.8139 73.4712 17.1935C73.6485 17.1049 73.9143 17.1049 74.0916 17.1049C75.5096 17.1049 76.6617 18.257 76.6617 19.675C76.6617 21.0931 75.5096 22.2452 74.0916 22.2452C71.3442 22.777 68.5968 24.1064 66.4697 26.322C64.2541 28.5377 62.9247 31.1965 62.3929 34.0325C63.4564 33.2349 64.5199 32.5259 65.6721 31.8168C74.8006 26.5879 85.613 26.9424 94.1211 31.7282C94.2097 31.7282 94.2098 31.8168 94.2984 31.8168C95.805 32.5259 96.2482 34.0325 95.5391 35.2733Z" fill="#0C919B"/>
</g>
<defs>
<clipPath id="clip0_736_304">
<rect width="120" height="120" fill="white"/>
</clipPath>
</defs>
</svg>
