<svg width="54" height="64" viewBox="0 0 54 64" fill="none" xmlns="http://www.w3.org/2000/svg">
<path fill-rule="evenodd" clip-rule="evenodd" d="M53.1021 13.6545C52.8444 14.0905 52.4251 14.4077 51.935 14.5375C51.445 14.6673 50.9234 14.5992 50.4832 14.348C50.437 14.3211 50.3909 14.2917 50.3474 14.261C47.7019 12.7911 44.7215 12.0278 41.6942 12.0448C38.6669 12.0618 35.6953 12.8587 33.0666 14.3583C32.9598 14.418 32.8547 14.4794 32.7514 14.5425C34.8463 14.9152 36.7734 15.9289 38.2661 17.4435C39.3041 18.4912 40.1086 19.7463 40.6269 21.1264C41.1451 22.5065 41.3654 23.9804 41.2733 25.4515C41.282 25.5237 41.2863 25.5963 41.2861 25.669C41.2861 26.1747 41.0849 26.6597 40.7269 27.0173C40.3689 27.3748 39.8833 27.5757 39.3769 27.5757C38.8706 27.5757 38.385 27.3748 38.027 27.0173C37.669 26.6597 37.4678 26.1747 37.4678 25.669C37.4743 25.4939 37.4902 25.3192 37.5152 25.1457C37.5819 23.3682 36.9873 21.4974 35.6304 20.1423C34.7299 19.2434 33.5891 18.6227 32.3446 18.3542C31.1001 18.0858 29.8046 18.181 28.6128 18.6284V60.0173H36.544C37.0507 60.0173 37.5366 60.2183 37.8949 60.5761C38.2531 60.9339 38.4544 61.4192 38.4544 61.9252C38.4544 62.4313 38.2531 62.9166 37.8949 63.2744C37.5366 63.6322 37.0507 63.8332 36.544 63.8332H16.9569C16.4502 63.8332 15.9643 63.6322 15.606 63.2744C15.2478 62.9166 15.0465 62.4313 15.0465 61.9252C15.0465 61.4192 15.2478 60.9339 15.606 60.5761C15.9643 60.2183 16.4502 60.0173 16.9569 60.0173H24.792V18.6156C23.597 18.1623 22.2963 18.0632 21.0462 18.3302C19.7962 18.5971 18.6498 19.2188 17.7449 20.1205C16.388 21.4756 15.7922 23.3465 15.8588 25.1239C15.8845 25.2978 15.9004 25.4729 15.9062 25.6486C15.9062 26.1546 15.705 26.6399 15.3467 26.9977C14.9884 27.3555 14.5025 27.5565 13.9958 27.5565C13.4892 27.5565 13.0032 27.3555 12.645 26.9977C12.2867 26.6399 12.0854 26.1546 12.0854 25.6486C12.0854 25.5755 12.0892 25.5024 12.097 25.4297C12.0053 23.9584 12.2262 22.4843 12.7451 21.1042C13.264 19.7241 14.0693 18.4692 15.108 17.4217C16.6033 15.9082 18.5327 14.8963 20.6291 14.5259C20.5253 14.4645 20.4202 14.3979 20.3139 14.3416C17.6823 12.8415 14.7078 12.0445 11.6778 12.0277C8.64773 12.0109 5.66456 12.7748 3.01645 14.2456C2.97288 14.2751 2.92676 14.3045 2.88063 14.3314C2.43977 14.5835 1.91722 14.6521 1.4261 14.5223C0.934979 14.3925 0.514807 14.0747 0.256544 13.6378C0.131198 13.4215 0.0500388 13.1826 0.0177634 12.9348C-0.0145119 12.687 0.00273687 12.4352 0.0685118 12.1941C0.134287 11.953 0.247282 11.7274 0.400959 11.5302C0.554637 11.3329 0.745946 11.1681 0.963817 11.0453C0.999693 11.0248 1.03557 11.0056 1.07273 10.9877C4.74455 8.91818 8.94576 7.97564 13.1511 8.27789C17.3564 8.58014 21.3791 10.1138 24.7164 12.687C24.3125 10.5343 23.2689 8.55282 21.7215 7.00078C20.1741 5.44873 18.1946 4.39801 16.0408 3.98545H16.0485C15.5407 3.98241 15.0548 3.77883 14.6969 3.41919C14.339 3.05955 14.138 2.57307 14.1381 2.06598C14.1354 1.81485 14.1833 1.56575 14.2787 1.33341C14.3742 1.10107 14.5153 0.890201 14.6938 0.713275C14.8723 0.53635 15.0844 0.396961 15.3178 0.303349C15.5511 0.209737 15.8009 0.163804 16.0523 0.168265C16.2096 0.172091 16.366 0.193117 16.5187 0.230968C18.6187 0.591052 20.6157 1.40097 22.3725 2.60506C24.1294 3.80916 25.6043 5.37887 26.696 7.20632C27.7872 5.38369 29.26 3.8182 31.0135 2.61711C32.767 1.41602 34.7598 0.607722 36.8554 0.247603C37.0079 0.208959 37.1644 0.18792 37.3217 0.184901C37.5724 0.180453 37.8214 0.226159 38.0541 0.319326C38.2868 0.412493 38.4984 0.551235 38.6766 0.727376C38.8548 0.903517 38.9958 1.11349 39.0914 1.34493C39.1871 1.57636 39.2354 1.82458 39.2334 2.07494C39.2334 2.58158 39.0329 3.06769 38.6755 3.42725C38.3181 3.78682 37.8329 3.99069 37.3256 3.99441H37.332C35.1793 4.40744 33.2011 5.4585 31.6553 7.01062C30.1094 8.56274 29.0675 10.5439 28.6653 12.696C31.9991 10.1234 36.0187 8.59029 40.2208 8.28869C44.4229 7.98709 48.6207 8.93039 52.2885 11.0005C52.3244 11.0184 52.3615 11.0376 52.3974 11.058C52.6155 11.1813 52.8069 11.3465 52.9605 11.5441C53.1142 11.7417 53.2271 11.9678 53.2926 12.2093C53.3581 12.4508 53.3751 12.7029 53.3424 12.9509C53.3097 13.199 53.228 13.4381 53.1021 13.6545Z" fill="#0C929C"/>
</svg>
