<svg width="106" height="21" viewBox="0 0 106 21" fill="none" xmlns="http://www.w3.org/2000/svg">
<path fill-rule="evenodd" clip-rule="evenodd" d="M4.89478 0.312564H0V20.1604H3.0492V12.6588H4.89478C6.25889 12.6588 7.30204 12.19 8.26495 11.2523C9.22786 10.3146 9.70931 9.22064 9.70931 7.89224V5.15731C9.70931 3.82891 9.3081 2.65679 8.42543 1.79724C7.54277 0.859551 6.33914 0.312564 4.89478 0.312564ZM6.66011 8.04853C6.66011 8.51737 6.49962 8.90808 6.17865 9.29878C5.85768 9.61135 5.45647 9.76763 4.97502 9.76763H3.0492V3.43821H4.89478C5.45647 3.43821 5.85768 3.59449 6.17865 3.90705C6.49962 4.21962 6.66011 4.61032 6.66011 5.15731V8.04853ZM18.215 0.312564H15.246L11.7154 20.1604H14.9251L15.6472 15.6282H18.8569L19.5791 20.1604H22.7888C22.7888 20.1604 20.4618 6.01686 19.6593 1.64096C19.4186 0.312564 18.215 0.312564 18.215 0.312564ZM16.2089 12.737L17.3323 4.92288L18.4557 12.737H16.2089ZM28.0848 1.64096C28.0848 0.312564 26.5602 0.312564 26.5602 0.312564H24.9553V20.1604H33.3005V17.191H28.0848C28.0848 17.191 28.0848 5.70429 28.0848 1.64096ZM45.2566 1.64096C44.5344 5.15731 42.7691 14.6124 42.7691 14.6124C42.7691 14.6124 40.8433 5.23545 40.1211 1.64096C39.8804 0.312564 38.5965 0.312564 38.5965 0.312564H35.3868V20.1604H38.436V7.73596L41.405 20.1604H43.8925L46.5405 7.73596V20.1604H49.7502V0.312564H46.7812C46.701 0.312564 45.4973 0.312564 45.2566 1.64096ZM61.3051 12.4244C60.9039 11.7212 60.3422 11.0179 59.5397 10.2365C59.299 10.0021 58.8176 9.61135 58.0954 8.98622C57.4534 8.51737 57.0522 8.04853 56.7313 7.73596C55.9288 6.79827 55.5276 5.86058 55.5276 5.00103C55.5276 4.45404 55.6079 3.90705 55.8486 3.51635C56.1696 3.0475 56.5708 2.81308 57.1325 2.81308C57.6942 2.81308 58.0954 2.96936 58.3361 3.28192C58.7373 3.75077 58.8978 4.3759 59.0583 5.15731L62.0272 4.68846C61.947 3.82891 61.7063 3.0475 61.3051 2.34423C60.9039 1.64096 60.4224 1.17212 59.8607 0.78141C59.0583 0.312564 58.0954 0 57.0522 0C55.9288 0 54.9659 0.312564 54.1635 0.859551C52.8796 1.79724 52.3179 3.12564 52.3179 5.00103C52.3179 6.01686 52.5587 6.95455 53.0401 7.8141C53.4413 8.59551 54.1635 9.45506 55.2067 10.3928C56.4103 11.4867 57.293 12.3463 57.9349 12.8933C58.7373 13.6747 59.0583 14.5342 59.0583 15.3156C59.0583 15.8626 58.978 16.3315 58.7373 16.644C58.3361 17.2692 57.7744 17.5817 57.1325 17.5817C56.651 17.5817 56.2498 17.4255 55.8486 17.0347C55.3671 16.4878 55.0462 15.7063 54.8857 14.5342L51.9167 14.6905C51.997 15.7845 52.2377 16.7222 52.6389 17.5036C53.0401 18.285 53.5216 18.9883 54.2437 19.4571C55.0462 20.0041 56.0091 20.3167 57.2127 20.3167C57.8547 20.3167 58.4163 20.2385 58.8978 20.0822C59.7805 19.7697 60.5026 19.3008 60.9841 18.6757C61.7063 17.6599 62.1075 16.4878 62.1075 15.1594C62.1075 14.6124 61.947 13.9872 61.626 13.284C61.626 13.0496 61.4656 12.737 61.3051 12.4244ZM72.6995 0.312564H71.0144V8.7518H67.4035C67.4035 8.7518 67.4035 3.98519 67.4035 1.64096C67.4035 0.312564 65.8789 0.312564 65.8789 0.312564H64.3543V20.1604H67.4035V11.7993H71.0946V20.1604H74.3043C74.3043 20.1604 74.3043 6.095 74.3043 1.64096C74.2241 0.312564 72.6995 0.312564 72.6995 0.312564ZM83.5322 0.312564H76.2301V20.1604H85.0568V17.1129H79.3596V11.7212H83.4519V8.7518H79.3596V3.36006H85.0568C85.0568 3.36006 85.0568 2.50051 85.0568 1.64096C85.0568 0.234423 83.5322 0.312564 83.5322 0.312564ZM90.1923 1.64096C90.1923 0.312564 88.6677 0.312564 88.6677 0.312564H87.0628V20.1604H95.4883V17.191H90.1923C90.1923 17.191 90.1923 5.62615 90.1923 1.64096ZM100.704 17.191C100.704 17.191 100.704 5.62615 100.704 1.64096C100.704 0.312564 99.1794 0.312564 99.1794 0.312564H97.5746V20.1604H106V17.191H100.704Z" fill="white"/>
</svg>
