<svg width="614" height="549" viewBox="0 0 614 549" fill="none" xmlns="http://www.w3.org/2000/svg">
<path fill-rule="evenodd" clip-rule="evenodd" d="M494.188 165.114C492.367 168.189 489.405 170.426 485.942 171.341C482.479 172.257 478.794 171.777 475.684 170.005C475.358 169.816 475.032 169.608 474.724 169.391C456.032 159.025 434.973 153.641 413.583 153.762C392.194 153.882 371.197 159.501 352.624 170.077C351.869 170.498 351.127 170.932 350.397 171.377C365.198 174.005 378.815 181.154 389.361 191.836C396.696 199.225 402.38 208.077 406.042 217.81C409.704 227.543 411.26 237.938 410.609 248.313C410.671 248.822 410.701 249.334 410.7 249.847C410.7 253.413 409.279 256.833 406.749 259.355C404.219 261.877 400.788 263.294 397.211 263.294C393.633 263.294 390.202 261.877 387.672 259.355C385.142 256.833 383.721 253.413 383.721 249.847C383.767 248.611 383.879 247.379 384.056 246.156C384.527 233.62 380.326 220.426 370.739 210.869C364.376 204.53 356.316 200.152 347.523 198.259C338.729 196.366 329.575 197.037 321.155 200.193V492.088H377.194C380.774 492.088 384.207 493.506 386.739 496.029C389.27 498.553 390.692 501.975 390.692 505.544C390.692 509.113 389.27 512.535 386.739 515.059C384.207 517.582 380.774 519 377.194 519H238.798C235.218 519 231.785 517.582 229.253 515.059C226.722 512.535 225.3 509.113 225.3 505.544C225.3 501.975 226.722 498.553 229.253 496.029C231.785 493.506 235.218 492.088 238.798 492.088H294.158V200.102C285.714 196.906 276.524 196.206 267.692 198.089C258.859 199.972 250.76 204.356 244.366 210.716C234.778 220.273 230.569 233.467 231.039 246.002C231.221 247.228 231.333 248.464 231.374 249.702C231.374 253.271 229.952 256.694 227.421 259.217C224.889 261.741 221.456 263.158 217.876 263.158C214.296 263.158 210.863 261.741 208.331 259.217C205.8 256.694 204.378 253.271 204.378 249.702C204.377 249.187 204.405 248.672 204.459 248.159C203.812 237.782 205.372 227.386 209.039 217.653C212.705 207.92 218.395 199.069 225.734 191.682C236.3 181.008 249.932 173.872 264.744 171.259C264.011 170.826 263.269 170.357 262.517 169.96C243.923 159.38 222.907 153.76 201.497 153.641C180.088 153.523 159.01 158.91 140.299 169.283C139.992 169.491 139.666 169.698 139.34 169.888C136.225 171.666 132.533 172.15 129.063 171.234C125.592 170.319 122.624 168.078 120.799 164.996C119.913 163.471 119.34 161.786 119.112 160.038C118.884 158.291 119.006 156.515 119.47 154.815C119.935 153.114 120.733 151.523 121.819 150.132C122.905 148.741 124.257 147.579 125.796 146.712C126.05 146.568 126.303 146.432 126.566 146.306C152.51 131.711 182.194 125.064 211.907 127.195C241.62 129.327 270.044 140.143 293.624 158.291C290.77 143.108 283.397 129.134 272.463 118.188C261.53 107.243 247.543 99.8324 232.325 96.9228H232.379C228.792 96.9014 225.359 95.4657 222.83 92.9293C220.3 90.3929 218.881 86.962 218.881 83.3858C218.863 81.6147 219.201 79.8579 219.875 78.2193C220.549 76.5807 221.547 75.0936 222.808 73.8458C224.069 72.598 225.568 71.615 227.217 70.9548C228.865 70.2946 230.63 69.9706 232.406 70.0021C233.518 70.0291 234.623 70.1774 235.702 70.4443C250.54 72.9838 264.65 78.6958 277.063 87.1876C289.476 95.6795 299.898 106.75 307.611 119.638C315.321 106.784 325.728 95.7433 338.117 87.2726C350.507 78.8019 364.588 73.1014 379.394 70.5616C380.472 70.2891 381.577 70.1407 382.689 70.1194C384.46 70.088 386.22 70.4104 387.864 71.0675C389.508 71.7245 391.003 72.703 392.262 73.9452C393.521 75.1875 394.518 76.6683 395.193 78.3005C395.869 79.9327 396.21 81.6832 396.197 83.4489C396.197 87.022 394.78 90.4503 392.254 92.9862C389.729 95.522 386.301 96.9598 382.716 96.986H382.762C367.552 99.8989 353.574 107.312 342.652 118.258C331.729 129.204 324.367 143.177 321.526 158.354C345.081 140.211 373.482 129.399 403.173 127.272C432.864 125.144 462.524 131.797 488.439 146.396C488.693 146.523 488.955 146.658 489.209 146.802C490.75 147.671 492.102 148.837 493.188 150.23C494.273 151.624 495.071 153.219 495.534 154.922C495.997 156.625 496.117 158.403 495.886 160.152C495.655 161.902 495.078 163.588 494.188 165.114Z" fill="white"/>
<circle cx="238.5" cy="505.5" r="13" stroke="#A8A8A8" stroke-dasharray="2 2"/>
<circle cx="217.5" cy="249.5" r="13" stroke="#A8A8A8" stroke-dasharray="2 2"/>
<circle cx="307.5" cy="242.5" r="16" stroke="#A8A8A8" stroke-dasharray="2 2"/>
<circle cx="132.5" cy="158.5" r="13" stroke="#A8A8A8" stroke-dasharray="2 2"/>
<circle cx="231.5" cy="83.5" r="13" stroke="#A8A8A8" stroke-dasharray="2 2"/>
<circle cx="382.5" cy="83.5" r="13" stroke="#A8A8A8" stroke-dasharray="2 2"/>
<circle cx="482.5" cy="158.5" r="13" stroke="#A8A8A8" stroke-dasharray="2 2"/>
<circle cx="397.5" cy="250.5" r="13" stroke="#A8A8A8" stroke-dasharray="2 2"/>
<circle cx="377.5" cy="505.5" r="13" stroke="#A8A8A8" stroke-dasharray="2 2"/>
<circle cx="277.5" cy="243.5" r="46" stroke="#A8A8A8" stroke-dasharray="2 2"/>
<circle cx="337.5" cy="243.5" r="46" stroke="#A8A8A8" stroke-dasharray="2 2"/>
<circle cx="399.5" cy="175.5" r="80" stroke="#A8A8A8" stroke-dasharray="2 2"/>
<circle cx="307.5" cy="210.5" r="161" stroke="#A8A8A8" stroke-dasharray="2 2"/>
<circle cx="414.5" cy="279.5" r="125" stroke="#A8A8A8" stroke-dasharray="2 2"/>
<circle cx="200.5" cy="278.5" r="125" stroke="#A8A8A8" stroke-dasharray="2 2"/>
<circle cx="215.5" cy="175.5" r="80" stroke="#A8A8A8" stroke-dasharray="2 2"/>
<line x1="25" y1="518.5" x2="589" y2="518.5" stroke="#A8A8A8" stroke-dasharray="2 2"/>
<line x1="75" y1="491.5" x2="540" y2="491.5" stroke="#A8A8A8" stroke-dasharray="2 2"/>
<line x1="75.5" y1="1" x2="75.5" y2="548" stroke="#A8A8A8" stroke-dasharray="2 2"/>
<line x1="111.5" y1="1" x2="111.5" y2="548" stroke="#A8A8A8" stroke-dasharray="2 2"/>
<line x1="200.5" y1="1" x2="200.5" y2="548" stroke="#A8A8A8" stroke-dasharray="2 2"/>
<line x1="414.5" y1="1" x2="414.5" y2="548" stroke="#A8A8A8" stroke-dasharray="2 2"/>
<line x1="506.5" y1="1" x2="506.5" y2="548" stroke="#A8A8A8" stroke-dasharray="2 2"/>
<line x1="540.5" y1="2" x2="540.5" y2="549" stroke="#A8A8A8" stroke-dasharray="2 2"/>
<line x1="75" y1="69.5" x2="540" y2="69.5" stroke="#A8A8A8" stroke-dasharray="2 2"/>
<line x1="4.75865e-08" y1="37.5" x2="614" y2="37.5" stroke="#A8A8A8" stroke-dasharray="2 2"/>
<line x1="4.75865e-08" y1="0.5" x2="614" y2="0.500049" stroke="#A8A8A8" stroke-dasharray="2 2"/>
<line x1="4.75865e-08" y1="548.5" x2="614" y2="548.5" stroke="#A8A8A8" stroke-dasharray="2 2"/>
</svg>
