<svg width="64" height="64" viewBox="0 0 64 64" fill="none" xmlns="http://www.w3.org/2000/svg">
<circle cx="32" cy="32" r="32" fill="#0C929C"/>
<path fill-rule="evenodd" clip-rule="evenodd" d="M51.803 17.3799C51.6049 17.7155 51.2827 17.9596 50.9061 18.0595C50.5296 18.1594 50.1288 18.107 49.7905 17.9137C49.7551 17.893 49.7196 17.8704 49.6861 17.8467C47.6533 16.7154 45.3631 16.1279 43.0369 16.141C40.7107 16.1541 38.4273 16.7674 36.4073 17.9216C36.3253 17.9675 36.2446 18.0148 36.1651 18.0634C37.7749 18.3502 39.2557 19.1304 40.4027 20.2961C41.2003 21.1025 41.8186 22.0685 42.2168 23.1307C42.615 24.1929 42.7843 25.3273 42.7135 26.4595C42.7202 26.515 42.7235 26.571 42.7233 26.6269C42.7233 27.0161 42.5688 27.3894 42.2936 27.6646C42.0185 27.9398 41.6454 28.0944 41.2563 28.0944C40.8672 28.0944 40.4941 27.9398 40.219 27.6646C39.9439 27.3894 39.7893 27.0161 39.7893 26.6269C39.7943 26.4921 39.8065 26.3576 39.8257 26.2241C39.8769 24.8561 39.4201 23.4162 38.3775 22.3732C37.6854 21.6815 36.8089 21.2037 35.8526 20.9971C34.8963 20.7905 33.9008 20.8637 32.985 21.2081V53.0631H39.0794C39.4688 53.0631 39.8422 53.2178 40.1175 53.4932C40.3928 53.7686 40.5474 54.1421 40.5474 54.5315C40.5474 54.921 40.3928 55.2945 40.1175 55.5699C39.8422 55.8453 39.4688 56 39.0794 56H24.0284C23.6391 56 23.2657 55.8453 22.9904 55.5699C22.7151 55.2945 22.5604 54.921 22.5604 54.5315C22.5604 54.1421 22.7151 53.7686 22.9904 53.4932C23.2657 53.2178 23.6391 53.0631 24.0284 53.0631H30.049V21.1983C29.1307 20.8494 28.1313 20.7731 27.1707 20.9785C26.2102 21.184 25.3293 21.6625 24.6339 22.3565C23.5913 23.3995 23.1335 24.8394 23.1847 26.2074C23.2044 26.3412 23.2166 26.476 23.2211 26.6112C23.2211 27.0006 23.0664 27.3741 22.7911 27.6495C22.5158 27.9249 22.1424 28.0796 21.7531 28.0796C21.3638 28.0796 20.9904 27.9249 20.7151 27.6495C20.4398 27.3741 20.2851 27.0006 20.2851 26.6112C20.2851 26.5549 20.288 26.4987 20.294 26.4428C20.2236 25.3103 20.3933 24.1758 20.792 23.1136C21.1908 22.0514 21.8095 21.0855 22.6077 20.2794C23.7567 19.1145 25.2393 18.3357 26.8502 18.0506C26.7704 18.0033 26.6897 17.9521 26.608 17.9088C24.5858 16.7542 22.3002 16.1408 19.9719 16.1279C17.6435 16.1149 15.3512 16.7029 13.3164 17.8349C13.2829 17.8576 13.2475 17.8802 13.212 17.9009C12.8733 18.0949 12.4717 18.1477 12.0943 18.0478C11.717 17.9479 11.3941 17.7034 11.1956 17.3671C11.0993 17.2006 11.0369 17.0167 11.0121 16.826C10.9873 16.6353 11.0006 16.4415 11.0511 16.256C11.1017 16.0704 11.1885 15.8967 11.3066 15.7449C11.4247 15.5931 11.5717 15.4663 11.7391 15.3717C11.7667 15.356 11.7942 15.3412 11.8228 15.3274C14.6443 13.7346 17.8726 13.0092 21.104 13.2418C24.3354 13.4744 27.4265 14.6548 29.9909 16.6353C29.6806 14.9784 28.8787 13.4534 27.6896 12.2589C26.5006 11.0643 24.9795 10.2557 23.3245 9.93813H23.3304C22.9402 9.93579 22.5669 9.77911 22.2918 9.50231C22.0168 9.22551 21.8624 8.85108 21.8624 8.46081C21.8604 8.26753 21.8971 8.07581 21.9705 7.89698C22.0438 7.71816 22.1523 7.55587 22.2894 7.4197C22.4266 7.28353 22.5896 7.17624 22.7689 7.1042C22.9482 7.03215 23.1401 6.99679 23.3333 7.00023C23.4542 7.00317 23.5744 7.01936 23.6917 7.04849C25.3054 7.32563 26.8399 7.94898 28.1899 8.87571C29.5398 9.80244 30.6732 11.0106 31.5121 12.4171C32.3506 11.0143 33.4823 9.8094 34.8297 8.88498C36.1772 7.96056 37.7085 7.33846 39.3187 7.06129C39.4359 7.03155 39.5562 7.01536 39.6771 7.01303C39.8697 7.00961 40.061 7.04479 40.2398 7.11649C40.4186 7.1882 40.5813 7.29498 40.7182 7.43055C40.8551 7.56612 40.9635 7.72772 41.0369 7.90585C41.1104 8.08397 41.1475 8.27501 41.146 8.4677C41.1461 8.85764 40.9919 9.23177 40.7173 9.50851C40.4427 9.78525 40.0698 9.94216 39.68 9.94502H39.685C38.0308 10.2629 36.5107 11.0719 35.3229 12.2665C34.135 13.461 33.3344 14.9859 33.0254 16.6422C35.587 14.6622 38.6758 13.4823 41.9047 13.2501C45.1337 13.018 48.3594 13.744 51.1778 15.3372C51.2053 15.351 51.2339 15.3658 51.2614 15.3816C51.429 15.4764 51.5761 15.6035 51.6941 15.7556C51.8122 15.9077 51.8989 16.0818 51.9493 16.2676C51.9997 16.4535 52.0127 16.6475 51.9876 16.8384C51.9624 17.0293 51.8997 17.2134 51.803 17.3799Z" fill="white"/>
</svg>
