<svg width="648" height="89" viewBox="0 0 648 89" fill="none" xmlns="http://www.w3.org/2000/svg">
<path d="M27.056 17.42H32.072L39.672 36.572L47.348 17.42H52.44L43.016 40.448L53.352 64.844L72.884 17.04H78.66L55.784 71H51.072L39.748 44.324L28.348 71H23.712L0.912 17.04H6.612L26.22 64.844L36.48 40.448L27.056 17.42ZM118.476 71H113.308V48.884C113.308 44.4253 112.523 41.0813 110.952 38.852C109.382 36.572 107.127 35.432 104.188 35.432C102.263 35.432 100.338 35.9387 98.4123 36.952C96.5376 37.9147 94.8656 39.2573 93.3963 40.98C91.9776 42.652 90.9643 44.5773 90.3563 46.756V71H85.1883V15.52H90.3563V40.372C91.9269 37.4333 94.1056 35.1027 96.8923 33.38C99.7296 31.6067 102.744 30.72 105.936 30.72C108.216 30.72 110.142 31.1253 111.712 31.936C113.334 32.7467 114.626 33.9373 115.588 35.508C116.602 37.028 117.336 38.8267 117.792 40.904C118.248 42.9307 118.476 45.236 118.476 47.82V71ZM126.305 59.6C126.305 57.1173 127.014 54.9893 128.433 53.216C129.852 51.392 131.802 49.9987 134.285 49.036C136.818 48.0227 139.732 47.516 143.025 47.516C144.95 47.516 146.952 47.668 149.029 47.972C151.106 48.276 152.956 48.732 154.577 49.34V45.996C154.577 42.652 153.589 39.992 151.613 38.016C149.637 36.04 146.901 35.052 143.405 35.052C141.277 35.052 139.174 35.4573 137.097 36.268C135.07 37.028 132.942 38.168 130.713 39.688L128.737 36.04C131.321 34.2667 133.854 32.9493 136.337 32.088C138.82 31.176 141.353 30.72 143.937 30.72C148.801 30.72 152.652 32.1133 155.489 34.9C158.326 37.6867 159.745 41.5373 159.745 46.452V64.768C159.745 65.4773 159.897 66.0093 160.201 66.364C160.505 66.668 160.986 66.8453 161.645 66.896V71C161.088 71.0507 160.606 71.1013 160.201 71.152C159.796 71.2027 159.492 71.2027 159.289 71.152C158.022 71.1013 157.06 70.696 156.401 69.936C155.742 69.176 155.388 68.3653 155.337 67.504L155.261 64.616C153.488 66.896 151.182 68.6693 148.345 69.936C145.508 71.152 142.62 71.76 139.681 71.76C137.148 71.76 134.842 71.228 132.765 70.164C130.738 69.0493 129.142 67.58 127.977 65.756C126.862 63.8813 126.305 61.8293 126.305 59.6ZM152.829 62.64C153.386 61.9307 153.817 61.2467 154.121 60.588C154.425 59.9293 154.577 59.3467 154.577 58.84V53.064C152.854 52.4053 151.056 51.8987 149.181 51.544C147.357 51.1893 145.508 51.012 143.633 51.012C139.934 51.012 136.945 51.7467 134.665 53.216C132.385 54.6853 131.245 56.6867 131.245 59.22C131.245 60.6893 131.625 62.0827 132.385 63.4C133.145 64.6667 134.26 65.7307 135.729 66.592C137.198 67.4027 138.921 67.808 140.897 67.808C143.38 67.808 145.685 67.3267 147.813 66.364C149.992 65.4013 151.664 64.16 152.829 62.64ZM189.614 69.1C189.209 69.252 188.575 69.5307 187.714 69.936C186.853 70.3413 185.814 70.696 184.598 71C183.382 71.304 182.065 71.456 180.646 71.456C179.177 71.456 177.783 71.1773 176.466 70.62C175.199 70.0627 174.186 69.2267 173.426 68.112C172.666 66.9467 172.286 65.528 172.286 63.856V35.508H166.814V31.404H172.286V18.028H177.454V31.404H186.574V35.508H177.454V62.412C177.555 63.8307 178.062 64.8947 178.974 65.604C179.937 66.3133 181.026 66.668 182.242 66.668C183.661 66.668 184.953 66.44 186.118 65.984C187.283 65.4773 187.993 65.1227 188.246 64.92L189.614 69.1ZM199.795 15.52L198.503 23.576H200.327V31.404H195.235V23.576L197.135 15.52H199.795ZM223.317 71.76C220.074 71.76 217.06 71.228 214.273 70.164C211.486 69.1 209.08 67.4787 207.053 65.3L209.181 61.652C211.41 63.7293 213.64 65.2493 215.869 66.212C218.149 67.124 220.556 67.58 223.089 67.58C226.18 67.58 228.688 66.972 230.613 65.756C232.538 64.4893 233.501 62.6907 233.501 60.36C233.501 58.7893 233.02 57.5987 232.057 56.788C231.145 55.9267 229.802 55.2427 228.029 54.736C226.306 54.1787 224.229 53.596 221.797 52.988C219.061 52.228 216.756 51.4427 214.881 50.632C213.057 49.7707 211.664 48.7067 210.701 47.44C209.789 46.1227 209.333 44.4253 209.333 42.348C209.333 39.764 209.966 37.636 211.233 35.964C212.55 34.2413 214.324 32.9493 216.553 32.088C218.833 31.176 221.366 30.72 224.153 30.72C227.193 30.72 229.878 31.2013 232.209 32.164C234.54 33.1267 236.44 34.4693 237.909 36.192L235.401 39.688C233.982 38.0667 232.285 36.876 230.309 36.116C228.384 35.3053 226.23 34.9 223.849 34.9C222.228 34.9 220.682 35.128 219.213 35.584C217.744 35.9893 216.528 36.6987 215.565 37.712C214.653 38.6747 214.197 40.0173 214.197 41.74C214.197 43.1587 214.552 44.2733 215.261 45.084C215.97 45.844 217.034 46.5027 218.453 47.06C219.872 47.5667 221.62 48.124 223.697 48.732C226.686 49.5427 229.296 50.3787 231.525 51.24C233.754 52.0507 235.477 53.1147 236.693 54.432C237.909 55.7493 238.517 57.5987 238.517 59.98C238.517 63.6787 237.124 66.5667 234.337 68.644C231.55 70.7213 227.877 71.76 223.317 71.76Z" fill="white"/>
<path fill-rule="evenodd" clip-rule="evenodd" d="M270.809 16.7236H257V72.7176H265.602V51.5545H270.809C274.657 51.5545 277.6 50.2318 280.317 47.5864C283.033 44.941 284.392 41.8547 284.392 38.1071V30.3914C284.392 26.6438 283.26 23.3371 280.77 20.9121C278.279 18.2667 274.884 16.7236 270.809 16.7236ZM275.789 38.548C275.789 39.8707 275.337 40.9729 274.431 42.0752C273.525 42.957 272.394 43.3979 271.035 43.3979H265.602V25.5415H270.809C272.394 25.5415 273.525 25.9824 274.431 26.8642C275.337 27.746 275.789 28.8483 275.789 30.3914V38.548ZM308.387 16.7236H300.012L290.051 72.7176H299.106L301.143 59.9315H310.198L312.236 72.7176H321.291C321.291 72.7176 314.726 32.8163 312.462 20.4712C311.783 16.7236 308.387 16.7236 308.387 16.7236ZM302.728 51.7749L305.897 29.7301L309.067 51.7749H302.728ZM336.232 20.4712C336.232 16.7236 331.931 16.7236 331.931 16.7236H327.403V72.7176H350.946V64.3405H336.232C336.232 64.3405 336.232 31.9346 336.232 20.4712ZM384.676 20.4712C382.639 30.3914 377.659 57.0657 377.659 57.0657C377.659 57.0657 372.226 30.6119 370.188 20.4712C369.509 16.7236 365.887 16.7236 365.887 16.7236H356.832V72.7176H365.434V37.6662L373.81 72.7176H380.828L388.298 37.6662V72.7176H397.353V16.7236H388.978C388.751 16.7236 385.356 16.7236 384.676 20.4712ZM429.952 50.8931C428.82 48.9091 427.235 46.9251 424.971 44.7206C424.292 44.0592 422.934 42.957 420.897 41.1934C419.086 39.8707 417.954 38.548 417.048 37.6662C414.784 35.0208 413.653 32.3755 413.653 29.9505C413.653 28.4074 413.879 26.8642 414.558 25.762C415.464 24.4393 416.595 23.778 418.18 23.778C419.765 23.778 420.897 24.2188 421.576 25.1006C422.708 26.4233 423.16 28.1869 423.613 30.3914L431.989 29.0687C431.763 26.6438 431.084 24.4393 429.952 22.4553C428.82 20.4712 427.462 19.1485 425.877 18.0463C423.613 16.7236 420.897 15.8418 417.954 15.8418C414.784 15.8418 412.068 16.7236 409.804 18.2667C406.182 20.9121 404.598 24.6597 404.598 29.9505C404.598 32.8163 405.277 35.4617 406.635 37.8867C407.767 40.0912 409.804 42.5161 412.747 45.1615C416.143 48.2478 418.633 50.6727 420.444 52.2158C422.708 54.4203 423.613 56.8453 423.613 59.0497C423.613 60.5929 423.387 61.9156 422.708 62.7974C421.576 64.561 419.991 65.4428 418.18 65.4428C416.822 65.4428 415.69 65.0019 414.558 63.8996C413.2 62.3565 412.294 60.152 411.842 56.8453L403.466 57.2862C403.692 60.3724 404.371 63.0178 405.503 65.2223C406.635 67.4268 407.993 69.4108 410.031 70.7335C412.294 72.2767 415.011 73.1585 418.406 73.1585C420.217 73.1585 421.802 72.938 423.16 72.4971C425.651 71.6153 427.688 70.2926 429.046 68.529C431.084 65.6632 432.215 62.3565 432.215 58.6088C432.215 57.0657 431.763 55.3021 430.857 53.3181C430.857 52.6567 430.404 51.7749 429.952 50.8931ZM462.097 16.7236H457.343V40.5321H447.156C447.156 40.5321 447.156 27.0847 447.156 20.4712C447.156 16.7236 442.855 16.7236 442.855 16.7236H438.554V72.7176H447.156V49.1296H457.57V72.7176H466.625C466.625 72.7176 466.625 33.0368 466.625 20.4712C466.398 16.7236 462.097 16.7236 462.097 16.7236ZM492.658 16.7236H472.058V72.7176H496.959V64.1201H480.886V48.9091H492.432V40.5321H480.886V25.3211H496.959C496.959 25.3211 496.959 22.8962 496.959 20.4712C496.959 16.5031 492.658 16.7236 492.658 16.7236ZM511.447 20.4712C511.447 16.7236 507.146 16.7236 507.146 16.7236H502.619V72.7176H526.388V64.3405H511.447C511.447 64.3405 511.447 31.7141 511.447 20.4712ZM541.103 64.3405C541.103 64.3405 541.103 31.7141 541.103 20.4712C541.103 16.7236 536.801 16.7236 536.801 16.7236H532.274V72.7176H556.043V64.3405H541.103Z" fill="#329FA7"/>
<path d="M604.787 52.684C602.507 39.992 620.367 36.648 620.367 27.984C620.367 22.74 616.643 18.94 608.891 18.94C603.647 18.94 598.859 21.22 594.451 25.78L590.423 22.056C595.439 16.736 601.367 13.164 609.575 13.164C620.291 13.164 627.207 18.712 627.207 27.452C627.207 38.928 609.043 41.284 611.019 52.684H604.787ZM608.055 71.38C605.319 71.38 603.191 69.48 603.191 66.44C603.191 63.4 605.395 61.348 608.055 61.348C610.715 61.348 612.919 63.4 612.919 66.44C612.919 69.48 610.715 71.38 608.055 71.38Z" fill="white"/>
</svg>
