<svg width="150" height="71" viewBox="0 0 150 71" fill="none" xmlns="http://www.w3.org/2000/svg">
<path d="M24.6835 52.0093C24.6835 53.473 25.8036 54.7061 27.2444 54.7061C28.6852 54.7061 29.8052 53.473 29.8052 52.0093V43.0036C29.8052 41.5399 28.6852 40.3068 27.2444 40.3068C25.8036 40.3068 24.6835 41.5399 24.6835 43.0036V52.0093ZM35.1496 52.0093C35.1496 53.473 36.2697 54.7061 37.7104 54.7061C39.1512 54.7061 40.2713 53.473 40.2713 52.0093V34.4718C40.2713 33.0082 39.1512 31.775 37.7104 31.775C36.2697 31.775 35.1496 33.0082 35.1496 34.4718V52.0093ZM45.6156 52.0093C45.6156 53.473 46.7357 54.7061 48.1765 54.7061C49.6172 54.7061 50.7373 53.473 50.7373 52.0093V26.888C50.7373 25.4244 49.6172 24.1912 48.1765 24.1912C46.7357 24.1912 45.6156 25.4244 45.6156 26.888V52.0093ZM56.0817 52.0093C56.0817 53.473 57.2017 54.7061 58.6425 54.7061C60.0833 54.7061 61.2034 53.473 61.2034 52.0093V18.5932C61.2034 17.1296 60.0833 15.8964 58.6425 15.8964C57.2017 15.8964 56.0817 17.1296 56.0817 18.5932V52.0093Z" fill="black" stroke="black" stroke-width="0.890727"/>
<path d="M85.7856 54.5095C81.4507 54.5095 77.8581 53.3516 75.0078 51.0357V46.493H80.8421V49.3433C82.2375 50.145 83.9448 50.5458 85.9638 50.5458C87.7155 50.5458 88.9922 49.9965 89.7939 48.8979C90.5955 47.7994 90.9964 46.1961 90.9964 44.088C90.9964 42.0393 90.5065 40.5845 89.5267 39.7234C88.5469 38.8327 87.0178 38.3874 84.9394 38.3874H75.9876V35.6261L76.8783 25.0264H95.8508V28.9011H82.2672L81.7773 34.3791H85.652C93.045 34.3791 96.7416 37.6154 96.7416 44.088C96.7416 47.4134 95.836 49.9817 94.0248 51.7928C92.2137 53.6039 89.4673 54.5095 85.7856 54.5095Z" fill="black"/>
<path d="M114.179 54.5095C111.061 54.5095 108.404 53.886 106.207 52.639C104.039 51.3623 102.391 49.6105 101.263 47.3837C100.135 45.1569 99.5707 42.5738 99.5707 39.6344C99.5707 36.6653 100.09 34.0376 101.129 31.7514C102.169 29.4355 103.757 27.6244 105.895 26.318C108.062 25.0116 110.749 24.3584 113.956 24.3584C116.123 24.3584 117.964 24.5662 119.478 24.9819C120.993 25.3976 122.477 26.0656 123.932 26.986V32.0632H118.098V28.9902C117.534 28.7527 116.97 28.5894 116.405 28.5003C115.841 28.3815 115.129 28.3221 114.268 28.3221C111.388 28.3221 109.176 29.3168 107.632 31.3061C106.118 33.2954 105.36 36.0715 105.36 39.6344C105.36 43.0785 106.147 45.7655 107.721 47.6954C109.324 49.5957 111.566 50.5458 114.446 50.5458C116.227 50.5458 117.786 50.3083 119.122 49.8332V42.2175H113.288V38.2983H125.001V51.5256C123.516 52.5648 121.883 53.3219 120.102 53.7969C118.35 54.272 116.376 54.5095 114.179 54.5095Z" fill="black"/>
<rect x="1.5" y="1.5" width="147" height="68" rx="9.5" stroke="black" stroke-width="3"/>
</svg>
