<svg width="219" height="70" viewBox="0 0 219 70" fill="none" xmlns="http://www.w3.org/2000/svg">
<g clip-path="url(#clip0_2486_3880)">
<path d="M218.503 60.4261C218.296 60.2021 218.089 59.9967 217.864 59.7727C213.581 55.5162 209.299 51.2597 204.998 47.0219C204.509 46.5365 204.322 46.0698 204.34 45.3977C204.359 38.1915 204.34 30.9853 204.34 23.7792C204.34 23.1631 204.415 23.2191 203.777 23.2191C196.358 23.2191 188.938 23.2191 181.519 23.2191C181.162 23.2191 180.918 23.1071 180.674 22.8644C176.204 18.4212 171.733 13.978 167.263 9.53485C167.15 9.42284 167.019 9.32949 166.906 9.10547C167.15 9.12414 167.319 9.12414 167.47 9.12414C173.574 9.12414 179.679 9.12414 185.783 9.12414C196.489 9.12414 207.214 9.12414 217.92 9.12414C218.108 9.12414 218.296 9.12414 218.484 9.14281V60.4074L218.503 60.4261Z" fill="#0E9462"/>
<path d="M80.8406 29.1744C81.5919 28.3156 82.3432 27.4382 83.1133 26.5794C84.4281 25.0672 85.7617 23.5551 87.0765 22.0242C87.377 21.6695 87.6963 21.3148 87.9781 20.9414C88.1659 20.6987 88.3913 20.4747 88.5979 20.232C89.1426 19.5973 89.7061 18.9812 90.2508 18.3278C90.5513 17.9731 90.8894 17.6557 91.1711 17.301C91.6219 16.7409 92.1103 16.2369 92.561 15.6768C92.824 15.3595 93.1433 15.0608 93.4063 14.7434C93.7444 14.3327 94.12 13.922 94.4769 13.5299C94.7023 13.2685 94.9089 12.9885 95.1531 12.7458C95.2845 12.6151 95.416 12.5405 95.6039 12.5405C98.6842 12.5405 101.746 12.5405 104.826 12.5405C105.052 12.5405 105.164 12.5965 105.127 12.8392C105.127 12.9325 105.127 13.0072 105.127 13.1005C105.127 27.6809 105.127 42.2799 105.127 56.8603C105.127 57.5323 105.164 57.4203 104.582 57.4203C101.182 57.4203 97.7827 57.4203 94.4018 57.4203C94.2891 57.4203 94.1764 57.4203 94.0449 57.4203C93.9134 57.4203 93.8571 57.3643 93.8571 57.2336C93.8571 57.1216 93.8571 57.0096 93.8571 56.8789C93.8571 47.8992 93.8571 38.9195 93.8571 29.9585C93.8571 29.8091 93.8571 29.6784 93.8571 29.5291C93.688 29.5478 93.6504 29.6784 93.5753 29.7531C90.0066 33.8789 86.4379 37.9861 82.8691 42.1119C82.531 42.5039 82.193 42.8773 81.8736 43.2694C81.761 43.4187 81.6295 43.4934 81.4229 43.4934C80.9909 43.4934 80.5401 43.4934 80.1081 43.4934C79.9202 43.4934 79.8263 43.4187 79.7136 43.2507C79.3004 42.7093 78.8308 42.2052 78.3801 41.6825C76.6333 39.6663 74.8865 37.65 73.1397 35.6338C71.4868 33.7296 69.8339 31.8254 68.181 29.9211C68.0871 29.8091 67.9932 29.6598 67.7678 29.6411V30.1078C67.7678 39.0129 67.7678 47.9179 67.7678 56.8229C67.7678 57.2336 67.5549 57.439 67.1292 57.439C63.7483 57.439 60.3674 57.439 56.9865 57.439C56.8738 57.439 56.7611 57.439 56.6296 57.439C56.4981 57.439 56.4418 57.383 56.4606 57.2523C56.4606 57.1403 56.4606 57.0283 56.4606 56.8976C56.4606 42.2986 56.4606 27.6995 56.4606 13.0819C56.4606 12.4845 56.4042 12.5405 57.0053 12.5405C59.9542 12.5405 62.8843 12.5405 65.8332 12.5405C66.1525 12.5405 66.3591 12.6151 66.5845 12.8578C71.1863 18.1598 75.8068 23.4431 80.4274 28.7263C80.5589 28.8757 80.6528 29.025 80.8406 29.137V29.1744Z" fill="white"/>
<path d="M201.392 46.3696C201.336 46.5563 201.223 46.631 201.148 46.7243C196.49 51.3542 191.813 55.984 187.155 60.6326C186.967 60.8193 186.798 60.8753 186.535 60.8753C179.98 60.8753 173.425 60.8753 166.869 60.8753C166.794 60.8753 166.719 60.8753 166.644 60.8753C166.494 60.8753 166.438 60.8193 166.438 60.6699C166.438 60.5766 166.438 60.4646 166.438 60.3712C166.438 53.9118 166.438 47.4711 166.438 41.0116C166.438 40.7129 166.513 40.5076 166.738 40.2836C171.396 35.6724 176.035 31.0612 180.694 26.45C180.788 26.3566 180.881 26.2819 180.994 26.1699C181.088 26.3566 181.05 26.5246 181.05 26.6926C181.05 33.0587 181.05 39.4248 181.05 45.7909C181.05 46.2016 181.263 46.4069 181.689 46.4069C188.094 46.4069 194.48 46.4069 200.885 46.4069H201.43L201.392 46.3696Z" fill="#0E9462"/>
<path d="M158.449 31.8817C158.318 30.9109 158.13 29.9588 157.886 29.0067C157.735 28.3906 157.566 27.7746 157.341 27.1585C157.134 26.6171 156.909 26.0757 156.684 25.5343C155.951 23.7981 154.974 22.2299 153.791 20.7924C151.499 18.0481 148.682 16.0132 145.32 14.7064C144.249 14.2957 143.16 13.9223 142.071 13.6236C141.056 13.3435 140.023 13.1382 138.99 12.9702C137.225 12.6901 135.44 12.5781 133.656 12.5781C127.138 12.5781 120.639 12.5781 114.122 12.5781C113.746 12.5781 113.746 12.5781 113.746 12.9515C113.746 13.0448 113.746 13.1195 113.746 13.2129V56.8793C113.746 56.9913 113.746 57.1033 113.746 57.234C113.746 57.402 113.821 57.458 113.99 57.458C114.103 57.458 114.216 57.458 114.347 57.458C119.907 57.458 125.467 57.458 131.026 57.458C132.867 57.458 134.708 57.458 136.548 57.2713C137.356 57.1966 138.182 57.1406 138.99 56.9913C139.629 56.8793 140.286 56.7299 140.925 56.5992C141.639 56.4499 142.352 56.3192 143.028 56.1138C144.324 55.7218 145.62 55.2737 146.86 54.695C150.222 53.1455 153.002 50.9239 155.106 47.8622C155.913 46.6674 156.571 45.3979 157.078 44.0724C157.303 43.5124 157.51 42.9336 157.679 42.3549C157.961 41.3841 158.167 40.4134 158.355 39.4239C158.524 38.4718 158.618 37.5197 158.656 36.5676C158.712 34.9994 158.693 33.4312 158.487 31.863L158.449 31.8817ZM147.01 35.9515C146.973 36.7356 146.841 37.5197 146.71 38.3038C146.541 39.2559 146.259 40.1707 145.94 41.0668C145.771 41.5335 145.583 42.0189 145.282 42.4483C145.113 42.7096 145.019 43.0083 144.85 43.2884C144.324 44.1285 143.705 44.8939 142.991 45.566C142.108 46.4061 141.113 47.0968 139.986 47.6195C139.272 47.9556 138.558 48.2543 137.788 48.4783C136.361 48.889 134.895 49.1504 133.412 49.169C130.707 49.2064 128.002 49.1877 125.297 49.2064C124.978 49.2064 124.978 49.2064 124.978 48.8517C124.978 46.8914 124.978 44.9312 124.978 42.971C124.978 40.32 124.978 37.6504 124.978 34.9994C124.978 30.4442 124.978 25.8703 124.978 21.3151C124.978 20.7551 124.922 20.8297 125.467 20.8297C127.683 20.8297 129.918 20.8297 132.134 20.8297C133.28 20.8297 134.407 20.9044 135.553 21.0724C136.774 21.2591 137.976 21.5765 139.14 22.0246C141.526 22.958 143.442 24.4888 144.832 26.6544C145.62 27.8866 146.09 29.2307 146.466 30.6122C146.954 32.3484 147.067 34.1406 146.992 35.9328L147.01 35.9515Z" fill="white"/>
<path d="M50.449 55.6089C50.1672 54.9928 49.9231 54.3768 49.6413 53.7607C49.2281 52.8459 48.8149 51.9498 48.4017 51.0351C48.0448 50.2696 47.7067 49.4855 47.3874 48.7201C47.162 48.1787 46.899 47.6373 46.6549 47.0959C46.4482 46.6479 46.2416 46.1812 46.0538 45.7144C45.9035 45.3224 45.7157 44.9303 45.5279 44.5383C45.3401 44.1276 45.171 43.7169 44.9832 43.3248C44.8141 42.9888 44.6827 42.6528 44.5136 42.3167C44.1755 41.626 43.9314 40.9165 43.5933 40.2445C43.3115 39.6471 43.0298 39.031 42.7668 38.4149C42.4475 37.7242 42.1658 37.0148 41.8465 36.3427C41.5647 35.7266 41.283 35.1292 41.02 34.5131C40.7195 33.8411 40.419 33.1503 40.1185 32.4782C39.8367 31.8622 39.5362 31.2274 39.2732 30.6114C38.86 29.6779 38.428 28.7445 38.0336 27.7924C37.7143 27.0269 37.3574 26.2802 37.0193 25.5148C35.9111 23.0505 34.8029 20.5862 33.7135 18.1032C32.9434 16.367 32.1546 14.6308 31.3845 12.8946C31.2718 12.6333 31.1403 12.5586 30.8585 12.5586C29.5062 12.5586 28.135 12.5586 26.7827 12.5586C23.9089 12.5586 21.0164 12.5586 18.1426 12.5586H18.1238C18.1238 12.7453 18.0299 12.8946 17.9548 13.044C17.7106 13.604 17.4289 14.1268 17.2222 14.7055C16.9969 15.3589 16.7339 15.9937 16.4897 16.6284C16.0577 17.7859 15.5506 18.9247 15.0434 20.0635C14.7429 20.7355 14.5551 21.445 14.2734 22.117C13.9165 22.9758 13.5596 23.8346 13.2027 24.6747C12.8459 25.5148 12.5078 26.3735 12.1885 27.2323C11.8128 28.1844 11.4184 29.1365 11.0052 30.0886C10.6483 30.9101 10.329 31.7688 10.0097 32.6089C9.67157 33.5237 9.27713 34.4198 8.90148 35.3159C8.50704 36.3053 8.13139 37.2948 7.69938 38.2656C7.39886 38.975 7.07955 39.7031 6.79781 40.4125C6.38459 41.4579 5.95258 42.5034 5.53936 43.5675C5.06979 44.7997 4.50631 45.9758 4.03674 47.2079C3.67987 48.1414 3.30421 49.0748 2.94734 50.0083C2.7783 50.4376 2.57168 50.867 2.40264 51.3151C2.23359 51.7258 2.06455 52.1178 1.91429 52.5286C1.70768 53.0326 1.51985 53.5553 1.31324 54.0594C0.956366 54.8995 0.655842 55.7583 0.261404 56.5797C0.148707 56.8224 -0.00155518 57.1024 0.0172276 57.4198C0.111141 57.4198 0.16749 57.4198 0.223838 57.4198C3.99918 57.4198 7.77451 57.4198 11.5499 57.4198C11.6062 57.4198 11.6625 57.4198 11.7189 57.4198C11.8504 57.4198 11.9067 57.3638 11.9631 57.2331C12.1509 56.7104 12.3575 56.2063 12.5453 55.6836C12.8459 54.8622 13.184 54.0594 13.4845 53.238C13.5972 52.9579 13.6723 52.6406 13.8226 52.3605C14.1419 51.7258 14.3109 51.0351 14.5927 50.3816C14.8368 49.8402 15.0059 49.2615 15.2125 48.7015C15.2501 48.5894 15.344 48.5521 15.4379 48.5521C15.5506 48.5521 15.6633 48.5521 15.7948 48.5521C22.1246 48.5521 28.4356 48.5521 34.7654 48.5521C35.2537 48.5521 35.5855 48.7823 35.7608 49.2428C35.7608 49.2428 35.7984 49.3175 35.8172 49.3735C36.005 49.9523 36.3055 50.4937 36.5309 51.0724C36.7939 51.6885 37.0756 52.3045 37.301 52.9393C37.4889 53.462 37.733 53.9661 37.9396 54.4888C38.259 55.3102 38.6534 56.113 38.9539 56.9531C39.123 57.4198 39.1793 57.4571 39.7052 57.4571C43.4242 57.4571 47.1432 57.4571 50.8622 57.4571C51.0125 57.4571 51.1627 57.4758 51.3505 57.4198C51.0125 56.8224 50.7871 56.2063 50.5053 55.6276L50.449 55.6089ZM18.2365 40.7112C20.4341 34.9425 22.6129 29.1925 24.7917 23.4612C24.8293 23.4612 24.8668 23.4612 24.8856 23.4612C27.2898 29.1925 29.694 34.9425 32.0982 40.7112H18.2365Z" fill="white"/>
</g>
<defs>
<clipPath id="clip0_2486_3880">
<rect width="218.5" height="51.75" fill="white" transform="translate(0 9.125)"/>
</clipPath>
</defs>
</svg>
