<svg width="28" height="28" viewBox="0 0 28 28" fill="none" xmlns="http://www.w3.org/2000/svg">
<path d="M21.0165 21.0204C20.669 21.3678 20.1007 21.3678 19.7532 21.0204L6.97934 8.24649C6.63189 7.89904 6.63189 7.3307 6.97934 6.98325C7.32679 6.63579 7.89513 6.63579 8.24258 6.98325L21.019 19.7596C21.3639 20.1046 21.3639 20.6729 21.0165 21.0204Z" fill="black"/>
<path d="M21.0165 6.97965C21.3639 7.32711 21.3639 7.89544 21.0165 8.2429L8.24258 21.0168C7.89513 21.3643 7.32679 21.3643 6.97934 21.0168C6.63189 20.6693 6.63189 20.101 6.97934 19.7536L19.7557 6.97717C20.1007 6.6322 20.669 6.6322 21.0165 6.97965Z" fill="black"/>
</svg>
