<svg width="50" height="50" viewBox="0 0 50 50" fill="none" xmlns="http://www.w3.org/2000/svg">
<path d="M37.5329 37.5348C36.9124 38.1553 35.8974 38.1553 35.277 37.5348L12.4654 14.7232C11.8449 14.1027 11.8449 13.0878 12.4654 12.4673C13.0858 11.8468 14.1008 11.8468 14.7213 12.4673L37.5373 35.2833C38.1533 35.8994 38.1533 36.9143 37.5329 37.5348Z" fill="white"/>
<path d="M37.5329 12.4659C38.1533 13.0864 38.1533 14.1013 37.5329 14.7218L14.7213 37.5334C14.1008 38.1539 13.0858 38.1539 12.4654 37.5334C11.8449 36.9129 11.8449 35.898 12.4654 35.2775L35.2814 12.4615C35.8974 11.8454 36.9124 11.8454 37.5329 12.4659Z" fill="white"/>
</svg>
