<svg width="158" height="158" viewBox="0 0 158 158" fill="none" xmlns="http://www.w3.org/2000/svg">
<path d="M117.726 70.1546C113.649 70.8941 109.794 72.2592 106.255 74.1457C96.9373 69.0217 86.4732 66.3429 75.8398 66.3595C67.3273 66.3492 58.9011 68.0637 51.0694 71.3994C43.2378 74.7352 36.1632 79.6231 30.2726 85.7682L23.665 78.9615C30.4328 71.9653 38.5407 66.4042 47.5049 62.6102C56.4691 58.8163 66.1058 56.8673 75.8398 56.8795C91.4375 56.8795 105.885 61.7933 117.726 70.1546ZM91.308 88.1003C89.6331 90.7768 88.2712 93.6682 87.2726 96.7239C83.5965 95.446 79.7317 94.7954 75.8398 94.7995C65.6329 94.7995 56.4595 99.195 50.0984 106.198L43.4877 99.3846C47.6226 94.9408 52.6301 91.398 58.1968 88.9778C63.7635 86.5577 69.7697 85.3123 75.8398 85.3195C81.2813 85.3195 86.4921 86.2991 91.308 88.1003ZM3.84863 58.5479C22.1861 39.9608 47.6684 28.4395 75.8398 28.4395C104.011 28.4395 129.497 39.9608 147.831 58.5479L141.226 65.3514C124.599 48.4201 101.445 37.9195 75.8398 37.9195C50.2343 37.9195 27.081 48.4201 10.453 65.3514L3.84863 58.5479ZM124.82 139.039C116.858 139.039 109.222 135.877 103.592 130.247C97.9626 124.617 94.7998 116.981 94.7998 109.019C94.7998 101.058 97.9626 93.4219 103.592 87.7921C109.222 82.1623 116.858 78.9995 124.82 78.9995C132.782 78.9995 140.417 82.1623 146.047 87.7921C151.677 93.4219 154.84 101.058 154.84 109.019C154.84 116.981 151.677 124.617 146.047 130.247C140.417 135.877 132.782 139.039 124.82 139.039ZM124.82 129.559C130.267 129.559 135.492 127.395 139.344 123.543C143.196 119.691 145.36 114.467 145.36 109.019C145.36 103.572 143.196 98.3475 139.344 94.4955C135.492 90.6435 130.267 88.4795 124.82 88.4795C119.372 88.4795 114.148 90.6435 110.296 94.4955C106.444 98.3475 104.28 103.572 104.28 109.019C104.28 114.467 106.444 119.691 110.296 123.543C114.148 127.395 119.372 129.559 124.82 129.559ZM120.08 116.919H129.56V126.399H120.08V116.919ZM120.08 91.6395H129.56V113.759H120.08V91.6395Z" fill="white"/>
<path d="M66.3604 123.24C66.3604 125.754 67.3591 128.165 69.137 129.943C70.9148 131.721 73.3261 132.72 75.8404 132.72C78.3546 132.72 80.7659 131.721 82.5437 129.943C84.3216 128.165 85.3204 125.754 85.3204 123.24C85.3204 120.726 84.3216 118.314 82.5437 116.536C80.7659 114.759 78.3546 113.76 75.8404 113.76C73.3261 113.76 70.9148 114.759 69.137 116.536C67.3591 118.314 66.3604 120.726 66.3604 123.24Z" fill="white"/>
</svg>
