<svg width="48" height="48" viewBox="0 0 48 48" fill="none" xmlns="http://www.w3.org/2000/svg">
<path d="M23.9998 3.83984C12.8659 3.83984 3.83984 12.866 3.83984 24C3.83984 28.4391 5.27467 32.5431 7.70576 35.8735L9.22836 34.2883C7.19352 31.3723 5.99983 27.8256 5.99983 24C5.99983 14.0589 14.0587 5.99983 23.9998 5.99983C33.9406 5.99983 41.9995 14.0589 41.9995 24C41.9995 33.941 33.9406 41.9997 23.9998 41.9997C20.2103 41.9997 16.6943 40.8285 13.7939 38.8285L12.4339 40.5137C15.7081 42.8111 19.6964 44.1598 23.9999 44.1598C35.1338 44.1598 44.1598 35.1339 44.1598 24.0001C44.1598 12.866 35.1338 3.83984 23.9998 3.83984ZM27.5996 13.92V34.0802H29.7596V13.92H27.5996ZM18.24 13.92V34.0802H20.4V13.92H18.24Z" fill="#A6A6A6"/>
</svg>
