<svg width="48" height="48" viewBox="0 0 48 48" fill="none" xmlns="http://www.w3.org/2000/svg">
<path d="M22.9997 14C24.2969 14 25.5522 14.2475 26.765 14.7365C28.0102 15.2406 29.1113 15.974 30.0697 16.9306C30.0745 16.9365 31.0511 17.89 32.9992 19.7999V16.0015C32.9992 15.7265 33.0974 15.4882 33.2922 15.2926C33.4883 15.0971 33.7237 14.9993 33.9999 14.9993C34.2758 14.9993 34.5107 15.0971 34.707 15.2926C34.9022 15.4882 35 15.7265 35 16.0015V22C35 22.2779 34.9022 22.5132 34.707 22.7088C34.5107 22.9044 34.2758 23.0024 33.9999 23.0024H27.9997C27.7239 23.0024 27.4885 22.9046 27.2924 22.709C27.0973 22.5134 26.9996 22.2781 26.9996 22C26.9996 21.725 27.0975 21.4897 27.2924 21.2941C27.4885 21.0985 27.7239 21.0007 27.9997 21.0007H31.3745C29.9267 19.5921 29.0205 18.709 28.6561 18.3422C27.8796 17.5691 26.9977 16.9825 26.0077 16.5851C25.055 16.194 24.0521 16.0015 23.0006 16.0015C21.9489 16.0015 20.946 16.1941 19.9932 16.5853C18.9984 16.9824 18.1156 17.5691 17.3446 18.3422C16.5743 19.1153 15.9888 19.9985 15.5872 20.9916C15.1957 21.945 15.0011 22.9474 15.0011 24.0015C15.0011 25.0526 15.1957 26.055 15.5872 27.0084C15.9888 28.0015 16.5743 28.8847 17.3446 29.6547C18.1156 30.4309 18.9984 31.0175 19.9934 31.4118C20.946 31.8059 21.9489 31.9985 23.0006 31.9985C24.0522 31.9985 25.055 31.8059 26.0077 31.4118C26.9977 31.0176 27.8796 30.4309 28.6561 29.6547C29.5205 28.79 30.1509 27.7937 30.5469 26.6631C30.6349 26.4034 30.8049 26.214 31.0544 26.0978C31.3044 25.9816 31.5593 25.9663 31.82 26.0519C32.081 26.1466 32.2713 26.3209 32.3898 26.5684C32.5102 26.819 32.5231 27.0757 32.4294 27.3354C32.1897 28.0168 31.8657 28.686 31.4567 29.3369C31.0475 29.9878 30.5852 30.5653 30.0697 31.0696C29.1113 32.029 28.0102 32.7624 26.765 33.2666C25.552 33.7556 24.2969 34 22.9997 34C21.7026 34 20.4473 33.7556 19.2345 33.2666C17.9893 32.7624 16.8878 32.029 15.9298 31.0696C14.9721 30.1131 14.2393 29.01 13.7342 27.7662C13.2449 26.5531 13 25.2971 13 24.0015C13 22.7029 13.2448 21.4469 13.7342 20.2338C14.2393 18.99 14.9709 17.89 15.9298 16.9304C16.8877 15.974 17.9893 15.2407 19.2345 14.7334C20.4474 14.2444 21.7026 14 22.9997 14Z" fill="#A6A6A6"/>
<path d="M4 24.1603C4 35.2943 13.0262 44.3203 24.1602 44.3203C28.1326 44.3203 31.8366 43.1713 34.9582 41.1876C35.5313 40.8233 35.5845 40.023 35.0948 39.5526V39.5526C34.7191 39.1917 34.1426 39.1496 33.7011 39.4262C30.9352 41.1586 27.6647 42.1603 24.1602 42.1603C14.2191 42.1603 6.15999 34.1014 6.15999 24.1603C6.15999 14.2195 14.2191 6.16065 24.1602 6.16065C34.1012 6.16065 42.1599 14.2195 42.1599 24.1603C42.1599 27.5897 41.2007 30.795 39.5362 33.5228C39.2407 34.007 39.3299 34.6415 39.7713 34.9978V34.9978C40.2597 35.3919 40.9821 35.2918 41.3125 34.7582C43.2192 31.6789 44.32 28.0482 44.32 24.1603C44.32 13.0263 35.2941 4.00031 24.1602 4.00031C13.0262 4.00035 4 13.0264 4 24.1603Z" fill="#A6A6A6"/>
</svg>
