<svg width="48" height="48" viewBox="0 0 48 48" fill="none" xmlns="http://www.w3.org/2000/svg">
<path d="M31.656 5.51801C29.2289 4.51267 26.6271 3.99679 24 4.00002C12.954 4.00002 4 12.954 4 24C4 35.046 12.954 44 24 44C35.046 44 44 35.046 44 24C44 21.34 43.48 18.75 42.482 16.344C42.3767 16.1047 42.1818 15.9161 41.9391 15.8187C41.6964 15.7213 41.4252 15.7229 41.1836 15.8231C40.9421 15.9233 40.7494 16.1141 40.6468 16.3546C40.5443 16.5952 40.54 16.8664 40.635 17.11C41.5395 19.2943 42.0034 21.6358 42 24C42 33.941 33.941 42 24 42C14.059 42 6 33.941 6 24C6 14.059 14.059 6.00001 24 6.00001C26.396 6.00001 28.725 6.46801 30.89 7.36501C31.1336 7.46 31.4048 7.45576 31.6454 7.35321C31.8859 7.25066 32.0767 7.05796 32.1769 6.8164C32.2771 6.57484 32.2787 6.30365 32.1813 6.06095C32.0839 5.81825 31.8954 5.62335 31.656 5.51801ZM21.408 14.34C20.283 13.554 19 14.207 19 15.553V32.453C19 33.793 20.291 34.447 21.408 33.665L33.237 25.379C34.257 24.664 34.251 23.338 33.237 22.627L21.407 14.341L21.408 14.34ZM21.005 31.53V16.475L31.752 24.003L21.005 31.531V31.53Z" fill="#8D8D8D"/>
</svg>
