<svg width="50" height="50" viewBox="0 0 50 50" fill="none" xmlns="http://www.w3.org/2000/svg">
<path d="M40.7918 15.458C40.7921 15.7329 40.7379 16.0051 40.6324 16.259C40.5269 16.5129 40.3722 16.7434 40.1773 16.9372L21.0835 36.0309C20.4481 36.6663 19.7918 37.4997 18.7502 36.458L8.87518 26.333C8.48254 25.9558 8.24468 25.4458 8.20808 24.9025C8.17148 24.3593 8.33877 23.8219 8.67726 23.3955C8.86499 23.1789 9.09539 23.0033 9.35407 22.8798C9.61274 22.7563 9.89411 22.6876 10.1806 22.6778C10.4671 22.668 10.7525 22.7174 11.019 22.823C11.2855 22.9286 11.5273 23.088 11.7293 23.2913L19.5939 31.1559C19.625 31.188 19.6622 31.2136 19.7034 31.231C19.7446 31.2485 19.7888 31.2575 19.8335 31.2575C19.8782 31.2575 19.9225 31.2485 19.9636 31.231C20.0048 31.2136 20.042 31.188 20.0731 31.1559L37.3023 13.9163C37.5344 13.6718 37.8281 13.4943 38.1526 13.4026C38.4771 13.311 38.8203 13.3085 39.146 13.3955C39.61 13.5085 40.0234 13.7723 40.3213 14.1456C40.6191 14.5189 40.7846 14.9805 40.7918 15.458Z" fill="white"/>
</svg>
