<svg width="167" height="140" viewBox="0 0 167 140" fill="none" xmlns="http://www.w3.org/2000/svg">
<path d="M62.7378 85.894C62.7378 94.2762 62.7378 102.658 62.7378 111.041C62.7378 114.566 60.9659 116.295 57.4127 116.295C44.7024 116.295 31.992 116.281 19.2769 116.304C16.1773 116.309 14.0227 114.282 14.0369 111.093C14.1172 94.092 14.1172 77.0913 14.0274 60.0906C14.0132 57.7139 16.0639 55.323 18.7336 55.3419C31.9164 55.4459 45.0993 55.4317 58.2821 55.3419C60.4415 55.3277 62.7898 57.3879 62.7662 59.7976C62.6764 68.4917 62.7331 77.1905 62.7331 85.8893L62.7378 85.894ZM15.9552 107.799C17.661 107.672 19.2297 107.459 20.8031 107.459C32.8472 107.431 44.8961 107.431 56.9402 107.459C58.1923 107.459 59.4492 107.714 60.9376 107.875C60.999 107.535 61.1833 106.991 61.188 106.448C61.2069 100.069 61.2022 93.695 61.2022 87.3162C61.2022 78.4993 61.2684 69.6777 61.1644 60.8608C61.1313 57.8084 60.1485 56.9862 57.6395 56.9673C44.8441 56.887 32.0487 56.9012 19.258 56.9626C17.0467 56.972 15.8607 57.747 15.8655 60.3646C15.9127 75.8344 15.8891 91.3089 15.8938 106.779C15.8938 107.194 15.9458 107.61 15.9552 107.799ZM38.4984 109.255C31.8881 109.255 25.2777 109.25 18.6674 109.259C16.9947 109.259 15.8513 110.431 15.908 112.005C15.96 113.432 17.179 114.476 18.8611 114.476C31.8833 114.48 44.9055 114.48 57.9277 114.476C59.7138 114.476 60.9234 113.37 60.9045 111.792C60.8856 110.176 59.8319 109.25 57.9703 109.25C51.4781 109.245 44.9859 109.25 38.4937 109.25L38.4984 109.255Z" fill="white"/>
<path d="M18.6957 82.7191C18.3697 71.7523 27.7631 63.0298 37.8369 62.8834C50.0889 62.7038 58.3672 72.1917 58.2963 82.6577C58.216 93.8607 49.881 102.125 39.0701 102.512C27.7111 102.919 18.4689 93.7851 18.6957 82.7191ZM44.8016 82.6955C45.1418 79.0288 41.3901 76.2222 38.4559 76.156C35.4129 76.0899 31.8881 79.4446 31.9211 82.5962C31.9542 85.6959 34.8648 89.0743 38.4133 89.079C41.9051 89.0837 45.1371 85.7856 44.7969 82.6907L44.8016 82.6955ZM22.7687 83.494C23.2507 85.4076 23.4586 87.1417 24.1201 88.6774C25.4006 91.6541 27.4796 94.0781 30.2437 95.8169C32.5401 97.2628 35.1247 97.9762 37.7991 98.255C38.2007 98.2975 38.952 97.7022 39.0559 97.2816C39.2402 96.5304 38.4795 96.5823 37.9361 96.4831C36.4666 96.2185 34.9452 96.0531 33.5513 95.557C27.971 93.5914 25.0982 88.5687 24.4934 83.5743C24.4178 82.9601 24.8808 81.9111 23.7657 81.9678C23.3972 81.9867 23.0806 82.9931 22.7782 83.4893L22.7687 83.494ZM53.8122 81.5898C53.85 81.5803 53.8926 81.5709 53.9304 81.5662C53.6799 80.3471 53.5618 79.0808 53.1554 77.9184C52.0781 74.8519 50.3488 72.2437 47.6602 70.2875C44.9764 68.3313 42.0516 67.2021 38.7205 67.2304C38.3708 67.2304 38.0259 67.6604 37.681 67.8872C38.0212 68.1707 38.3188 68.5959 38.711 68.7046C40.3459 69.1677 42.0658 69.3756 43.6439 69.9709C49.1014 72.0452 51.6198 76.3308 52.3191 81.9064C52.39 82.4734 52.0734 83.3428 53.0893 83.2908C54.0438 83.2436 53.7414 82.4025 53.8122 81.826C53.8217 81.7504 53.8122 81.6701 53.8122 81.5898Z" fill="white"/>
<path d="M38.4114 79.8789C40.1691 79.8789 41.5016 81.0743 41.4213 82.6809C41.3362 84.3299 40.1739 85.5915 38.3311 85.6104C36.8805 85.6293 35.3496 84.0322 35.3874 82.5864C35.4252 81.0743 36.7624 79.8789 38.4162 79.8789H38.4114Z" fill="white"/>
<rect x="19.2266" y="110.625" width="26.9327" height="2.12627" rx="1.06313" fill="white"/>
<rect x="50.8828" y="110.625" width="5.19754" height="1.89002" rx="0.945008" fill="white"/>
<path d="M71.7075 23.838C77.9043 23.799 84.1012 23.76 90.2941 23.7249C90.3919 23.7249 90.4898 23.7249 90.5877 23.7327C91.2962 23.7717 91.4215 23.8966 91.488 24.599C91.5272 25.0165 91.5311 25.438 91.6172 25.8477C91.7268 26.3746 92.0596 26.5697 92.6624 26.558C93.2144 26.5424 93.6215 26.2731 93.7037 25.7892C93.7663 25.4263 93.7585 25.0478 93.7663 24.677C93.7781 23.9941 94.009 23.7249 94.7019 23.717C96.3891 23.6975 98.0802 23.6858 99.7674 23.7053C100.84 23.717 101.071 23.92 101.094 24.9892C101.138 26.9638 101.114 28.9384 101.114 30.913C101.114 31.073 101.106 31.233 101.098 31.5023C101.478 31.4788 101.834 31.4359 102.187 31.4359C103.208 31.4281 103.725 31.9198 103.725 32.9383C103.729 36.6612 103.713 40.384 103.713 44.1069C103.713 67.1542 103.713 90.2054 103.713 113.253C103.713 113.787 103.733 114.322 103.698 114.853C103.639 115.754 103.314 116.129 102.41 116.168C100.727 116.242 99.0354 116.277 97.3482 116.273C94.929 116.273 92.5097 116.215 90.0905 116.195C89.7421 116.195 89.609 116.125 89.6482 115.727C89.8165 114.006 88.7595 112.601 87.0489 112.215C85.3578 111.836 83.5022 112.742 82.9933 114.283C82.8015 114.864 82.8211 115.52 82.7232 116.304C82.1204 116.273 81.4588 116.215 80.8011 116.211C77.6029 116.199 74.4047 116.203 71.2064 116.199C70.8659 116.199 70.5253 116.187 70.1847 116.16C69.1552 116.074 68.7755 115.68 68.7716 114.642C68.7637 111.891 68.7716 109.14 68.7716 106.388C68.7716 82.4163 68.7716 58.448 68.7716 34.4758C68.7716 33.91 68.7559 33.3442 68.7755 32.7783C68.8068 31.912 69.2844 31.4593 70.1612 31.4398C70.5292 31.432 70.9011 31.4476 71.2104 31.4515C71.2847 28.9813 71.3591 26.5424 71.4335 24.1073L71.7075 23.8341V23.838ZM96.8276 105.663C96.8784 105.315 96.9567 105.019 96.9567 104.722C96.9489 102.619 96.9137 100.515 96.9137 98.4121C96.9059 92.0863 96.9137 85.7567 96.9137 79.431C96.9137 70.9356 96.9059 62.4401 96.9137 53.9447C96.9176 50.257 96.9607 46.5654 96.9802 42.8776C96.9841 41.9254 96.9293 41.863 96.072 41.863C89.4329 41.8591 82.7937 41.8552 76.1545 41.8591C75.1954 41.8591 75.1054 41.9645 75.1015 42.9244C75.0936 59.2207 75.0819 75.5169 75.078 91.8132C75.078 96.2307 75.0858 100.648 75.0976 105.066C75.0976 105.635 75.2424 105.772 75.81 105.811C75.9549 105.823 76.1036 105.811 76.2485 105.811C78.425 105.795 80.5976 105.772 82.7741 105.768C87.2054 105.76 91.6368 105.768 96.0681 105.76C96.303 105.76 96.534 105.698 96.8276 105.659V105.663ZM79.0905 25.3716C78.3154 25.356 77.6421 25.3404 76.8513 25.3248C76.8865 26.6828 76.9257 28.0292 76.9648 29.5667C76.5068 29.512 76.1467 29.4262 75.7983 29.4418C75.3755 29.4613 75.2855 29.3091 75.3011 28.9111C75.3442 27.717 75.3364 26.5228 75.352 25.2273C74.4712 25.3092 73.6883 25.3834 72.9093 25.4536C72.921 27.315 72.9367 29.3638 72.9524 31.4164C81.772 31.4047 90.6464 31.3969 99.5208 31.3852C99.5286 31.3618 99.5482 31.3305 99.5482 31.3032C99.5482 29.6213 99.5482 27.9355 99.5521 26.2536C99.5521 25.2312 99.5521 25.2663 98.55 25.2234C98.0411 25.1999 97.955 25.3834 97.9667 25.8243C97.9941 27.0145 97.9824 28.2087 97.9863 29.3638C97.4265 29.3716 96.9333 29.3794 96.2913 29.3911C96.3187 28.2087 96.3382 27.0301 96.3774 25.8516C96.3891 25.5004 96.3461 25.2663 95.9155 25.2273C95.4927 25.1882 95.34 25.3326 95.293 25.7385C95.2187 26.3941 94.9916 27.0184 94.4827 27.4594C92.9599 28.7862 90.7169 28.1501 90.0749 26.2341C89.9613 25.8985 89.9496 25.399 89.7225 25.2663C89.4289 25.0985 88.967 25.2312 88.5756 25.2351C88.4973 25.2351 88.4151 25.2429 88.2702 25.2468C88.2859 26.6399 88.3015 28.0213 88.3133 29.3169C87.7261 29.3364 87.2289 29.3481 86.7709 29.3638C86.7474 28.0174 86.72 26.6633 86.6926 25.1258C86.0937 25.1648 85.4948 25.2351 84.8997 25.2351C84.52 25.2351 84.383 25.3443 84.3948 25.7307C84.4182 26.7024 84.3948 27.674 84.4182 28.6418C84.4222 28.8916 84.52 29.1413 84.5631 29.3364C83.8467 29.356 83.3496 29.3677 82.7741 29.3794C82.7859 28.0057 82.8015 26.6399 82.8133 25.1492C82.1908 25.1765 81.6076 25.2234 81.0243 25.2156C80.6837 25.2117 80.6132 25.3443 80.6172 25.6448C80.6328 26.437 80.625 27.2292 80.6289 28.0252C80.6289 28.4857 80.6446 28.9501 80.6563 29.4028C80.2218 29.4067 79.8773 29.395 79.5406 29.4223C79.1648 29.4535 79.0357 29.3325 79.0474 28.9345C79.0865 27.7404 79.0748 26.5424 79.0826 25.3638L79.0905 25.3716ZM99.7244 39.3187C100.903 38.1441 100.93 36.5948 99.7909 35.4592C98.6361 34.308 96.9685 34.3237 95.8058 35.4944C94.698 36.6065 94.7254 38.2182 95.8137 39.3616C96.8589 40.4582 98.7888 40.5479 99.7244 39.3187Z" fill="white"/>
<path d="M81.7348 63.5996C84.6199 63.7752 87.4815 63.9508 90.3979 64.1303C90.4096 64.2396 90.437 64.3606 90.437 64.4776C90.4253 65.3986 90.3861 66.3235 90.4096 67.2444C90.4174 67.6034 90.3039 67.7088 89.9751 67.7829C88.8203 68.0405 87.6733 68.3332 86.5263 68.6219C86.3267 68.6727 86.1427 68.7702 85.8334 68.8951C86.0448 68.9927 86.1427 69.059 86.2484 69.0863C87.5089 69.3907 88.7694 69.6951 90.0338 69.9761C90.3274 70.0424 90.4214 70.1634 90.4135 70.4639C90.3822 71.498 90.3783 72.5282 90.3587 73.6521C87.5363 73.8238 84.663 73.9955 81.7975 74.1672C81.821 73.2228 81.8405 72.298 81.864 71.3419C83.1441 71.3029 84.5299 71.2599 85.9196 71.217L85.9587 71.0765C85.7395 70.979 85.532 70.8541 85.305 70.7956C84.2206 70.5146 83.1363 70.2453 82.0441 69.9956C81.7779 69.937 81.6957 69.82 81.7035 69.5702C81.7192 69.1332 81.7427 68.6961 81.7153 68.259C81.6957 67.9312 81.8249 67.8142 82.1341 67.74C83.3633 67.4473 84.5847 67.1273 85.8099 66.8152C85.8491 66.8034 85.8882 66.7761 85.9391 66.6395C85.6534 66.6005 85.3676 66.5381 85.0818 66.5264C84.0601 66.4835 83.0384 66.4639 82.0167 66.4132C81.8993 66.4093 81.6957 66.2649 81.6957 66.1869C81.6918 65.3323 81.7192 64.4776 81.7348 63.5996Z" fill="white"/>
<path d="M86.8548 50.7764C87.9665 50.8232 89.1566 50.8739 90.3466 50.9246C90.3349 51.7285 90.3192 52.6066 90.3075 53.4768C87.5046 53.4768 84.6391 53.4768 81.6953 53.4768C81.7071 52.7041 81.6992 51.9315 81.7384 51.1627C81.7462 51.0222 81.9028 50.8505 82.032 50.7608C83.1046 50.0154 84.185 49.2818 85.238 48.5676C84.1067 48.5364 82.9323 48.5052 81.7031 48.4701C81.7384 47.6155 81.7736 46.7452 81.8088 45.9023C84.6 45.8945 87.4772 45.8828 90.3427 45.875C90.3583 46.6594 90.3857 47.4476 90.3701 48.232C90.3701 48.3608 90.1783 48.5169 90.0413 48.6106C88.9647 49.352 87.8843 50.0817 86.8509 50.7764H86.8548Z" fill="white"/>
<path d="M84.719 58.7729C84.9735 58.847 85.224 58.9368 85.4863 58.9953C86.9739 59.3192 88.4614 59.647 89.9529 59.9514C90.3091 60.0255 90.4265 60.1582 90.3991 60.5289C90.3404 61.3016 90.3482 62.0743 90.3248 62.8626C88.6454 62.4489 86.9151 62.0236 85.1888 61.5982C84.1514 61.3445 83.114 61.0792 82.0728 60.8411C81.7987 60.7787 81.7048 60.6655 81.7087 60.3846C81.7204 59.2685 81.697 58.1524 81.7126 57.0363C81.7126 56.9076 81.8535 56.689 81.9671 56.6617C84.719 55.9749 87.4749 55.3076 90.2269 54.6403C90.27 54.6286 90.3169 54.6481 90.4579 54.6637C90.4461 55.5144 90.4422 56.369 90.3991 57.2197C90.3952 57.3251 90.1838 57.4773 90.0468 57.5046C88.4301 57.848 86.8094 58.168 85.1888 58.4997C85.0283 58.5309 84.8756 58.5934 84.7151 58.6402C84.7151 58.6831 84.7151 58.7261 84.7151 58.769L84.719 58.7729Z" fill="white"/>
<path d="M83.7241 81.6903C83.2348 81.7761 82.7142 81.8854 82.1857 81.9517C82.0722 81.9634 81.849 81.8229 81.8295 81.7215C81.5515 80.3713 81.348 79.021 81.6494 77.6396C81.9156 76.426 82.6515 75.7118 83.8416 75.4582C84.9024 75.2319 85.9672 75.1928 87.0046 75.5909C87.8462 75.9109 88.3982 76.5001 88.6448 77.3743C88.9854 78.5918 88.9227 79.8093 88.5939 81.0112C88.3668 81.8503 87.7562 82.2795 86.8754 82.3146C86.6327 82.3263 86.39 82.3263 86.1473 82.3146C85.2743 82.26 84.648 81.8151 84.4327 80.9839C84.2487 80.2737 84.2291 79.5205 84.1312 78.7869C84.0999 78.5489 84.2839 78.1859 83.8024 78.1898C83.3248 78.1976 83.4188 78.5606 83.4423 78.8259C83.5206 79.7703 83.6263 80.7108 83.728 81.6942L83.7241 81.6903ZM85.5796 78.3498C85.6227 78.7518 85.6736 79.2357 85.7323 79.7235C85.7323 79.7469 85.8106 79.7742 85.8576 79.782C86.112 79.8132 86.3704 79.8601 86.6248 79.8522C86.7149 79.8522 86.8754 79.7157 86.8793 79.6376C86.891 79.2708 86.9067 78.8923 86.8323 78.5372C86.7658 78.2094 85.8732 78.022 85.5796 78.3498Z" fill="white"/>
<path d="M81.5977 96.6562C83.3749 96.6406 85.0895 96.6211 86.8041 96.6211C86.902 96.6211 87.082 96.8006 87.082 96.8943C87.0664 97.9128 87.0546 98.9313 86.9685 99.942C86.902 100.75 86.4244 101.331 85.6062 101.425C84.7959 101.519 83.9621 101.519 83.1479 101.433C82.2945 101.343 81.7738 100.773 81.7112 99.9108C81.6329 98.8181 81.629 97.7216 81.5938 96.6562H81.5977ZM82.8934 98.225C82.9091 98.6659 82.8856 99.021 82.956 99.3606C82.9874 99.5205 83.1987 99.7547 83.3358 99.7664C84.0091 99.8093 84.6902 99.8054 85.3635 99.7625C85.4966 99.7547 85.708 99.5049 85.7197 99.3527C85.7472 99.0015 85.6767 98.6464 85.6336 98.2952C85.6336 98.2757 85.5162 98.2562 85.4536 98.2562C84.6315 98.2445 83.8133 98.2367 82.8895 98.2289L82.8934 98.225Z" fill="white"/>
<path d="M87.0516 90.0109C86.5975 89.9407 86.2413 89.9095 85.9047 89.8197C85.8146 89.7963 85.7246 89.5895 85.7246 89.4685C85.7324 88.9846 85.799 88.5007 85.7911 88.0168C85.7911 87.8686 85.615 87.7203 85.521 87.572C85.4075 87.7046 85.2353 87.8217 85.1922 87.9739C85.0943 88.329 85.0865 88.7115 84.9926 89.0666C84.7499 89.9836 84.241 90.327 83.231 90.2958C82.2523 90.2685 81.7082 89.9095 81.6221 88.9729C81.532 88.0012 81.6338 87.0139 81.673 86.0344C81.673 85.9564 81.8296 85.8822 81.9196 85.812C81.9392 85.7964 81.9822 85.8198 82.0135 85.8198C82.9765 85.8471 82.9648 85.8471 82.8943 86.7954C82.863 87.2442 82.8552 87.7007 82.8943 88.1495C82.9061 88.2939 83.094 88.4227 83.2036 88.5593C83.3014 88.4305 83.458 88.3134 83.4893 88.169C83.5716 87.81 83.5716 87.4315 83.6459 87.0686C83.8182 86.2491 84.1705 85.9486 84.9965 85.8627C85.0787 85.8549 85.157 85.8432 85.2392 85.8471C86.7815 85.9291 87.0751 86.253 87.1652 87.6305C87.2161 88.3954 87.0986 89.168 87.0516 90.0109Z" fill="white"/>
<path d="M81.6948 91.127C81.8514 91.1348 81.9649 91.1348 82.0745 91.1504C82.3916 91.2011 82.7087 91.2557 82.9984 91.3065C82.9514 91.9933 82.9044 92.645 82.8575 93.2967C82.8262 93.7298 82.9906 93.9484 83.5034 93.804C83.5347 93.4215 83.5543 93.0196 83.5973 92.6255C83.6991 91.6889 84.2198 91.2284 85.2219 91.1738C86.3532 91.1153 86.9991 91.486 87.1048 92.4577C87.2027 93.3591 87.1087 94.284 87.1048 95.2635C86.5763 95.2205 86.1692 95.1893 85.7269 95.1542C85.7582 94.5454 85.7895 93.9835 85.8208 93.4215C85.8365 93.164 85.8287 92.9103 85.4803 92.8986C85.1319 92.8869 85.1827 93.1757 85.1514 93.3825C85.1045 93.7025 85.0849 94.0264 85.0222 94.3425C84.8852 95.0488 84.4233 95.5171 83.7109 95.5717C83.2528 95.603 82.7753 95.5288 82.3251 95.4195C81.914 95.3181 81.734 94.9552 81.64 94.5532C81.3817 93.4254 81.5148 92.3055 81.6987 91.127H81.6948Z" fill="white"/>
<path d="M96.9778 38.1809C96.602 37.7868 96.649 36.979 97.0679 36.5966C97.4437 36.2532 98.2423 36.2649 98.5868 36.6161C98.9782 37.018 98.9939 37.8492 98.6142 38.216C98.207 38.6141 97.3732 38.5946 96.9778 38.1809Z" fill="white"/>
<path d="M118.958 74.939C118.958 61.7841 118.958 48.6292 118.958 35.4699C118.958 33.7012 119.042 33.6128 120.859 33.6216C126.311 33.6393 131.768 33.6923 137.22 33.6614C138.206 33.657 138.63 34.0992 138.803 34.9216C139.041 36.058 139.957 36.5621 140.854 36.5621C141.779 36.5621 142.65 35.9165 142.831 34.8464C142.99 33.9179 143.521 33.657 144.37 33.6747C145.661 33.7012 146.952 33.7056 148.239 33.6747C150.887 33.6172 152.82 35.5937 152.961 38.3264C152.988 38.8791 152.961 39.4319 152.961 39.9846C152.961 63.6413 152.957 87.3024 152.97 110.959C152.97 114.355 150.994 116.27 147.682 116.292C146.651 116.296 145.617 116.305 144.586 116.292C143.689 116.279 142.968 116.097 142.796 114.97C142.65 113.988 141.655 113.21 140.775 113.316C139.789 113.435 138.993 113.86 138.798 115.001C138.652 115.876 138.104 116.305 137.18 116.305C131.613 116.292 126.05 116.305 120.483 116.292C119.223 116.292 118.953 115.991 118.953 114.735C118.953 101.47 118.953 88.2045 118.953 74.9346L118.958 74.939ZM120.695 35.3903V36.9733C120.695 62.2882 120.695 87.5987 120.695 112.914C120.695 113.17 120.713 113.431 120.695 113.687C120.647 114.355 120.947 114.585 121.606 114.581C126.47 114.563 131.334 114.589 136.198 114.536C136.623 114.532 137.282 114.121 137.423 113.745C138.4 111.18 142.367 110.756 143.737 113.13C144.524 114.492 145.497 114.735 146.833 114.581C147.16 114.541 147.496 114.576 147.828 114.576C150.025 114.576 151.219 113.373 151.219 111.163C151.219 88.3548 151.219 65.5471 151.219 42.7394C151.219 41.2271 151.153 39.7149 151.237 38.207C151.303 36.9733 149.893 35.3019 148.495 35.3947C147.54 35.4566 146.576 35.4434 145.621 35.3815C144.861 35.3328 144.454 35.607 144.109 36.3056C143.454 37.6233 142.34 38.1761 140.819 38.1805C139.355 38.1805 138.184 37.7162 137.582 36.4383C137.171 35.5628 136.654 35.3771 135.809 35.3815C132.639 35.408 129.473 35.3947 126.302 35.3947C124.498 35.3947 122.698 35.3947 120.691 35.3947L120.695 35.3903Z" fill="white"/>
<path d="M138.726 43.7567C141.158 43.7567 143.586 43.7877 146.018 43.739C146.929 43.7213 147.225 44.0176 147.203 44.9462C147.146 47.8159 147.15 50.6901 147.203 53.5599C147.221 54.5415 146.955 54.9306 145.903 54.9218C141.044 54.8776 136.184 54.882 131.324 54.9174C130.387 54.9262 130.007 54.6565 130.02 53.666C130.069 50.7211 130.064 47.7761 130.02 44.8312C130.007 43.9911 130.316 43.739 131.108 43.7479C133.646 43.7744 136.188 43.7567 138.731 43.7567H138.726Z" fill="white"/>
<path d="M138.705 61.006C141.137 61.006 143.564 61.0325 145.996 60.9927C146.881 60.9794 147.225 61.227 147.203 62.1777C147.141 65.0121 147.159 67.8465 147.195 70.6809C147.208 71.6758 146.92 72.1357 145.815 72.1268C140.991 72.0782 136.167 72.087 131.342 72.1224C130.383 72.1268 130.02 71.7554 130.025 70.8312C130.042 67.8863 130.051 64.9414 130.016 61.9964C130.007 61.1828 130.37 60.9927 131.077 61.0015C133.62 61.0192 136.158 61.0104 138.7 61.006H138.705Z" fill="white"/>
<path d="M138.615 95.1021C141.122 95.1021 143.625 95.1242 146.132 95.0888C146.937 95.0756 147.22 95.3276 147.206 96.1633C147.162 99.0729 147.167 101.982 147.202 104.892C147.211 105.821 146.901 106.21 145.924 106.201C141.06 106.17 136.2 106.17 131.336 106.201C130.386 106.205 130.019 105.852 130.032 104.905C130.063 101.996 130.067 99.0862 130.028 96.1766C130.019 95.3586 130.288 95.0712 131.102 95.0844C133.605 95.1198 136.112 95.0977 138.619 95.0977L138.615 95.1021Z" fill="white"/>
<path d="M138.533 88.9915C136.101 88.9915 133.669 88.965 131.237 89.0048C130.371 89.018 129.991 88.819 130.013 87.8462C130.075 84.9721 130.061 82.0979 130.021 79.2281C130.008 78.22 130.411 77.8839 131.397 77.8927C136.225 77.9281 141.049 77.9237 145.878 77.8927C146.82 77.8883 147.205 78.2067 147.191 79.1662C147.16 82.1112 147.156 85.0605 147.196 88.0099C147.209 88.819 146.886 89.0136 146.157 89.0048C143.614 88.9782 141.072 88.9959 138.529 88.9959L138.533 88.9915Z" fill="white"/>
<rect x="109.727" y="37.6016" width="4.42181" height="1.76873" rx="0.884363" fill="white"/>
<rect x="109.727" y="42.4648" width="4.42181" height="1.76873" rx="0.884363" fill="white"/>
<rect x="109.727" y="47.3301" width="4.42181" height="1.76873" rx="0.884363" fill="white"/>
<rect x="109.727" y="52.1934" width="4.42181" height="1.76873" rx="0.884363" fill="white"/>
<rect x="109.727" y="57.0566" width="4.42181" height="1.76873" rx="0.884363" fill="white"/>
<rect x="109.727" y="61.9219" width="4.42181" height="1.76873" rx="0.884363" fill="white"/>
<rect x="109.727" y="66.7852" width="4.42181" height="1.76873" rx="0.884363" fill="white"/>
<rect x="109.727" y="71.6484" width="4.42181" height="1.76873" rx="0.884363" fill="white"/>
<rect x="109.727" y="76.5137" width="4.42181" height="1.76873" rx="0.884363" fill="white"/>
<rect x="109.727" y="81.377" width="4.42181" height="1.76873" rx="0.884363" fill="white"/>
<rect x="109.727" y="86.2422" width="4.42181" height="1.76873" rx="0.884363" fill="white"/>
<rect x="109.727" y="91.1055" width="4.42181" height="1.76873" rx="0.884363" fill="white"/>
<rect x="109.727" y="95.9688" width="4.42181" height="1.76873" rx="0.884363" fill="white"/>
<rect x="109.727" y="100.832" width="4.42181" height="1.76873" rx="0.884363" fill="white"/>
<rect x="109.727" y="105.697" width="4.42181" height="1.76873" rx="0.884363" fill="white"/>
<rect x="109.727" y="110.562" width="4.42181" height="1.76873" rx="0.884363" fill="white"/>
<rect x="1" y="1" width="165" height="138" rx="6" stroke="white" stroke-opacity="0.2" stroke-width="2"/>
</svg>
