<svg width="180" height="180" viewBox="0 0 180 180" fill="none" xmlns="http://www.w3.org/2000/svg">
<rect x="1" y="1" width="178" height="178" rx="12" stroke="white" stroke-width="2"/>
<path d="M116.211 30.916C114.932 30.916 113.691 31.0527 112.49 31.3164C111.66 19.7246 102.002 10.5742 90.1953 10.5742C78.3496 10.5742 68.6621 19.793 67.9004 31.4434C66.5332 31.0918 65.0977 30.916 63.623 30.916C54.043 30.916 46.2793 38.6797 46.2793 48.2598C46.2793 57.8398 54.0527 65.6133 63.6328 65.6133H63.7695V60.7305H63.6328C60.3027 60.7305 57.168 59.4316 54.8145 57.0781C52.4609 54.7246 51.1621 51.5898 51.1621 48.2598C51.1621 44.9297 52.4609 41.7949 54.8145 39.4414C57.168 37.0879 60.3027 35.7891 63.6328 35.7891C64.6777 35.7891 65.7129 35.916 66.709 36.1699L72.4023 37.6152L72.7832 31.7559C73.0664 27.3418 75.0098 23.2305 78.2422 20.1934C81.4941 17.1367 85.7422 15.457 90.2051 15.457C94.6484 15.457 98.8867 17.127 102.129 20.1641C105.361 23.1816 107.305 27.2734 107.617 31.6582L108.018 37.293L113.535 36.082C114.414 35.8867 115.312 35.7891 116.211 35.7891C119.541 35.7891 122.676 37.0879 125.029 39.4414C127.383 41.7949 128.682 44.9297 128.682 48.2598C128.682 51.5898 127.383 54.7246 125.029 57.0781C122.676 59.4316 119.541 60.7305 116.211 60.7305C116.055 60.7305 115.898 60.7305 115.742 60.7207V65.6035C115.898 65.6035 116.055 65.6133 116.211 65.6133C125.791 65.6133 133.555 57.8496 133.555 48.2695C133.555 38.6895 125.791 30.916 116.211 30.916Z" fill="white"/>
<path d="M63.3105 60.7305H75.8398V65.6133H63.3105V60.7305ZM104.336 60.7305H116.865V65.6133H104.336V60.7305ZM87.5684 41.9805H92.4512V79.4805H87.5684V41.9805Z" fill="white"/>
<path d="M90.0098 98.4844L69.502 79.5195L72.8125 75.9258L90.0098 91.8242L107.119 75.9355L110.439 79.5098L90.0098 98.4844Z" fill="white"/>
<path d="M31.7002 141.5V124.46H37.6042C39.4282 124.46 40.9482 124.844 42.1642 125.612C43.3962 126.364 44.3162 127.388 44.9242 128.684C45.5322 129.964 45.8362 131.388 45.8362 132.956C45.8362 134.684 45.5002 136.188 44.8282 137.468C44.1562 138.748 43.2042 139.74 41.9722 140.444C40.7402 141.148 39.2842 141.5 37.6042 141.5H31.7002ZM43.6522 132.956C43.6522 131.676 43.4122 130.54 42.9322 129.548C42.4682 128.556 41.7882 127.78 40.8922 127.22C39.9962 126.66 38.9002 126.38 37.6042 126.38H33.8602V139.58H37.6042C38.9162 139.58 40.0202 139.292 40.9162 138.716C41.8122 138.124 42.4922 137.332 42.9562 136.34C43.4202 135.332 43.6522 134.204 43.6522 132.956ZM54.0158 141.74C53.0718 141.74 52.2158 141.572 51.4478 141.236C50.6798 140.884 50.0158 140.412 49.4558 139.82C48.8958 139.212 48.4638 138.516 48.1598 137.732C47.8558 136.948 47.7038 136.124 47.7038 135.26C47.7038 134.38 47.8558 133.548 48.1598 132.764C48.4638 131.98 48.8958 131.292 49.4558 130.7C50.0158 130.092 50.6798 129.62 51.4478 129.284C52.2318 128.932 53.0878 128.756 54.0158 128.756C54.9598 128.756 55.8158 128.932 56.5838 129.284C57.3518 129.62 58.0158 130.092 58.5758 130.7C59.1518 131.292 59.5918 131.98 59.8958 132.764C60.1998 133.548 60.3518 134.38 60.3518 135.26C60.3518 136.124 60.1998 136.948 59.8958 137.732C59.5918 138.516 59.1598 139.212 58.5998 139.82C58.0398 140.412 57.3678 140.884 56.5838 141.236C55.8158 141.572 54.9598 141.74 54.0158 141.74ZM49.8638 135.284C49.8638 136.148 50.0478 136.932 50.4158 137.636C50.7998 138.34 51.3038 138.9 51.9278 139.316C52.5518 139.716 53.2478 139.916 54.0158 139.916C54.7838 139.916 55.4798 139.708 56.1038 139.292C56.7438 138.876 57.2478 138.316 57.6158 137.612C57.9998 136.892 58.1918 136.1 58.1918 135.236C58.1918 134.372 57.9998 133.588 57.6158 132.884C57.2478 132.18 56.7438 131.62 56.1038 131.204C55.4798 130.788 54.7838 130.58 54.0158 130.58C53.2478 130.58 52.5518 130.796 51.9278 131.228C51.3038 131.644 50.7998 132.204 50.4158 132.908C50.0478 133.612 49.8638 134.404 49.8638 135.284ZM78.1852 128.972H80.2252L74.8972 141.5H73.0492L70.6252 135.596L68.2252 141.5H66.3772L61.0492 128.972H63.0652L67.3852 139.412L69.4012 134.276L67.2892 128.996H69.1372L70.6252 132.98L72.1132 128.996H73.9612L71.8732 134.276L73.8892 139.412L78.1852 128.972ZM93.0721 141.5H90.9601V134.492C90.9601 133.164 90.7521 132.196 90.3361 131.588C89.9361 130.964 89.3201 130.652 88.4881 130.652C87.9121 130.652 87.3361 130.796 86.7601 131.084C86.2001 131.372 85.6961 131.764 85.2481 132.26C84.8161 132.74 84.5041 133.3 84.3121 133.94V141.5H82.2001V128.972H84.1201V131.66C84.4561 131.068 84.8881 130.556 85.4161 130.124C85.9441 129.692 86.5441 129.356 87.2161 129.116C87.8881 128.876 88.5921 128.756 89.3281 128.756C90.0481 128.756 90.6481 128.892 91.1281 129.164C91.6241 129.42 92.0081 129.788 92.2801 130.268C92.5681 130.732 92.7681 131.284 92.8801 131.924C93.0081 132.564 93.0721 133.26 93.0721 134.012V141.5ZM96.4043 123.98H98.5163V138.26C98.5163 138.948 98.6123 139.372 98.8043 139.532C98.9963 139.692 99.2283 139.772 99.5003 139.772C99.8363 139.772 100.156 139.74 100.46 139.676C100.764 139.596 101.02 139.516 101.228 139.436L101.564 141.164C101.212 141.308 100.796 141.428 100.316 141.524C99.8363 141.62 99.4123 141.668 99.0443 141.668C98.2283 141.668 97.5803 141.436 97.1003 140.972C96.6363 140.508 96.4043 139.86 96.4043 139.028V123.98ZM108.696 141.74C107.752 141.74 106.896 141.572 106.128 141.236C105.36 140.884 104.696 140.412 104.136 139.82C103.576 139.212 103.144 138.516 102.84 137.732C102.536 136.948 102.384 136.124 102.384 135.26C102.384 134.38 102.536 133.548 102.84 132.764C103.144 131.98 103.576 131.292 104.136 130.7C104.696 130.092 105.36 129.62 106.128 129.284C106.912 128.932 107.768 128.756 108.696 128.756C109.64 128.756 110.496 128.932 111.264 129.284C112.032 129.62 112.696 130.092 113.256 130.7C113.832 131.292 114.272 131.98 114.576 132.764C114.88 133.548 115.032 134.38 115.032 135.26C115.032 136.124 114.88 136.948 114.576 137.732C114.272 138.516 113.84 139.212 113.28 139.82C112.72 140.412 112.048 140.884 111.264 141.236C110.496 141.572 109.64 141.74 108.696 141.74ZM104.544 135.284C104.544 136.148 104.728 136.932 105.096 137.636C105.48 138.34 105.984 138.9 106.608 139.316C107.232 139.716 107.928 139.916 108.696 139.916C109.464 139.916 110.16 139.708 110.784 139.292C111.424 138.876 111.928 138.316 112.296 137.612C112.68 136.892 112.872 136.1 112.872 135.236C112.872 134.372 112.68 133.588 112.296 132.884C111.928 132.18 111.424 131.62 110.784 131.204C110.16 130.788 109.464 130.58 108.696 130.58C107.928 130.58 107.232 130.796 106.608 131.228C105.984 131.644 105.48 132.204 105.096 132.908C104.728 133.612 104.544 134.404 104.544 135.284ZM116.607 137.876C116.607 137.076 116.831 136.388 117.279 135.812C117.743 135.22 118.375 134.764 119.175 134.444C119.975 134.124 120.903 133.964 121.959 133.964C122.519 133.964 123.111 134.012 123.735 134.108C124.359 134.188 124.911 134.316 125.391 134.492V133.58C125.391 132.62 125.103 131.868 124.527 131.324C123.951 130.764 123.135 130.484 122.079 130.484C121.391 130.484 120.727 130.612 120.087 130.868C119.463 131.108 118.799 131.46 118.095 131.924L117.327 130.436C118.143 129.876 118.959 129.46 119.775 129.188C120.591 128.9 121.439 128.756 122.319 128.756C123.919 128.756 125.183 129.204 126.111 130.1C127.039 130.98 127.503 132.212 127.503 133.796V139.1C127.503 139.356 127.551 139.548 127.647 139.676C127.759 139.788 127.935 139.852 128.175 139.868V141.5C127.967 141.532 127.783 141.556 127.623 141.572C127.479 141.588 127.359 141.596 127.263 141.596C126.767 141.596 126.391 141.46 126.135 141.188C125.895 140.916 125.759 140.628 125.727 140.324L125.679 139.532C125.135 140.236 124.423 140.78 123.543 141.164C122.663 141.548 121.791 141.74 120.927 141.74C120.095 141.74 119.351 141.572 118.695 141.236C118.039 140.884 117.527 140.42 117.159 139.844C116.791 139.252 116.607 138.596 116.607 137.876ZM124.767 138.764C124.959 138.54 125.111 138.316 125.223 138.092C125.335 137.852 125.391 137.652 125.391 137.492V135.932C124.895 135.74 124.375 135.596 123.831 135.5C123.287 135.388 122.751 135.332 122.223 135.332C121.151 135.332 120.279 135.548 119.607 135.98C118.951 136.396 118.623 136.972 118.623 137.708C118.623 138.108 118.727 138.5 118.935 138.884C119.159 139.252 119.479 139.556 119.895 139.796C120.327 140.036 120.855 140.156 121.479 140.156C122.135 140.156 122.759 140.028 123.351 139.772C123.943 139.5 124.415 139.164 124.767 138.764ZM130.064 135.26C130.064 134.076 130.304 132.996 130.784 132.02C131.28 131.028 131.952 130.236 132.8 129.644C133.664 129.052 134.648 128.756 135.752 128.756C136.76 128.756 137.664 129.02 138.464 129.548C139.264 130.076 139.888 130.716 140.336 131.468V123.98H142.448V139.1C142.448 139.356 142.496 139.548 142.592 139.676C142.704 139.788 142.88 139.852 143.12 139.868V141.5C142.72 141.564 142.408 141.596 142.184 141.596C141.768 141.596 141.4 141.452 141.08 141.164C140.776 140.876 140.624 140.556 140.624 140.204V139.148C140.128 139.948 139.464 140.58 138.632 141.044C137.8 141.508 136.936 141.74 136.04 141.74C135.176 141.74 134.376 141.572 133.64 141.236C132.92 140.884 132.288 140.404 131.744 139.796C131.216 139.188 130.8 138.5 130.496 137.732C130.208 136.948 130.064 136.124 130.064 135.26ZM140.336 137.108V133.508C140.144 132.964 139.832 132.476 139.4 132.044C138.968 131.596 138.48 131.244 137.936 130.988C137.408 130.716 136.88 130.58 136.352 130.58C135.728 130.58 135.16 130.716 134.648 130.988C134.152 131.244 133.72 131.596 133.352 132.044C133 132.476 132.728 132.972 132.536 133.532C132.344 134.092 132.248 134.676 132.248 135.284C132.248 135.908 132.352 136.5 132.56 137.06C132.784 137.62 133.088 138.116 133.472 138.548C133.872 138.98 134.328 139.316 134.84 139.556C135.368 139.796 135.936 139.916 136.544 139.916C136.928 139.916 137.32 139.844 137.72 139.7C138.136 139.556 138.528 139.356 138.896 139.1C139.264 138.844 139.576 138.548 139.832 138.212C140.088 137.86 140.256 137.492 140.336 137.108ZM70.7717 169.5H68.6597V162.492C68.6597 161.18 68.4437 160.212 68.0117 159.588C67.5957 158.964 66.9717 158.652 66.1397 158.652C65.2917 158.652 64.5237 158.964 63.8357 159.588C63.1477 160.196 62.6597 160.988 62.3717 161.964V169.5H60.2597V162.492C60.2597 161.164 60.0517 160.196 59.6357 159.588C59.2197 158.964 58.5957 158.652 57.7637 158.652C56.9317 158.652 56.1637 158.956 55.4597 159.564C54.7717 160.156 54.2837 160.948 53.9957 161.94V169.5H51.8837V156.972H53.8037V159.66C54.3157 158.732 54.9797 158.02 55.7957 157.524C56.6117 157.012 57.5317 156.756 58.5557 156.756C59.5957 156.756 60.4277 157.044 61.0517 157.62C61.6757 158.18 62.0597 158.908 62.2037 159.804C62.7637 158.812 63.4437 158.06 64.2437 157.548C65.0437 157.02 65.9557 156.756 66.9797 156.756C67.6997 156.756 68.2997 156.892 68.7797 157.164C69.2757 157.42 69.6677 157.788 69.9557 158.268C70.2437 158.732 70.4517 159.284 70.5797 159.924C70.7077 160.564 70.7717 161.26 70.7717 162.012V169.5ZM74.0556 169.5V156.972H76.1676V169.5H74.0556ZM74.0556 154.62V151.98H76.1676V154.62H74.0556ZM86.2108 158.82C85.1548 158.836 84.2188 159.108 83.4028 159.636C82.6028 160.148 82.0348 160.86 81.6988 161.772V169.5H79.5868V156.972H81.5548V159.876C81.9868 159.012 82.5548 158.316 83.2588 157.788C83.9788 157.244 84.7308 156.94 85.5148 156.876C85.6748 156.876 85.8108 156.876 85.9228 156.876C86.0348 156.876 86.1308 156.884 86.2108 156.9V158.82ZM94.9296 158.82C93.8736 158.836 92.9376 159.108 92.1216 159.636C91.3216 160.148 90.7536 160.86 90.4176 161.772V169.5H88.3056V156.972H90.2736V159.876C90.7056 159.012 91.2736 158.316 91.9776 157.788C92.6976 157.244 93.4496 156.94 94.2336 156.876C94.3936 156.876 94.5296 156.876 94.6416 156.876C94.7536 156.876 94.8496 156.884 94.9296 156.9V158.82ZM102.192 169.74C101.248 169.74 100.392 169.572 99.6236 169.236C98.8556 168.884 98.1916 168.412 97.6316 167.82C97.0716 167.212 96.6396 166.516 96.3356 165.732C96.0316 164.948 95.8796 164.124 95.8796 163.26C95.8796 162.38 96.0316 161.548 96.3356 160.764C96.6396 159.98 97.0716 159.292 97.6316 158.7C98.1916 158.092 98.8556 157.62 99.6236 157.284C100.408 156.932 101.264 156.756 102.192 156.756C103.136 156.756 103.992 156.932 104.76 157.284C105.528 157.62 106.192 158.092 106.752 158.7C107.328 159.292 107.768 159.98 108.072 160.764C108.376 161.548 108.528 162.38 108.528 163.26C108.528 164.124 108.376 164.948 108.072 165.732C107.768 166.516 107.336 167.212 106.776 167.82C106.216 168.412 105.544 168.884 104.76 169.236C103.992 169.572 103.136 169.74 102.192 169.74ZM98.0396 163.284C98.0396 164.148 98.2236 164.932 98.5916 165.636C98.9756 166.34 99.4796 166.9 100.104 167.316C100.728 167.716 101.424 167.916 102.192 167.916C102.96 167.916 103.656 167.708 104.28 167.292C104.92 166.876 105.424 166.316 105.792 165.612C106.176 164.892 106.368 164.1 106.368 163.236C106.368 162.372 106.176 161.588 105.792 160.884C105.424 160.18 104.92 159.62 104.28 159.204C103.656 158.788 102.96 158.58 102.192 158.58C101.424 158.58 100.728 158.796 100.104 159.228C99.4796 159.644 98.9756 160.204 98.5916 160.908C98.2236 161.612 98.0396 162.404 98.0396 163.284ZM117.711 158.82C116.655 158.836 115.719 159.108 114.903 159.636C114.103 160.148 113.535 160.86 113.199 161.772V169.5H111.087V156.972H113.055V159.876C113.487 159.012 114.055 158.316 114.759 157.788C115.479 157.244 116.231 156.94 117.015 156.876C117.175 156.876 117.311 156.876 117.423 156.876C117.535 156.876 117.631 156.884 117.711 156.9V158.82ZM124.102 169.74C123.062 169.74 122.086 169.572 121.174 169.236C120.262 168.884 119.478 168.364 118.822 167.676L119.638 166.188C120.358 166.86 121.078 167.34 121.798 167.628C122.518 167.916 123.254 168.06 124.006 168.06C124.87 168.06 125.574 167.9 126.118 167.58C126.662 167.244 126.934 166.756 126.934 166.116C126.934 165.652 126.79 165.308 126.502 165.084C126.23 164.86 125.838 164.676 125.326 164.532C124.814 164.372 124.206 164.196 123.502 164.004C122.638 163.748 121.91 163.476 121.318 163.188C120.726 162.9 120.278 162.54 119.974 162.108C119.67 161.676 119.518 161.132 119.518 160.476C119.518 159.676 119.726 159.004 120.142 158.46C120.558 157.9 121.126 157.476 121.846 157.188C122.582 156.9 123.414 156.756 124.342 156.756C125.27 156.756 126.11 156.9 126.862 157.188C127.614 157.476 128.262 157.9 128.806 158.46L127.846 159.924C127.35 159.412 126.806 159.036 126.214 158.796C125.622 158.54 124.958 158.412 124.222 158.412C123.79 158.412 123.366 158.468 122.95 158.58C122.534 158.676 122.19 158.86 121.918 159.132C121.646 159.388 121.51 159.756 121.51 160.236C121.51 160.636 121.614 160.956 121.822 161.196C122.046 161.42 122.366 161.612 122.782 161.772C123.214 161.932 123.734 162.108 124.342 162.3C125.286 162.572 126.102 162.844 126.79 163.116C127.494 163.388 128.038 163.74 128.422 164.172C128.806 164.604 128.998 165.204 128.998 165.972C128.998 167.156 128.55 168.084 127.654 168.756C126.758 169.412 125.574 169.74 124.102 169.74Z" fill="white"/>
</svg>
