<svg width="99" height="98" viewBox="0 0 99 98" fill="none" xmlns="http://www.w3.org/2000/svg">
<path d="M40.5235 51.7024C43.787 51.7024 46.4326 54.3464 46.4326 57.6079V72.2873C46.4326 75.5487 43.787 78.1927 40.5235 78.1927H25.8349C22.5714 78.1927 19.9258 75.5487 19.9258 72.2872V57.6079C19.9258 54.3464 22.5714 51.7024 25.8349 51.7024H40.5235ZM72.9395 51.7024C76.203 51.7024 78.8486 54.3464 78.8486 57.6079V72.2873C78.8486 75.5487 76.203 78.1927 72.9395 78.1927H58.251C54.9874 78.1927 52.3418 75.5487 52.3418 72.2872V57.6079C52.3418 54.3464 54.9874 51.7024 58.251 51.7024H72.9395ZM65.5953 20.1504C72.9149 20.1504 78.8486 26.0805 78.8486 33.3955C78.8486 40.7106 72.9149 46.6407 65.5953 46.6407C58.2755 46.6407 52.3418 40.7106 52.3418 33.3955C52.3418 26.0804 58.2755 20.1504 65.5953 20.1504ZM40.5235 20.1504C43.787 20.1504 46.4326 22.7944 46.4326 26.0559V40.7352C46.4326 43.9967 43.787 46.6407 40.5235 46.6407H25.8349C22.5714 46.6407 19.9258 43.9967 19.9258 40.7352V26.0559C19.9258 22.7944 22.5714 20.1504 25.8349 20.1504H40.5235Z" fill="#2B629D"/>
</svg>
