<svg width="180" height="180" viewBox="0 0 180 180" fill="none" xmlns="http://www.w3.org/2000/svg">
<rect x="1" y="1" width="178" height="178" rx="12" stroke="white" stroke-width="2"/>
<g clip-path="url(#clip0_3680_4905)">
<path d="M127.661 56.1123C127.124 59.3373 126.047 63.099 124.434 66.324C123.359 67.9373 122.284 68.474 120.67 67.9373C119.057 66.8623 118.519 65.7873 119.057 64.174C120.67 60.949 121.745 57.7257 122.284 54.5007C124.434 45.9007 123.897 37.8391 123.359 33.0024L90.0184 17.4175L56.6796 33.0024C56.1412 37.8391 55.6029 45.3641 57.7546 54.5007C61.518 72.2356 72.8115 84.5973 90.0184 92.1223C95.3968 89.9723 99.6985 87.2856 104 84.0606C105.075 82.9856 106.689 83.5223 107.765 84.5973C108.84 85.6723 108.302 87.2856 107.227 88.3589C102.387 92.1223 97.0102 94.8089 91.0951 97.4955H88.9434C69.0464 89.4339 56.6796 75.4606 52.3762 55.5757C50.765 47.4369 50.4025 39.1003 51.3012 30.8524C51.8395 29.7774 52.3762 29.2408 52.9145 28.7024L88.9434 11.5059H91.0951L127.124 28.7024C128.199 29.2408 128.737 29.7774 128.737 30.8524C129.274 35.6891 129.812 44.8274 127.661 56.1123ZM91.0951 72.2356C86.7934 72.2356 81.9533 70.0856 78.7266 66.8623C71.7365 59.8757 71.7365 49.1257 78.7266 42.1391C85.7166 35.1524 96.4718 35.1524 103.462 42.1391C109.377 48.0507 109.915 57.7257 105.075 64.7123L116.369 75.999C117.444 77.074 117.444 78.6856 116.369 79.7606C115.83 80.2973 115.294 80.2973 114.217 80.2973C113.142 80.2973 112.604 80.2973 112.067 79.7606L101.312 69.0106C98.0852 71.1606 94.8584 72.2356 91.0951 72.2356ZM99.6985 45.9007C97.5468 43.2141 94.3201 42.1391 91.0951 42.1391C87.8684 42.1391 84.6416 43.7524 82.4899 45.9007C77.6516 50.7391 77.6516 58.2623 82.4899 63.099C87.33 67.399 94.8584 67.399 99.6985 63.099C104.539 58.2623 104.539 50.7391 99.6985 45.9007Z" fill="white"/>
</g>
<path d="M76.6311 141.5H74.5191V134.492C74.5191 133.18 74.3031 132.212 73.8711 131.588C73.4551 130.964 72.8311 130.652 71.9991 130.652C71.1511 130.652 70.3831 130.964 69.6951 131.588C69.0071 132.196 68.5191 132.988 68.2311 133.964V141.5H66.1191V134.492C66.1191 133.164 65.9111 132.196 65.4951 131.588C65.0791 130.964 64.4551 130.652 63.6231 130.652C62.7911 130.652 62.0231 130.956 61.3191 131.564C60.6311 132.156 60.1431 132.948 59.8551 133.94V141.5H57.7431V128.972H59.6631V131.66C60.1751 130.732 60.8391 130.02 61.6551 129.524C62.4711 129.012 63.3911 128.756 64.4151 128.756C65.4551 128.756 66.2871 129.044 66.9111 129.62C67.5351 130.18 67.9191 130.908 68.0631 131.804C68.6231 130.812 69.3031 130.06 70.1031 129.548C70.9031 129.02 71.8151 128.756 72.8391 128.756C73.5591 128.756 74.1591 128.892 74.6391 129.164C75.1351 129.42 75.5271 129.788 75.8151 130.268C76.1031 130.732 76.3111 131.284 76.4391 131.924C76.5671 132.564 76.6311 133.26 76.6311 134.012V141.5ZM79.9149 141.5V128.972H82.0269V141.5H79.9149ZM79.9149 126.62V123.98H82.0269V126.62H79.9149ZM92.0702 130.82C91.0142 130.836 90.0782 131.108 89.2622 131.636C88.4622 132.148 87.8942 132.86 87.5582 133.772V141.5H85.4462V128.972H87.4142V131.876C87.8462 131.012 88.4142 130.316 89.1182 129.788C89.8382 129.244 90.5902 128.94 91.3742 128.876C91.5342 128.876 91.6702 128.876 91.7822 128.876C91.8942 128.876 91.9902 128.884 92.0702 128.9V130.82ZM100.789 130.82C99.7329 130.836 98.7969 131.108 97.9809 131.636C97.1809 132.148 96.6129 132.86 96.2769 133.772V141.5H94.1649V128.972H96.1329V131.876C96.5649 131.012 97.1329 130.316 97.8369 129.788C98.5569 129.244 99.3089 128.94 100.093 128.876C100.253 128.876 100.389 128.876 100.501 128.876C100.613 128.876 100.709 128.884 100.789 128.9V130.82ZM108.051 141.74C107.107 141.74 106.251 141.572 105.483 141.236C104.715 140.884 104.051 140.412 103.491 139.82C102.931 139.212 102.499 138.516 102.195 137.732C101.891 136.948 101.739 136.124 101.739 135.26C101.739 134.38 101.891 133.548 102.195 132.764C102.499 131.98 102.931 131.292 103.491 130.7C104.051 130.092 104.715 129.62 105.483 129.284C106.267 128.932 107.123 128.756 108.051 128.756C108.995 128.756 109.851 128.932 110.619 129.284C111.387 129.62 112.051 130.092 112.611 130.7C113.187 131.292 113.627 131.98 113.931 132.764C114.235 133.548 114.387 134.38 114.387 135.26C114.387 136.124 114.235 136.948 113.931 137.732C113.627 138.516 113.195 139.212 112.635 139.82C112.075 140.412 111.403 140.884 110.619 141.236C109.851 141.572 108.995 141.74 108.051 141.74ZM103.899 135.284C103.899 136.148 104.083 136.932 104.451 137.636C104.835 138.34 105.339 138.9 105.963 139.316C106.587 139.716 107.283 139.916 108.051 139.916C108.819 139.916 109.515 139.708 110.139 139.292C110.779 138.876 111.283 138.316 111.651 137.612C112.035 136.892 112.227 136.1 112.227 135.236C112.227 134.372 112.035 133.588 111.651 132.884C111.283 132.18 110.779 131.62 110.139 131.204C109.515 130.788 108.819 130.58 108.051 130.58C107.283 130.58 106.587 130.796 105.963 131.228C105.339 131.644 104.835 132.204 104.451 132.908C104.083 133.612 103.899 134.404 103.899 135.284ZM123.57 130.82C122.514 130.836 121.578 131.108 120.762 131.636C119.962 132.148 119.394 132.86 119.058 133.772V141.5H116.946V128.972H118.914V131.876C119.346 131.012 119.914 130.316 120.618 129.788C121.338 129.244 122.09 128.94 122.874 128.876C123.034 128.876 123.17 128.876 123.282 128.876C123.394 128.876 123.49 128.884 123.57 128.9V130.82ZM34.0384 169.5L29.1184 156.972H31.3264L35.2624 167.484L39.1984 156.972H41.2624L36.3424 169.5H34.0384ZM48.498 169.74C47.554 169.74 46.69 169.572 45.906 169.236C45.138 168.884 44.466 168.412 43.89 167.82C43.33 167.212 42.89 166.516 42.57 165.732C42.266 164.948 42.114 164.116 42.114 163.236C42.114 162.052 42.386 160.972 42.93 159.996C43.474 159.02 44.226 158.236 45.186 157.644C46.162 157.052 47.274 156.756 48.522 156.756C49.786 156.756 50.882 157.06 51.81 157.668C52.754 158.26 53.482 159.044 53.994 160.02C54.522 160.98 54.786 162.02 54.786 163.14C54.786 163.3 54.778 163.46 54.762 163.62C54.762 163.764 54.754 163.876 54.738 163.956H44.346C44.41 164.772 44.634 165.5 45.018 166.14C45.418 166.764 45.93 167.26 46.554 167.628C47.178 167.98 47.85 168.156 48.57 168.156C49.338 168.156 50.058 167.964 50.73 167.58C51.418 167.196 51.89 166.692 52.146 166.068L53.97 166.572C53.698 167.18 53.29 167.724 52.746 168.204C52.218 168.684 51.586 169.06 50.85 169.332C50.13 169.604 49.346 169.74 48.498 169.74ZM44.274 162.492H52.818C52.754 161.676 52.522 160.956 52.122 160.332C51.722 159.708 51.21 159.22 50.586 158.868C49.962 158.516 49.274 158.34 48.522 158.34C47.786 158.34 47.106 158.516 46.482 158.868C45.858 159.22 45.346 159.708 44.946 160.332C44.562 160.956 44.338 161.676 44.274 162.492ZM63.7577 158.82C62.7017 158.836 61.7657 159.108 60.9497 159.636C60.1497 160.148 59.5817 160.86 59.2457 161.772V169.5H57.1337V156.972H59.1017V159.876C59.5337 159.012 60.1017 158.316 60.8057 157.788C61.5257 157.244 62.2777 156.94 63.0617 156.876C63.2217 156.876 63.3577 156.876 63.4697 156.876C63.5817 156.876 63.6777 156.884 63.7577 156.9V158.82ZM65.8524 169.5V156.972H67.9644V169.5H65.8524ZM65.8524 154.62V151.98H67.9644V154.62H65.8524ZM72.0557 158.628H70.3517V156.972H72.0557V156.708C72.0557 156.084 72.1517 155.484 72.3437 154.908C72.5357 154.316 72.8237 153.78 73.2077 153.3C73.5917 152.82 74.0717 152.444 74.6477 152.172C75.2237 151.884 75.9037 151.74 76.6877 151.74C77.2797 151.74 77.8237 151.804 78.3197 151.932C78.8157 152.06 79.2557 152.22 79.6397 152.412C80.0397 152.604 80.3677 152.796 80.6237 152.988L79.7117 154.548C79.4077 154.276 78.9917 154.044 78.4637 153.852C77.9517 153.66 77.3997 153.564 76.8077 153.564C76.1997 153.564 75.6957 153.716 75.2957 154.02C74.9117 154.324 74.6237 154.716 74.4317 155.196C74.2557 155.66 74.1677 156.14 74.1677 156.636V156.972H80.5757V169.5H78.4637V158.628H74.1677V169.5H72.0557V158.628ZM89.5371 169.74C88.5931 169.74 87.7291 169.572 86.9451 169.236C86.1771 168.884 85.5051 168.404 84.9291 167.796C84.3691 167.188 83.9291 166.492 83.6091 165.708C83.3051 164.924 83.1531 164.092 83.1531 163.212C83.1531 162.028 83.4171 160.948 83.9451 159.972C84.4731 158.996 85.2171 158.22 86.1771 157.644C87.1371 157.052 88.2491 156.756 89.5131 156.756C90.7451 156.756 91.8171 157.036 92.7291 157.596C93.6571 158.14 94.3451 158.876 94.7931 159.804L92.7291 160.452C92.4091 159.86 91.9611 159.404 91.3851 159.084C90.8091 158.748 90.1691 158.58 89.4651 158.58C88.6971 158.58 87.9931 158.78 87.3531 159.18C86.7291 159.58 86.2331 160.132 85.8651 160.836C85.4971 161.524 85.3131 162.316 85.3131 163.212C85.3131 164.092 85.4971 164.892 85.8651 165.612C86.2491 166.316 86.7531 166.876 87.3771 167.292C88.0171 167.708 88.7211 167.916 89.4891 167.916C89.9851 167.916 90.4571 167.828 90.9051 167.652C91.3691 167.476 91.7691 167.244 92.1051 166.956C92.4571 166.652 92.6971 166.324 92.8251 165.972L94.8891 166.596C94.6331 167.204 94.2411 167.748 93.7131 168.228C93.2011 168.692 92.5851 169.06 91.8651 169.332C91.1611 169.604 90.3851 169.74 89.5371 169.74ZM96.2981 165.876C96.2981 165.076 96.5221 164.388 96.9701 163.812C97.4341 163.22 98.0661 162.764 98.8661 162.444C99.6661 162.124 100.594 161.964 101.65 161.964C102.21 161.964 102.802 162.012 103.426 162.108C104.05 162.188 104.602 162.316 105.082 162.492V161.58C105.082 160.62 104.794 159.868 104.218 159.324C103.642 158.764 102.826 158.484 101.77 158.484C101.082 158.484 100.418 158.612 99.7781 158.868C99.1541 159.108 98.4901 159.46 97.7861 159.924L97.0181 158.436C97.8341 157.876 98.6501 157.46 99.4661 157.188C100.282 156.9 101.13 156.756 102.01 156.756C103.61 156.756 104.874 157.204 105.802 158.1C106.73 158.98 107.194 160.212 107.194 161.796V167.1C107.194 167.356 107.242 167.548 107.338 167.676C107.45 167.788 107.626 167.852 107.866 167.868V169.5C107.658 169.532 107.474 169.556 107.314 169.572C107.17 169.588 107.05 169.596 106.954 169.596C106.458 169.596 106.082 169.46 105.826 169.188C105.586 168.916 105.45 168.628 105.418 168.324L105.37 167.532C104.826 168.236 104.114 168.78 103.234 169.164C102.354 169.548 101.482 169.74 100.618 169.74C99.7861 169.74 99.0421 169.572 98.3861 169.236C97.7301 168.884 97.2181 168.42 96.8501 167.844C96.4821 167.252 96.2981 166.596 96.2981 165.876ZM104.458 166.764C104.65 166.54 104.802 166.316 104.914 166.092C105.026 165.852 105.082 165.652 105.082 165.492V163.932C104.586 163.74 104.066 163.596 103.522 163.5C102.978 163.388 102.442 163.332 101.914 163.332C100.842 163.332 99.9701 163.548 99.2981 163.98C98.6421 164.396 98.3141 164.972 98.3141 165.708C98.3141 166.108 98.4181 166.5 98.6261 166.884C98.8501 167.252 99.1701 167.556 99.5861 167.796C100.018 168.036 100.546 168.156 101.17 168.156C101.826 168.156 102.45 168.028 103.042 167.772C103.634 167.5 104.106 167.164 104.458 166.764ZM116.957 168.876C116.781 168.956 116.541 169.06 116.237 169.188C115.933 169.316 115.581 169.428 115.181 169.524C114.781 169.62 114.357 169.668 113.909 169.668C113.397 169.668 112.925 169.58 112.493 169.404C112.061 169.212 111.717 168.924 111.461 168.54C111.205 168.14 111.077 167.644 111.077 167.052V158.628H109.373V156.972H111.077V152.796H113.189V156.972H115.997V158.628H113.189V166.404C113.221 166.852 113.373 167.188 113.645 167.412C113.917 167.62 114.237 167.724 114.605 167.724C115.021 167.724 115.405 167.652 115.757 167.508C116.109 167.364 116.341 167.26 116.453 167.196L116.957 168.876ZM118.915 169.5V156.972H121.027V169.5H118.915ZM118.915 154.62V151.98H121.027V154.62H118.915ZM129.918 169.74C128.974 169.74 128.118 169.572 127.35 169.236C126.582 168.884 125.918 168.412 125.358 167.82C124.798 167.212 124.366 166.516 124.062 165.732C123.758 164.948 123.606 164.124 123.606 163.26C123.606 162.38 123.758 161.548 124.062 160.764C124.366 159.98 124.798 159.292 125.358 158.7C125.918 158.092 126.582 157.62 127.35 157.284C128.134 156.932 128.99 156.756 129.918 156.756C130.862 156.756 131.718 156.932 132.486 157.284C133.254 157.62 133.918 158.092 134.478 158.7C135.054 159.292 135.494 159.98 135.798 160.764C136.102 161.548 136.254 162.38 136.254 163.26C136.254 164.124 136.102 164.948 135.798 165.732C135.494 166.516 135.062 167.212 134.502 167.82C133.942 168.412 133.27 168.884 132.486 169.236C131.718 169.572 130.862 169.74 129.918 169.74ZM125.766 163.284C125.766 164.148 125.95 164.932 126.318 165.636C126.702 166.34 127.206 166.9 127.83 167.316C128.454 167.716 129.15 167.916 129.918 167.916C130.686 167.916 131.382 167.708 132.006 167.292C132.646 166.876 133.15 166.316 133.518 165.612C133.902 164.892 134.094 164.1 134.094 163.236C134.094 162.372 133.902 161.588 133.518 160.884C133.15 160.18 132.646 159.62 132.006 159.204C131.382 158.788 130.686 158.58 129.918 158.58C129.15 158.58 128.454 158.796 127.83 159.228C127.206 159.644 126.702 160.204 126.318 160.908C125.95 161.612 125.766 162.404 125.766 163.284ZM149.685 169.5H147.573V162.492C147.573 161.164 147.365 160.196 146.949 159.588C146.549 158.964 145.933 158.652 145.101 158.652C144.525 158.652 143.949 158.796 143.373 159.084C142.813 159.372 142.309 159.764 141.861 160.26C141.429 160.74 141.117 161.3 140.925 161.94V169.5H138.813V156.972H140.733V159.66C141.069 159.068 141.501 158.556 142.029 158.124C142.557 157.692 143.157 157.356 143.829 157.116C144.501 156.876 145.205 156.756 145.941 156.756C146.661 156.756 147.261 156.892 147.741 157.164C148.237 157.42 148.621 157.788 148.893 158.268C149.181 158.732 149.381 159.284 149.493 159.924C149.621 160.564 149.685 161.26 149.685 162.012V169.5Z" fill="white"/>
<defs>
<clipPath id="clip0_3680_4905">
<rect width="86" height="86" fill="white" transform="translate(47 11.5)"/>
</clipPath>
</defs>
</svg>
