<svg width="180" height="180" viewBox="0 0 180 180" fill="none" xmlns="http://www.w3.org/2000/svg">
<rect x="1" y="1" width="178" height="178" rx="12" stroke="white" stroke-width="2"/>
<g clip-path="url(#clip0_3680_4911)">
<path d="M93.3921 88.0452C91.8147 88.9009 90.6686 89.2818 89.6773 89.2818C88.679 89.2818 87.566 88.9044 85.9625 88.0174C59.2094 73.2366 59.2981 65.1409 59.6268 35.0174C59.6599 32.0226 59.6947 28.8261 59.7051 25.4018C63.8494 24.1739 68.2808 23.0157 72.9034 21.9548C77.9521 20.7948 83.5677 20.0453 89.5903 19.7235C101.049 20.9948 109.839 22.6713 119.359 25.4174C119.376 29.287 119.427 32.8609 119.47 36.1722C119.886 66.4505 119.987 73.6452 93.3921 88.0452ZM124.688 36.1009C124.636 32.2574 124.578 28.0644 124.569 23.4592C124.568 22.3096 123.811 21.2957 122.709 20.967C112.079 17.7774 102.59 15.9079 89.9521 14.5148C89.8129 14.4992 89.6721 14.4974 89.5329 14.5026C83.126 14.8331 77.1381 15.6296 71.7347 16.8696C66.2981 18.1183 61.1138 19.4992 56.3312 20.9722C55.239 21.3079 54.4912 22.32 54.4912 23.4644C54.4912 27.6087 54.4477 31.4244 54.4112 34.96C54.0808 65.04 53.9573 76.2957 83.439 92.5844C85.8703 93.927 87.7364 94.4992 89.6773 94.4992C91.5834 94.4992 93.4964 93.9235 95.8773 92.6348C125.246 76.7287 125.117 67.3096 124.688 36.1009ZM107.967 37.2623L84.4439 60.8745L72.8961 49.2866C71.5413 47.9284 69.3378 47.9232 67.9761 49.278C66.6161 50.6345 66.6126 52.8362 67.9674 54.1979L81.9795 68.2588C82.6334 68.9127 83.5187 69.2814 84.4439 69.2814C85.3691 69.2814 86.2561 68.9127 86.9082 68.2571L112.896 42.1701C114.251 40.8101 114.247 38.6066 112.886 37.2519C111.527 35.8971 109.322 35.8988 107.967 37.2623Z" fill="white"/>
</g>
<path d="M27.1411 124.46L32.7811 138.788L38.3971 124.46H40.6771L33.7651 141.5H31.7971L24.8611 124.46H27.1411ZM46.541 141.74C45.597 141.74 44.733 141.572 43.949 141.236C43.181 140.884 42.509 140.412 41.933 139.82C41.373 139.212 40.933 138.516 40.613 137.732C40.309 136.948 40.157 136.116 40.157 135.236C40.157 134.052 40.429 132.972 40.973 131.996C41.517 131.02 42.269 130.236 43.229 129.644C44.205 129.052 45.317 128.756 46.565 128.756C47.829 128.756 48.925 129.06 49.853 129.668C50.797 130.26 51.525 131.044 52.037 132.02C52.565 132.98 52.829 134.02 52.829 135.14C52.829 135.3 52.821 135.46 52.805 135.62C52.805 135.764 52.797 135.876 52.781 135.956H42.389C42.453 136.772 42.677 137.5 43.061 138.14C43.461 138.764 43.973 139.26 44.597 139.628C45.221 139.98 45.893 140.156 46.613 140.156C47.381 140.156 48.101 139.964 48.773 139.58C49.461 139.196 49.933 138.692 50.189 138.068L52.013 138.572C51.741 139.18 51.333 139.724 50.789 140.204C50.261 140.684 49.629 141.06 48.893 141.332C48.173 141.604 47.389 141.74 46.541 141.74ZM42.317 134.492H50.861C50.797 133.676 50.565 132.956 50.165 132.332C49.765 131.708 49.253 131.22 48.629 130.868C48.005 130.516 47.317 130.34 46.565 130.34C45.829 130.34 45.149 130.516 44.525 130.868C43.901 131.22 43.389 131.708 42.989 132.332C42.605 132.956 42.381 133.676 42.317 134.492ZM61.8007 130.82C60.7447 130.836 59.8087 131.108 58.9927 131.636C58.1927 132.148 57.6247 132.86 57.2887 133.772V141.5H55.1767V128.972H57.1447V131.876C57.5767 131.012 58.1447 130.316 58.8487 129.788C59.5687 129.244 60.3207 128.94 61.1047 128.876C61.2647 128.876 61.4007 128.876 61.5127 128.876C61.6247 128.876 61.7207 128.884 61.8007 128.9V130.82ZM63.8954 141.5V128.972H66.0074V141.5H63.8954ZM63.8954 126.62V123.98H66.0074V126.62H63.8954ZM70.0987 130.628H68.3947V128.972H70.0987V128.708C70.0987 128.084 70.1947 127.484 70.3867 126.908C70.5787 126.316 70.8667 125.78 71.2507 125.3C71.6347 124.82 72.1147 124.444 72.6907 124.172C73.2667 123.884 73.9467 123.74 74.7307 123.74C75.3227 123.74 75.8667 123.804 76.3627 123.932C76.8587 124.06 77.2987 124.22 77.6827 124.412C78.0827 124.604 78.4107 124.796 78.6667 124.988L77.7547 126.548C77.4507 126.276 77.0347 126.044 76.5067 125.852C75.9947 125.66 75.4427 125.564 74.8507 125.564C74.2427 125.564 73.7387 125.716 73.3387 126.02C72.9547 126.324 72.6667 126.716 72.4747 127.196C72.2987 127.66 72.2107 128.14 72.2107 128.636V128.972H78.6187V141.5H76.5067V130.628H72.2107V141.5H70.0987V130.628ZM87.58 141.74C86.636 141.74 85.772 141.572 84.988 141.236C84.22 140.884 83.548 140.404 82.972 139.796C82.412 139.188 81.972 138.492 81.652 137.708C81.348 136.924 81.196 136.092 81.196 135.212C81.196 134.028 81.46 132.948 81.988 131.972C82.516 130.996 83.26 130.22 84.22 129.644C85.18 129.052 86.292 128.756 87.556 128.756C88.788 128.756 89.86 129.036 90.772 129.596C91.7 130.14 92.388 130.876 92.836 131.804L90.772 132.452C90.452 131.86 90.004 131.404 89.428 131.084C88.852 130.748 88.212 130.58 87.508 130.58C86.74 130.58 86.036 130.78 85.396 131.18C84.772 131.58 84.276 132.132 83.908 132.836C83.54 133.524 83.356 134.316 83.356 135.212C83.356 136.092 83.54 136.892 83.908 137.612C84.292 138.316 84.796 138.876 85.42 139.292C86.06 139.708 86.764 139.916 87.532 139.916C88.028 139.916 88.5 139.828 88.948 139.652C89.412 139.476 89.812 139.244 90.148 138.956C90.5 138.652 90.74 138.324 90.868 137.972L92.932 138.596C92.676 139.204 92.284 139.748 91.756 140.228C91.244 140.692 90.628 141.06 89.908 141.332C89.204 141.604 88.428 141.74 87.58 141.74ZM94.3411 137.876C94.3411 137.076 94.5651 136.388 95.0131 135.812C95.4771 135.22 96.1091 134.764 96.9091 134.444C97.7091 134.124 98.6371 133.964 99.6931 133.964C100.253 133.964 100.845 134.012 101.469 134.108C102.093 134.188 102.645 134.316 103.125 134.492V133.58C103.125 132.62 102.837 131.868 102.261 131.324C101.685 130.764 100.869 130.484 99.8131 130.484C99.1251 130.484 98.4611 130.612 97.8211 130.868C97.1971 131.108 96.5331 131.46 95.8291 131.924L95.0611 130.436C95.8771 129.876 96.6931 129.46 97.5091 129.188C98.3251 128.9 99.1731 128.756 100.053 128.756C101.653 128.756 102.917 129.204 103.845 130.1C104.773 130.98 105.237 132.212 105.237 133.796V139.1C105.237 139.356 105.285 139.548 105.381 139.676C105.493 139.788 105.669 139.852 105.909 139.868V141.5C105.701 141.532 105.517 141.556 105.357 141.572C105.213 141.588 105.093 141.596 104.997 141.596C104.501 141.596 104.125 141.46 103.869 141.188C103.629 140.916 103.493 140.628 103.461 140.324L103.413 139.532C102.869 140.236 102.157 140.78 101.277 141.164C100.397 141.548 99.5251 141.74 98.6611 141.74C97.8291 141.74 97.0851 141.572 96.4291 141.236C95.7731 140.884 95.2611 140.42 94.8931 139.844C94.5251 139.252 94.3411 138.596 94.3411 137.876ZM102.501 138.764C102.693 138.54 102.845 138.316 102.957 138.092C103.069 137.852 103.125 137.652 103.125 137.492V135.932C102.629 135.74 102.109 135.596 101.565 135.5C101.021 135.388 100.485 135.332 99.9571 135.332C98.8851 135.332 98.0131 135.548 97.3411 135.98C96.6851 136.396 96.3571 136.972 96.3571 137.708C96.3571 138.108 96.4611 138.5 96.6691 138.884C96.8931 139.252 97.2131 139.556 97.6291 139.796C98.0611 140.036 98.5891 140.156 99.2131 140.156C99.8691 140.156 100.493 140.028 101.085 139.772C101.677 139.5 102.149 139.164 102.501 138.764ZM115 140.876C114.824 140.956 114.584 141.06 114.28 141.188C113.976 141.316 113.624 141.428 113.224 141.524C112.824 141.62 112.4 141.668 111.952 141.668C111.44 141.668 110.968 141.58 110.536 141.404C110.104 141.212 109.76 140.924 109.504 140.54C109.248 140.14 109.12 139.644 109.12 139.052V130.628H107.416V128.972H109.12V124.796H111.232V128.972H114.04V130.628H111.232V138.404C111.264 138.852 111.416 139.188 111.688 139.412C111.96 139.62 112.28 139.724 112.648 139.724C113.064 139.724 113.448 139.652 113.8 139.508C114.152 139.364 114.384 139.26 114.496 139.196L115 140.876ZM116.958 141.5V128.972H119.07V141.5H116.958ZM116.958 126.62V123.98H119.07V126.62H116.958ZM127.961 141.74C127.017 141.74 126.161 141.572 125.393 141.236C124.625 140.884 123.961 140.412 123.401 139.82C122.841 139.212 122.409 138.516 122.105 137.732C121.801 136.948 121.649 136.124 121.649 135.26C121.649 134.38 121.801 133.548 122.105 132.764C122.409 131.98 122.841 131.292 123.401 130.7C123.961 130.092 124.625 129.62 125.393 129.284C126.177 128.932 127.033 128.756 127.961 128.756C128.905 128.756 129.761 128.932 130.529 129.284C131.297 129.62 131.961 130.092 132.521 130.7C133.097 131.292 133.537 131.98 133.841 132.764C134.145 133.548 134.297 134.38 134.297 135.26C134.297 136.124 134.145 136.948 133.841 137.732C133.537 138.516 133.105 139.212 132.545 139.82C131.985 140.412 131.313 140.884 130.529 141.236C129.761 141.572 128.905 141.74 127.961 141.74ZM123.809 135.284C123.809 136.148 123.993 136.932 124.361 137.636C124.745 138.34 125.249 138.9 125.873 139.316C126.497 139.716 127.193 139.916 127.961 139.916C128.729 139.916 129.425 139.708 130.049 139.292C130.689 138.876 131.193 138.316 131.561 137.612C131.945 136.892 132.137 136.1 132.137 135.236C132.137 134.372 131.945 133.588 131.561 132.884C131.193 132.18 130.689 131.62 130.049 131.204C129.425 130.788 128.729 130.58 127.961 130.58C127.193 130.58 126.497 130.796 125.873 131.228C125.249 131.644 124.745 132.204 124.361 132.908C123.993 133.612 123.809 134.404 123.809 135.284ZM147.728 141.5H145.616V134.492C145.616 133.164 145.408 132.196 144.992 131.588C144.592 130.964 143.976 130.652 143.144 130.652C142.568 130.652 141.992 130.796 141.416 131.084C140.856 131.372 140.352 131.764 139.904 132.26C139.472 132.74 139.16 133.3 138.968 133.94V141.5H136.856V128.972H138.776V131.66C139.112 131.068 139.544 130.556 140.072 130.124C140.6 129.692 141.2 129.356 141.872 129.116C142.544 128.876 143.248 128.756 143.984 128.756C144.704 128.756 145.304 128.892 145.784 129.164C146.28 129.42 146.664 129.788 146.936 130.268C147.224 130.732 147.424 131.284 147.536 131.924C147.664 132.564 147.728 133.26 147.728 134.012V141.5ZM57.9714 169.74C56.9474 169.74 56.0354 169.484 55.2354 168.972C54.4354 168.46 53.8034 167.812 53.3394 167.028V174.612H51.2274V156.972H53.0994V159.324C53.5954 158.556 54.2434 157.94 55.0434 157.476C55.8434 156.996 56.7154 156.756 57.6594 156.756C58.5234 156.756 59.3154 156.932 60.0354 157.284C60.7554 157.636 61.3794 158.116 61.9074 158.724C62.4354 159.332 62.8434 160.028 63.1314 160.812C63.4354 161.58 63.5874 162.388 63.5874 163.236C63.5874 164.42 63.3474 165.508 62.8674 166.5C62.4034 167.492 61.7474 168.284 60.8994 168.876C60.0514 169.452 59.0754 169.74 57.9714 169.74ZM57.3234 167.916C57.9474 167.916 58.5074 167.788 59.0034 167.532C59.5154 167.26 59.9474 166.908 60.2994 166.476C60.6674 166.028 60.9474 165.524 61.1394 164.964C61.3314 164.404 61.4274 163.828 61.4274 163.236C61.4274 162.612 61.3154 162.02 61.0914 161.46C60.8834 160.9 60.5794 160.404 60.1794 159.972C59.7954 159.54 59.3394 159.204 58.8114 158.964C58.2994 158.708 57.7394 158.58 57.1314 158.58C56.7474 158.58 56.3474 158.652 55.9314 158.796C55.5314 158.94 55.1474 159.148 54.7794 159.42C54.4114 159.676 54.0994 159.972 53.8434 160.308C53.5874 160.644 53.4194 161.004 53.3394 161.388V164.964C53.5794 165.508 53.8994 166.004 54.2994 166.452C54.6994 166.9 55.1634 167.26 55.6914 167.532C56.2194 167.788 56.7634 167.916 57.3234 167.916ZM65.1966 165.876C65.1966 165.076 65.4206 164.388 65.8686 163.812C66.3326 163.22 66.9646 162.764 67.7646 162.444C68.5646 162.124 69.4926 161.964 70.5486 161.964C71.1086 161.964 71.7006 162.012 72.3246 162.108C72.9486 162.188 73.5006 162.316 73.9806 162.492V161.58C73.9806 160.62 73.6926 159.868 73.1166 159.324C72.5406 158.764 71.7246 158.484 70.6686 158.484C69.9806 158.484 69.3166 158.612 68.6766 158.868C68.0526 159.108 67.3886 159.46 66.6846 159.924L65.9166 158.436C66.7326 157.876 67.5486 157.46 68.3646 157.188C69.1806 156.9 70.0286 156.756 70.9086 156.756C72.5086 156.756 73.7726 157.204 74.7006 158.1C75.6286 158.98 76.0926 160.212 76.0926 161.796V167.1C76.0926 167.356 76.1406 167.548 76.2366 167.676C76.3486 167.788 76.5246 167.852 76.7646 167.868V169.5C76.5566 169.532 76.3726 169.556 76.2126 169.572C76.0686 169.588 75.9486 169.596 75.8526 169.596C75.3566 169.596 74.9806 169.46 74.7246 169.188C74.4846 168.916 74.3486 168.628 74.3166 168.324L74.2686 167.532C73.7246 168.236 73.0126 168.78 72.1326 169.164C71.2526 169.548 70.3806 169.74 69.5166 169.74C68.6846 169.74 67.9406 169.572 67.2846 169.236C66.6286 168.884 66.1166 168.42 65.7486 167.844C65.3806 167.252 65.1966 166.596 65.1966 165.876ZM73.3566 166.764C73.5486 166.54 73.7006 166.316 73.8126 166.092C73.9246 165.852 73.9806 165.652 73.9806 165.492V163.932C73.4846 163.74 72.9646 163.596 72.4206 163.5C71.8766 163.388 71.3406 163.332 70.8126 163.332C69.7406 163.332 68.8686 163.548 68.1966 163.98C67.5406 164.396 67.2126 164.972 67.2126 165.708C67.2126 166.108 67.3166 166.5 67.5246 166.884C67.7486 167.252 68.0686 167.556 68.4846 167.796C68.9166 168.036 69.4446 168.156 70.0686 168.156C70.7246 168.156 71.3486 168.028 71.9406 167.772C72.5326 167.5 73.0046 167.164 73.3566 166.764ZM83.7656 169.74C82.7256 169.74 81.7496 169.572 80.8376 169.236C79.9256 168.884 79.1416 168.364 78.4856 167.676L79.3016 166.188C80.0216 166.86 80.7416 167.34 81.4616 167.628C82.1816 167.916 82.9176 168.06 83.6696 168.06C84.5336 168.06 85.2376 167.9 85.7816 167.58C86.3256 167.244 86.5976 166.756 86.5976 166.116C86.5976 165.652 86.4536 165.308 86.1656 165.084C85.8936 164.86 85.5016 164.676 84.9896 164.532C84.4776 164.372 83.8696 164.196 83.1656 164.004C82.3016 163.748 81.5736 163.476 80.9816 163.188C80.3896 162.9 79.9416 162.54 79.6376 162.108C79.3336 161.676 79.1816 161.132 79.1816 160.476C79.1816 159.676 79.3896 159.004 79.8056 158.46C80.2216 157.9 80.7896 157.476 81.5096 157.188C82.2456 156.9 83.0776 156.756 84.0056 156.756C84.9336 156.756 85.7736 156.9 86.5256 157.188C87.2776 157.476 87.9256 157.9 88.4696 158.46L87.5096 159.924C87.0136 159.412 86.4696 159.036 85.8776 158.796C85.2856 158.54 84.6216 158.412 83.8856 158.412C83.4536 158.412 83.0296 158.468 82.6136 158.58C82.1976 158.676 81.8536 158.86 81.5816 159.132C81.3096 159.388 81.1736 159.756 81.1736 160.236C81.1736 160.636 81.2776 160.956 81.4856 161.196C81.7096 161.42 82.0296 161.612 82.4456 161.772C82.8776 161.932 83.3976 162.108 84.0056 162.3C84.9496 162.572 85.7656 162.844 86.4536 163.116C87.1576 163.388 87.7016 163.74 88.0856 164.172C88.4696 164.604 88.6616 165.204 88.6616 165.972C88.6616 167.156 88.2136 168.084 87.3176 168.756C86.4216 169.412 85.2376 169.74 83.7656 169.74ZM95.4844 169.74C94.4444 169.74 93.4684 169.572 92.5564 169.236C91.6444 168.884 90.8604 168.364 90.2044 167.676L91.0204 166.188C91.7404 166.86 92.4604 167.34 93.1804 167.628C93.9004 167.916 94.6364 168.06 95.3884 168.06C96.2524 168.06 96.9564 167.9 97.5004 167.58C98.0444 167.244 98.3164 166.756 98.3164 166.116C98.3164 165.652 98.1724 165.308 97.8844 165.084C97.6124 164.86 97.2204 164.676 96.7084 164.532C96.1964 164.372 95.5884 164.196 94.8844 164.004C94.0204 163.748 93.2924 163.476 92.7004 163.188C92.1084 162.9 91.6604 162.54 91.3564 162.108C91.0524 161.676 90.9004 161.132 90.9004 160.476C90.9004 159.676 91.1084 159.004 91.5244 158.46C91.9404 157.9 92.5084 157.476 93.2284 157.188C93.9644 156.9 94.7964 156.756 95.7244 156.756C96.6524 156.756 97.4924 156.9 98.2444 157.188C98.9964 157.476 99.6444 157.9 100.188 158.46L99.2284 159.924C98.7324 159.412 98.1884 159.036 97.5964 158.796C97.0044 158.54 96.3404 158.412 95.6044 158.412C95.1724 158.412 94.7484 158.468 94.3324 158.58C93.9164 158.676 93.5724 158.86 93.3004 159.132C93.0284 159.388 92.8924 159.756 92.8924 160.236C92.8924 160.636 92.9964 160.956 93.2044 161.196C93.4284 161.42 93.7484 161.612 94.1644 161.772C94.5964 161.932 95.1164 162.108 95.7244 162.3C96.6684 162.572 97.4844 162.844 98.1724 163.116C98.8764 163.388 99.4204 163.74 99.8044 164.172C100.188 164.604 100.38 165.204 100.38 165.972C100.38 167.156 99.9324 168.084 99.0364 168.756C98.1404 169.412 96.9564 169.74 95.4844 169.74ZM108.451 169.74C107.507 169.74 106.643 169.572 105.859 169.236C105.091 168.884 104.419 168.412 103.843 167.82C103.283 167.212 102.843 166.516 102.523 165.732C102.219 164.948 102.067 164.116 102.067 163.236C102.067 162.052 102.339 160.972 102.883 159.996C103.427 159.02 104.179 158.236 105.139 157.644C106.115 157.052 107.227 156.756 108.475 156.756C109.739 156.756 110.835 157.06 111.763 157.668C112.707 158.26 113.435 159.044 113.947 160.02C114.475 160.98 114.739 162.02 114.739 163.14C114.739 163.3 114.731 163.46 114.715 163.62C114.715 163.764 114.707 163.876 114.691 163.956H104.299C104.363 164.772 104.587 165.5 104.971 166.14C105.371 166.764 105.883 167.26 106.507 167.628C107.131 167.98 107.803 168.156 108.523 168.156C109.291 168.156 110.011 167.964 110.683 167.58C111.371 167.196 111.843 166.692 112.099 166.068L113.923 166.572C113.651 167.18 113.243 167.724 112.699 168.204C112.171 168.684 111.539 169.06 110.803 169.332C110.083 169.604 109.299 169.74 108.451 169.74ZM104.227 162.492H112.771C112.707 161.676 112.475 160.956 112.075 160.332C111.675 159.708 111.163 159.22 110.539 158.868C109.915 158.516 109.227 158.34 108.475 158.34C107.739 158.34 107.059 158.516 106.435 158.868C105.811 159.22 105.299 159.708 104.899 160.332C104.515 160.956 104.291 161.676 104.227 162.492ZM116.271 163.26C116.271 162.076 116.511 160.996 116.991 160.02C117.487 159.028 118.159 158.236 119.007 157.644C119.871 157.052 120.855 156.756 121.959 156.756C122.967 156.756 123.871 157.02 124.671 157.548C125.471 158.076 126.095 158.716 126.543 159.468V151.98H128.655V167.1C128.655 167.356 128.703 167.548 128.799 167.676C128.911 167.788 129.087 167.852 129.327 167.868V169.5C128.927 169.564 128.615 169.596 128.391 169.596C127.975 169.596 127.607 169.452 127.287 169.164C126.983 168.876 126.831 168.556 126.831 168.204V167.148C126.335 167.948 125.671 168.58 124.839 169.044C124.007 169.508 123.143 169.74 122.247 169.74C121.383 169.74 120.583 169.572 119.847 169.236C119.127 168.884 118.495 168.404 117.951 167.796C117.423 167.188 117.007 166.5 116.703 165.732C116.415 164.948 116.271 164.124 116.271 163.26ZM126.543 165.108V161.508C126.351 160.964 126.039 160.476 125.607 160.044C125.175 159.596 124.687 159.244 124.143 158.988C123.615 158.716 123.087 158.58 122.559 158.58C121.935 158.58 121.367 158.716 120.855 158.988C120.359 159.244 119.927 159.596 119.559 160.044C119.207 160.476 118.935 160.972 118.743 161.532C118.551 162.092 118.455 162.676 118.455 163.284C118.455 163.908 118.559 164.5 118.767 165.06C118.991 165.62 119.295 166.116 119.679 166.548C120.079 166.98 120.535 167.316 121.047 167.556C121.575 167.796 122.143 167.916 122.751 167.916C123.135 167.916 123.527 167.844 123.927 167.7C124.343 167.556 124.735 167.356 125.103 167.1C125.471 166.844 125.783 166.548 126.039 166.212C126.295 165.86 126.463 165.492 126.543 165.108Z" fill="white"/>
<defs>
<clipPath id="clip0_3680_4911">
<rect width="80" height="80" fill="white" transform="translate(50 14.5)"/>
</clipPath>
</defs>
</svg>
