<svg width="99" height="98" viewBox="0 0 99 98" fill="none" xmlns="http://www.w3.org/2000/svg">
<path d="M65.2122 39.2295C64.6581 37.1412 63.9777 35.163 63.2178 33.2805C56.1298 34.8471 53.8195 28.6923 56.7941 24.3893C55.6875 22.727 54.0741 21.5411 51.8576 20.9563C48.883 25.5121 40.7679 23.218 41.4953 17C39.1692 17 36.844 17 34.5499 17C35.135 23.6619 27.1136 25.0698 23.697 20.9563C22.0183 22.0628 19.7243 22.5375 19.235 24.8948C22.493 28.8025 19.5185 34.9104 12.8113 33.2806C12.0838 35.1632 11.371 37.1413 10.8496 39.2296C16.4663 40.1158 16.4663 48.7219 10.8496 49.608C11.3711 51.6801 12.0838 53.6583 12.8113 55.5408C19.8993 53.9742 22.2728 60.129 19.235 64.4337C20.3577 66.1105 21.9552 67.3126 24.2022 67.8813C27.1768 63.3255 35.2773 65.6196 34.5499 71.8538C36.844 71.8538 39.1691 71.8538 41.4953 71.8538C40.8943 65.1611 48.9317 63.7678 52.3647 67.8813C54.0418 66.7748 56.3517 66.2677 56.7941 63.9266C53.5668 60.0026 56.5413 53.9273 63.2178 55.5408C63.9776 53.6582 64.6581 51.6801 65.2122 49.608C59.3571 48.1677 59.3571 40.6536 65.2122 39.2295ZM38.0299 54.7177C32.3352 54.7177 27.7311 50.0988 27.7311 44.4187C27.7311 38.7224 32.3351 34.1197 38.0299 34.1197C43.6938 34.1197 48.3305 38.7224 48.3305 44.4187C48.3306 50.0988 43.6938 54.7177 38.0299 54.7177Z" fill="#2B629D"/>
<path d="M89.6552 65.1608C89.4656 64.0219 89.26 62.9298 88.9602 61.9011C85.1159 62.2802 84.2295 58.8634 86.1283 56.7913C85.5904 55.8257 84.8306 55.0983 83.6917 54.6544C81.8561 56.8707 77.6473 55.1922 78.4539 51.918C77.2356 51.7592 76.0172 51.6329 74.7681 51.4902C74.7049 55.035 70.3532 55.304 68.8028 52.8836C67.8064 53.389 66.5881 53.5154 66.193 54.7175C67.6638 56.997 65.7181 60.0347 62.2526 58.7678C61.7472 59.7172 61.2563 60.7152 60.8447 61.7748C63.756 62.5978 63.2182 67.1859 60.2129 67.2961C60.37 68.4513 60.592 69.5108 60.8771 70.5396C64.7378 70.1605 65.5916 73.5773 63.756 75.6657C64.2307 76.6151 64.9905 77.3425 66.1133 77.7864C67.9959 75.5718 72.1418 77.2793 71.3658 80.5698C72.6165 80.6816 73.8511 80.8241 75.0369 80.9812C75.1471 77.4056 79.4987 77.1529 81.0494 79.5264C82.0147 79.0355 83.2476 78.9415 83.6592 77.7232C82.2043 75.4437 84.1339 72.406 87.5831 73.6567C88.074 72.7073 88.5649 71.711 88.991 70.666C86.0018 69.527 86.4444 65.5561 89.6552 65.1608ZM74.2774 71.6785C71.2556 71.3302 69.1203 68.5938 69.4524 65.5723C69.8477 62.5815 72.5209 60.4138 75.5425 60.7783C78.5494 61.1267 80.7479 63.8306 80.3367 66.8684C80.0366 69.8753 77.2986 72.0268 74.2774 71.6785Z" fill="#2B629D"/>
</svg>
