<svg width="120" height="120" viewBox="0 0 120 120" fill="none" xmlns="http://www.w3.org/2000/svg">
<rect x="1.5" y="1.5" width="117" height="117" rx="8.5" stroke="white" stroke-width="3"/>
<path d="M86.7364 90.0715H33.2644C29.4844 90.0715 26.4004 86.9875 26.4004 83.1955V36.8035C26.4004 33.0115 29.4844 29.9395 33.2644 29.9395H86.7364C90.5284 29.9395 93.6004 33.0235 93.6004 36.8035V83.2075C93.6004 86.9875 90.5164 90.0715 86.7364 90.0715ZM33.2644 33.5275C31.4644 33.5275 30.0004 35.0035 30.0004 36.8035V83.2075C30.0004 85.0075 31.4644 86.4715 33.2644 86.4715H86.7364C88.5364 86.4715 90.0004 85.0075 90.0004 83.2075V36.8035C90.0004 35.0035 88.5364 33.5395 86.7364 33.5395H33.2644V33.5275Z" fill="white"/>
<path d="M91.8004 45.2758H28.2004C27.2044 45.2758 26.4004 44.4718 26.4004 43.4758C26.4004 42.4798 27.2044 41.6758 28.2004 41.6758H91.8004C92.7964 41.6758 93.6004 42.4798 93.6004 43.4758C93.6004 44.4718 92.7964 45.2758 91.8004 45.2758ZM73.7764 74.9638C73.3204 74.9638 72.8524 74.7838 72.5044 74.4358C72.336 74.2695 72.2024 74.0714 72.1112 73.8531C72.0199 73.6347 71.973 73.4004 71.973 73.1638C71.973 72.9271 72.0199 72.6929 72.1112 72.4745C72.2024 72.2562 72.336 72.0581 72.5044 71.8918L79.5964 64.7998L72.5044 57.7078C71.7964 56.9998 71.7964 55.8598 72.5044 55.1638C73.2124 54.4678 74.3524 54.4558 75.0484 55.1638L83.4124 63.5278C84.1204 64.2358 84.1204 65.3758 83.4124 66.0718L75.0484 74.4358C74.7004 74.7958 74.2324 74.9638 73.7764 74.9638ZM46.2244 74.9638C45.7684 74.9638 45.3004 74.7838 44.9524 74.4358L36.5884 66.0718C36.42 65.9055 36.2864 65.7074 36.1952 65.4891C36.1039 65.2707 36.057 65.0364 36.057 64.7998C36.057 64.5631 36.1039 64.3289 36.1952 64.1105C36.2864 63.8922 36.42 63.6941 36.5884 63.5278L44.9524 55.1638C45.6604 54.4558 46.8004 54.4558 47.4964 55.1638C48.1924 55.8718 48.2044 57.0118 47.4964 57.7078L40.4044 64.7998L47.4964 71.8918C48.2044 72.5998 48.2044 73.7398 47.4964 74.4358C47.1484 74.7958 46.6804 74.9638 46.2244 74.9638Z" fill="white"/>
<path d="M56.2678 79.7398C56.0998 79.7398 55.9438 79.7158 55.7758 79.6678C54.8158 79.3918 54.2638 78.3958 54.5398 77.4478L62.0038 51.1798C62.2798 50.2198 63.2758 49.6798 64.2238 49.9438C65.1838 50.2198 65.7358 51.2158 65.4598 52.1638L57.9958 78.4318C57.7798 79.2118 57.0598 79.7398 56.2678 79.7398Z" fill="white"/>
</svg>
