<svg width="120" height="120" viewBox="0 0 120 120" fill="none" xmlns="http://www.w3.org/2000/svg">
<rect x="1.5" y="1.5" width="117" height="117" rx="8.5" stroke="white" stroke-width="3"/>
<path d="M65.5607 83.6812H50.8807C49.7807 83.6812 48.8807 82.7812 48.8807 81.6812V54.5412H40.6607C38.9007 54.5412 37.3607 53.6612 36.6207 52.2412C35.9807 51.0012 36.0807 49.5612 36.9007 48.4012L41.2607 42.2212C41.9007 41.3212 43.1407 41.1012 44.0407 41.7412C44.9407 42.3812 45.1607 43.6212 44.5207 44.5212L40.3007 50.5012C40.3807 50.5412 40.4807 50.5612 40.6407 50.5612H50.8607C51.9607 50.5612 52.8607 51.4612 52.8607 52.5612V79.7012H63.5407V52.5412C63.5407 51.4412 64.4407 50.5412 65.5407 50.5412H75.7607C75.9007 50.5412 76.0207 50.5212 76.1007 50.4812L58.7007 25.8412C58.6207 25.7212 57.8207 25.7212 57.7207 25.8412L52.2807 33.5412C51.6407 34.4412 50.4007 34.6612 49.5007 34.0212C49.2863 33.8704 49.1038 33.6788 48.9637 33.4574C48.8235 33.2359 48.7284 32.989 48.6838 32.7308C48.6392 32.4725 48.646 32.208 48.7038 31.9524C48.7616 31.6968 48.8693 31.4551 49.0207 31.2412L54.4607 23.5412C55.2807 22.3812 56.6807 21.7012 58.2207 21.7012C59.7607 21.7012 61.1607 22.3812 61.9807 23.5412L79.5407 48.4012C80.3607 49.5612 80.4607 51.0012 79.8207 52.2412C79.0807 53.6612 77.5407 54.5412 75.7807 54.5412H67.5607V81.6812C67.5607 82.7812 66.6607 83.6812 65.5607 83.6812ZM86.2207 95.6812H30.2207C29.1207 95.6812 28.2207 94.7812 28.2207 93.6812V87.6812C28.2207 86.5812 29.1207 85.6812 30.2207 85.6812H86.2207C87.3207 85.6812 88.2207 86.5812 88.2207 87.6812V93.6812C88.2207 94.7812 87.3207 95.6812 86.2207 95.6812ZM32.2207 91.6812H84.2207V89.6812H32.2207V91.6812Z" fill="white"/>
</svg>
