<svg width="120" height="120" viewBox="0 0 120 120" fill="none" xmlns="http://www.w3.org/2000/svg">
<rect x="1.5" y="1.5" width="117" height="117" rx="8.5" stroke="white" stroke-width="3"/>
<g clip-path="url(#clip0_3735_26065)">
<path d="M38.4267 63.417C37.9396 63.8856 37.6584 64.5284 37.645 65.2042C37.6316 65.88 37.8871 66.5335 38.3553 67.021L45.6653 74.6336C46.9879 76.0106 48.7797 76.7994 50.5817 76.7994C52.2137 76.7994 53.7199 76.1636 54.8283 75.0144L71.4645 57.6982C71.9018 57.2048 72.1314 56.5613 72.105 55.9025C72.0786 55.2437 71.7984 54.6206 71.3231 54.1637C70.8477 53.7068 70.214 53.4514 69.5547 53.4512C68.8953 53.4509 68.2614 53.7057 67.7857 54.1622L51.1529 71.4784C51.1019 71.5328 50.9421 71.696 50.5851 71.696C50.1097 71.6679 49.6647 71.4528 49.3475 71.0976L42.0375 63.485C41.5668 62.9988 40.9228 62.7186 40.2461 62.7059C39.5695 62.6931 38.9153 62.9488 38.4267 63.417Z" fill="white"/>
<path d="M91.45 41.0314C92.1263 41.0314 92.7749 40.7627 93.2531 40.2845C93.7313 39.8063 94 39.1577 94 38.4814V31.8616C94 28.5738 91.4262 26 88.1384 26H41.7794C38.546 26 35.9178 28.6282 35.9178 31.8616V35.9212H31.95C28.669 35.9212 26 38.5902 26 41.8712V88.05C26 91.331 28.669 94 31.95 94H78.1322C81.4132 94 84.0822 91.331 84.0822 88.05V84.0788H88.1384C91.3718 84.0788 94 81.4506 94 78.2172V51.7278C94 51.0515 93.7313 50.4029 93.2531 49.9247C92.7749 49.4465 92.1263 49.1778 91.45 49.1778C90.7737 49.1778 90.1251 49.4465 89.6469 49.9247C89.1687 50.4029 88.9 51.0515 88.9 51.7278V78.2172C88.9009 78.3175 88.8818 78.4169 88.8439 78.5097C88.8059 78.6025 88.7499 78.6869 88.679 78.7578C88.6081 78.8287 88.5237 78.8847 88.4309 78.9227C88.3381 78.9606 88.2387 78.9797 88.1384 78.9788H84.0822V41.8712C84.0822 38.5902 81.4132 35.9212 78.1322 35.9212H41.0178V31.8616C41.0178 31.4366 41.3544 31.1 41.7794 31.1H88.1384C88.5872 31.1 88.9 31.4128 88.9 31.8616V38.4848C88.9009 39.1605 89.17 39.8082 89.6481 40.2857C90.1262 40.7632 90.7743 41.0314 91.45 41.0314ZM78.9822 41.8712V81.4438C78.9822 81.471 78.9652 81.4982 78.9652 81.5254C78.9652 81.5526 78.9822 81.5798 78.9822 81.607V88.0466C78.9822 88.272 78.8926 88.4882 78.7332 88.6476C78.5738 88.807 78.3576 88.8966 78.1322 88.8966H31.95C31.7246 88.8966 31.5084 88.807 31.349 88.6476C31.1896 88.4882 31.1 88.272 31.1 88.0466V41.8712C31.1 41.7596 31.122 41.649 31.1647 41.5459C31.2074 41.4428 31.27 41.3491 31.349 41.2702C31.4279 41.1912 31.5216 41.1286 31.6247 41.0859C31.7278 41.0432 31.8384 41.0212 31.95 41.0212H38.41C38.4304 41.0212 38.4474 41.0314 38.4678 41.0314C38.4882 41.0314 38.5052 41.0212 38.5256 41.0212H78.1322C78.2438 41.0212 78.3544 41.0432 78.4575 41.0859C78.5606 41.1286 78.6543 41.1912 78.7332 41.2702C78.8122 41.3491 78.8748 41.4428 78.9175 41.5459C78.9602 41.649 78.9822 41.7596 78.9822 41.8712Z" fill="white"/>
</g>
<defs>
<clipPath id="clip0_3735_26065">
<rect width="68" height="68" fill="white" transform="translate(26 26)"/>
</clipPath>
</defs>
</svg>
