<svg width="234" height="235" viewBox="0 0 234 235" fill="none" xmlns="http://www.w3.org/2000/svg">
<path d="M24.1685 0C86.0562 0 147.922 0 209.789 0C210.217 0.149849 210.624 0.363919 211.052 0.42814C221.798 2.35477 228.948 8.51999 232.587 18.7525C233.208 20.5293 233.55 22.3917 234 24.2327V209.853C233.85 210.281 233.636 210.688 233.572 211.137C231.131 224.881 220.407 234 206.385 234.021C146.745 234.064 87.1051 234.064 27.4652 233.979C24.404 233.979 21.1929 233.465 18.2816 232.523C6.91446 228.734 0 218.523 0 205.85C0 146.659 0 87.469 0 28.3001C0 27.4652 0 26.6303 0.042814 25.7954C0.620803 14.2999 8.32733 4.47406 19.3305 1.19879C20.9361 0.727838 22.563 0.406733 24.1685 0ZM80.2763 114.249C78.3925 115.362 76.1661 116.54 74.0897 117.953C59.5543 127.778 59.4473 148.094 73.8328 158.069C86.4201 166.803 108.148 166.332 120.436 157.106C133.408 147.387 134.821 126.901 120.436 116.732C118.102 115.084 115.512 113.842 112.836 112.28C113.842 111.68 114.763 111.167 115.641 110.631C130.84 101.533 131.075 80.8329 116.09 71.7991C104.787 64.9703 86.3131 66.0406 75.845 74.0897C65.2272 82.2671 63.1935 96.9523 71.585 106.821C74.004 109.647 77.2793 111.745 80.2335 114.228L80.2763 114.249ZM198.7 67.4107C194.076 67.796 189.752 68.0101 185.47 68.5666C175.623 69.8511 166.675 73.3618 158.883 79.6769C140.195 94.8116 136.063 124.546 143.641 143.427C153.317 167.574 182.431 169.051 196.431 157.02C206.278 148.565 209.81 137.69 208.012 125.038C206.449 114.014 200.819 105.708 190.051 102.026C178.963 98.2368 168.58 99.7781 159.739 108.148C159.461 108.426 159.097 108.619 158.433 109.112C160.916 97.83 166.889 89.9308 177.164 85.4568C183.33 82.7595 189.859 81.839 196.538 81.732C197.266 81.732 198.593 81.1326 198.614 80.7686C198.764 76.4658 198.7 72.1416 198.7 67.3893V67.4107ZM44.2911 142.078C48.6367 135.849 52.9181 129.705 57.5634 123.069C54.2454 123.069 51.5267 123.155 48.808 123.026C47.1596 122.94 46.1749 123.454 45.3615 124.931C43.2207 128.806 40.9088 132.595 38.5968 136.512C36.0922 132.445 33.716 128.549 31.2542 124.696C30.8475 124.054 30.1197 123.176 29.4989 123.155C26.1808 123.005 22.8627 123.09 19.0308 123.09C19.7587 124.203 20.1868 124.888 20.6364 125.552C24.1257 130.647 27.5508 135.763 31.1258 140.794C32.0035 142.057 32.0677 142.892 31.1472 144.176C27.3796 149.528 23.7618 154.987 20.0798 160.403C19.6302 161.066 19.2449 161.751 18.6027 162.779C21.9208 162.779 24.7893 162.715 27.6793 162.8C29.0493 162.843 29.9056 162.436 30.5906 161.173C32.6243 157.427 34.7864 153.745 36.9057 150.063C37.184 149.592 37.5265 149.164 37.9118 148.65C40.4807 152.996 42.8782 157.149 45.3615 161.238C45.7254 161.837 46.3676 162.65 46.9028 162.672C50.3493 162.8 53.8172 162.736 57.7347 162.736C53.0894 155.629 48.7438 148.95 44.2483 142.057L44.2911 142.078Z" fill="#00B7CF"/>
<path d="M112.473 136.726C112.559 144.09 108.62 149.227 102.24 150.897C94.1913 153.016 86.5276 150.212 83.2309 143.961C78.7355 135.42 82.8028 125.23 92.2433 121.27C94.1271 120.478 95.9681 120.092 97.8947 121.12C100.763 122.64 103.867 123.817 106.522 125.615C110.61 128.42 112.451 132.594 112.451 136.726H112.473Z" fill="#00B7CF"/>
<path d="M110.161 93.0363C110.097 99.3086 105.409 105.217 99.3075 106.737C99.0078 106.801 98.7081 106.908 98.4298 106.887C93.1637 106.587 85.7355 100.978 84.0871 96.0761C81.6896 88.8834 86.2064 81.2197 93.6989 80.0851C99.3289 79.2288 104.681 79.9352 107.977 85.2656C109.347 87.5133 109.84 90.2962 110.739 92.8223C110.546 92.8865 110.375 92.9507 110.182 93.0149L110.161 93.0363Z" fill="#00B7CF"/>
<path d="M190.306 132.168C190.221 137.156 189.215 141.887 186.003 145.826C179.988 153.211 168.471 152.59 162.52 144.477C158.817 139.446 157.425 133.517 157.939 127.416C158.752 117.761 168.963 111.275 178.597 113.908C185.083 115.685 189.536 121.336 190.071 128.507C190.156 129.728 190.221 130.926 190.285 132.147L190.306 132.168Z" fill="#00B7CF"/>
</svg>
